{"glyphs":{"0":{"ha":997,"x_min":125,"x_max":868,"o":"m 499 947 q 691 918 618 947 q 803 830 764 889 q 856 681 843 771 q 868 469 868 590 q 844 243 868 335 q 775 95 821 151 q 660 15 729 39 q 499 -10 590 -10 q 321 9 392 -10 q 208 81 250 28 q 147 226 165 133 q 126 469 129 319 q 143 660 125 572 q 204 811 161 747 q 319 911 247 875 q 499 947 390 947 m 507 99 q 613 124 575 99 q 669 197 651 149 q 691 313 688 244 q 693 469 694 382 q 690 596 692 532 q 672 713 689 660 q 618 800 656 765 q 507 839 581 835 l 489 839 q 388 812 425 839 q 331 736 350 785 q 306 619 311 688 q 300 469 300 551 q 305 313 300 382 q 330 196 310 243 q 392 124 350 149 q 507 99 433 99 z "},"1":{"ha":817,"x_min":181,"x_max":592,"o":"m 592 -4 q 495 -1 531 -1 q 431 0 460 0 q 358 -1 396 0 q 253 -4 321 -1 l 253 43 q 281 63 265 54 q 313 75 297 71 q 346 85 329 81 l 346 747 q 322 783 346 775 q 267 792 297 792 q 235 790 251 792 q 207 788 219 789 q 181 782 193 785 l 181 875 l 188 875 q 283 882 238 875 q 369 898 329 889 q 442 916 408 907 q 499 929 475 925 l 499 85 q 533 75 515 81 q 563 63 547 71 q 592 43 579 54 l 592 -4 z "},"2":{"ha":853,"x_min":89,"x_max":726,"o":"m 604 140 q 636 168 619 168 q 656 164 643 168 l 725 135 l 714 0 l 99 0 q 103 114 94 54 q 133 225 111 174 q 174 303 153 272 q 222 358 194 335 q 288 400 250 381 q 378 444 325 419 q 424 467 406 457 q 459 490 443 478 q 489 515 475 501 q 521 549 503 529 q 556 613 546 576 q 561 686 565 650 q 540 756 557 722 q 496 810 524 789 q 438 840 468 832 q 375 847 407 847 q 324 844 349 847 q 278 835 300 840 q 267 831 275 833 q 256 828 258 829 l 229 763 q 192 722 214 722 q 164 729 182 722 l 103 756 l 89 858 q 199 915 138 896 q 322 938 261 935 q 388 942 357 940 q 447 944 418 944 q 524 938 488 944 q 594 917 561 932 q 653 877 626 903 q 696 813 679 851 q 720 724 714 771 q 719 633 726 678 q 678 517 710 571 q 596 428 646 464 q 540 392 568 408 q 482 360 511 376 q 422 330 450 343 q 363 297 393 317 q 327 263 343 285 q 301 213 311 240 q 285 157 290 186 q 281 103 281 128 l 582 103 l 604 140 z "},"3":{"ha":782,"x_min":69,"x_max":699,"o":"m 681 367 q 698 278 699 319 q 689 200 697 236 q 644 106 676 144 q 569 42 613 67 q 473 5 525 17 q 369 -7 421 -7 q 232 6 303 -7 q 103 50 161 18 q 76 78 83 61 q 72 115 69 96 q 83 155 74 135 q 106 189 92 175 q 130 171 117 181 q 155 153 143 161 q 176 139 167 144 q 188 132 186 133 q 258 100 224 113 q 332 82 292 88 q 341 81 336 81 q 350 81 346 81 q 433 93 390 81 q 503 135 475 106 q 527 181 518 151 q 535 246 536 211 q 523 315 535 281 q 486 375 511 349 q 444 403 468 393 q 395 417 421 413 q 344 422 369 421 q 296 424 318 424 l 257 424 q 243 438 243 424 l 243 458 q 245 475 243 465 q 251 494 247 485 q 263 509 256 503 q 283 515 271 515 l 331 515 q 410 522 372 515 q 479 561 447 529 q 506 610 494 578 q 517 680 517 643 q 508 753 518 717 q 469 814 497 789 q 422 843 446 835 q 374 851 397 851 q 324 846 349 851 q 276 835 300 840 q 265 832 274 835 q 256 829 257 829 l 228 763 q 190 722 213 722 q 163 729 181 722 l 101 756 l 88 860 q 238 925 156 907 q 401 946 319 943 q 474 940 438 946 q 546 922 511 935 q 608 888 581 911 q 661 813 635 864 q 680 724 682 769 q 669 646 678 679 q 644 582 660 608 q 613 538 629 556 q 580 508 596 519 q 551 489 564 496 l 543 485 q 625 442 592 465 q 681 367 658 419 z "},"4":{"ha":926,"x_min":93,"x_max":829,"o":"m 119 350 l 533 931 l 604 931 q 663 908 638 931 q 689 839 689 886 l 689 313 l 781 313 q 817 307 804 313 q 829 279 829 301 l 829 222 l 689 222 l 689 85 q 738 71 711 82 q 782 44 765 60 l 782 -6 q 680 -1 717 -3 q 611 0 643 0 q 543 -1 579 0 q 443 -4 507 -1 l 443 44 q 503 76 468 67 q 519 81 511 79 q 536 86 528 83 l 536 222 l 111 222 q 103 235 108 225 q 95 261 97 244 q 98 301 93 278 q 119 350 103 324 m 536 313 l 536 758 l 257 313 l 536 313 z "},"5":{"ha":842,"x_min":94,"x_max":733,"o":"m 718 378 q 728 256 733 318 q 700 144 724 193 q 579 18 651 51 q 407 -15 507 -15 q 327 -9 369 -14 q 244 6 285 -4 q 165 31 203 15 q 94 71 126 47 l 108 175 l 169 201 q 197 208 188 208 q 235 168 219 208 l 261 101 q 272 98 264 100 q 283 96 281 96 q 319 89 300 92 q 360 86 339 86 q 438 97 399 86 q 510 136 478 108 q 548 201 538 161 q 558 282 558 240 q 547 360 557 324 q 519 413 536 396 q 476 444 500 433 q 425 459 451 454 q 374 465 399 464 q 328 467 349 467 q 310 467 319 467 q 290 466 301 467 q 265 464 279 465 q 224 459 250 463 q 179 453 197 456 l 171 453 q 142 466 154 453 q 135 521 131 479 l 175 928 l 649 928 q 686 922 674 928 q 699 894 699 917 l 699 838 l 301 838 l 274 547 q 367 562 314 557 q 461 567 421 567 q 529 560 497 567 q 601 535 561 553 q 672 479 642 517 q 718 378 703 442 z "},"6":{"ha":871,"x_min":76,"x_max":768,"o":"m 726 451 q 756 378 746 418 q 768 301 767 339 q 763 231 768 268 q 744 160 757 194 q 712 94 732 125 q 664 43 692 64 q 546 -11 611 0 q 415 -22 481 -22 q 265 -3 326 -22 q 165 56 204 15 q 106 161 125 97 q 83 315 88 225 q 88 553 76 442 q 126 753 99 664 q 186 851 146 814 q 278 907 226 888 q 389 933 331 926 q 501 940 447 940 q 615 931 571 940 q 688 910 660 921 q 738 879 719 896 l 722 789 l 628 749 q 599 743 613 743 q 576 751 585 743 q 557 782 567 760 l 522 846 l 482 846 q 423 843 453 846 q 367 831 393 840 q 319 801 340 821 q 285 746 297 781 q 275 713 279 729 q 267 677 271 697 q 261 631 264 657 q 256 565 258 604 l 421 564 q 507 561 463 564 q 592 548 551 558 q 668 515 633 538 q 726 451 703 493 m 253 457 q 251 422 251 440 q 251 388 250 404 q 252 360 251 372 q 253 346 253 349 q 256 295 254 324 q 260 239 257 267 q 272 186 264 211 q 294 143 279 161 q 355 99 319 114 q 428 85 390 85 q 534 120 490 85 q 589 219 578 156 q 592 320 599 269 q 563 415 586 371 q 538 440 554 431 q 498 456 521 450 q 447 465 475 463 q 392 467 419 467 q 316 463 353 467 q 253 457 279 460 z "},"7":{"ha":894,"x_min":101,"x_max":771,"o":"m 101 793 l 101 794 l 111 929 l 753 929 l 754 928 q 769 893 767 914 q 766 849 771 872 q 751 801 761 825 q 731 757 742 778 l 447 224 q 408 115 418 172 q 397 -1 397 57 l 213 -1 q 233 122 219 58 q 288 257 247 186 l 608 825 l 243 825 l 222 789 q 190 760 207 760 q 171 764 182 760 l 101 793 z "},"8":{"ha":843,"x_min":86,"x_max":768,"o":"m 753 343 q 767 271 767 308 q 760 197 768 233 q 714 101 747 140 q 635 37 681 61 q 537 1 590 13 q 431 -10 483 -10 q 365 -7 400 -10 q 297 2 331 -4 q 231 20 263 8 q 174 49 199 32 q 133 86 150 64 q 106 133 117 108 q 88 210 90 169 q 93 289 86 250 q 153 411 107 364 q 269 485 200 458 q 244 502 260 490 q 211 527 228 514 q 181 552 194 540 q 160 571 167 564 q 110 679 115 617 q 129 803 104 742 q 180 876 147 849 q 253 919 213 904 q 340 940 294 935 q 428 944 385 944 q 515 939 471 944 q 600 918 560 933 q 673 875 640 903 q 724 803 706 847 q 738 706 743 756 q 707 611 733 656 q 641 539 681 568 q 558 486 601 510 q 619 466 590 476 q 674 440 649 456 q 719 400 699 424 q 753 343 740 376 m 533 811 q 485 842 513 832 q 429 851 457 851 q 370 841 399 851 q 319 811 342 831 q 282 755 292 786 q 275 692 272 724 q 290 633 278 661 q 315 588 301 606 q 353 554 332 567 q 394 535 374 542 q 431 524 414 528 q 456 517 447 519 q 499 537 475 522 q 542 575 522 551 q 572 631 563 600 q 581 695 582 663 q 568 758 579 728 q 533 811 557 789 m 299 389 q 257 331 274 364 q 236 264 240 299 q 242 196 232 229 q 282 138 253 163 q 353 97 313 111 q 435 82 393 82 q 506 94 471 82 q 565 135 540 107 q 596 184 585 156 q 606 244 607 213 q 590 306 606 275 q 542 361 575 336 q 475 405 515 381 q 365 440 435 429 q 342 424 353 432 q 319 408 331 417 q 299 389 308 399 z "},"9":{"ha":857,"x_min":83,"x_max":775,"o":"m 769 606 q 762 365 775 479 q 704 168 749 250 q 634 72 671 108 q 553 14 597 35 q 458 -14 510 -7 q 344 -21 406 -21 q 234 -11 278 -21 q 163 10 190 -1 q 114 40 132 24 l 129 132 l 224 172 q 254 179 244 179 q 276 170 267 179 q 294 139 285 161 l 329 75 q 398 77 367 75 q 456 89 429 79 q 507 119 483 99 q 550 175 531 139 q 565 207 558 192 q 578 242 572 222 q 588 290 583 263 q 596 356 593 317 l 432 356 q 345 358 390 356 q 259 370 300 360 q 183 402 218 381 q 124 465 147 424 q 94 541 103 500 q 85 619 86 582 q 90 688 83 653 q 109 756 96 722 q 142 818 122 789 q 189 868 163 847 q 310 928 243 913 q 444 943 376 943 q 594 924 533 943 q 692 863 654 904 q 747 758 729 822 q 769 606 765 694 m 600 468 q 601 502 601 485 q 601 535 601 519 q 601 561 601 550 q 600 575 600 572 q 597 626 599 599 q 592 682 596 654 q 580 735 588 710 q 557 778 572 760 q 495 822 531 807 q 421 838 460 838 q 314 802 358 838 q 258 704 269 767 q 255 601 250 656 q 289 504 260 546 q 355 467 310 476 q 453 457 400 457 q 533 461 493 457 q 600 468 572 465 z "},"\u0000":{"ha":0,"x_min":0,"x_max":0,"o":""},"\r":{"ha":347,"x_min":0,"x_max":0,"o":""}," ":{"ha":722,"x_min":0,"x_max":0,"o":""},"፝":{"ha":1081,"x_min":117,"x_max":967,"o":"m 765 1300 l 967 1300 l 967 1126 l 765 1126 l 765 1300 m 443 1300 l 631 1300 l 631 1126 l 443 1126 l 443 1300 m 117 1126 l 117 1300 l 304 1300 l 304 1126 l 117 1126 z "},"፞":{"ha":415,"x_min":117,"x_max":304,"o":"m 304 1300 l 304 1126 l 117 1126 l 117 1300 l 304 1300 z "},"፟":{"ha":735,"x_min":111,"x_max":626,"o":"m 301 1300 l 301 1126 l 111 1126 l 111 1300 l 301 1300 m 439 1126 l 439 1300 l 626 1300 l 626 1126 l 439 1126 z "},"፠":{"ha":1063,"x_min":50,"x_max":1007,"o":"m 50 0 l 469 496 l 50 992 l 169 992 l 529 567 l 888 992 l 1007 992 l 589 496 l 1007 0 l 888 0 l 529 425 l 169 0 l 50 0 m 614 949 l 614 761 l 440 761 l 440 949 l 614 949 m 806 410 l 806 583 l 993 583 l 993 410 l 806 410 m 439 193 l 613 193 l 613 6 l 439 6 l 439 193 m 238 583 l 238 410 l 50 410 l 50 583 l 238 583 z "},"A":{"ha":1076,"x_min":86,"x_max":979,"o":"m 979 -3 q 922 -1 946 -1 q 878 1 897 0 q 844 1 860 1 q 814 1 829 1 q 755 1 788 1 q 663 -3 722 0 l 663 44 q 713 76 688 67 q 736 86 725 82 l 669 296 l 360 296 l 296 86 q 321 76 307 82 q 344 64 332 72 q 369 44 357 56 l 369 -3 q 281 1 310 0 q 233 1 253 1 q 209 1 221 1 q 181 1 197 1 q 142 -1 165 0 q 86 -3 119 -1 l 88 46 q 134 77 111 68 q 158 86 157 86 q 173 129 160 90 q 206 227 186 168 q 251 360 226 286 q 301 511 276 435 q 439 919 363 693 q 498 933 471 926 q 549 940 525 940 q 601 925 579 940 q 638 869 624 910 l 908 86 q 932 76 919 82 q 956 65 943 72 q 979 46 968 57 l 979 -3 m 635 400 l 508 788 l 390 400 l 635 400 z "},"B":{"ha":981,"x_min":128,"x_max":885,"o":"m 128 0 l 128 44 q 171 71 143 60 q 221 85 199 82 l 221 840 q 172 856 197 846 q 128 882 147 865 l 128 929 l 538 929 q 619 928 579 929 q 697 917 660 926 q 763 890 733 908 q 810 839 792 872 q 842 733 835 790 q 826 613 849 675 q 784 545 814 574 q 714 497 754 517 q 806 451 767 481 q 864 375 846 421 q 880 306 875 344 q 883 227 885 267 q 873 152 881 188 q 850 92 865 117 q 799 40 829 58 q 731 12 768 21 q 653 1 694 3 q 568 0 611 0 l 128 0 m 374 111 l 550 111 q 640 124 607 111 q 688 158 672 136 q 708 207 704 179 q 711 265 711 235 q 669 388 711 340 q 549 436 628 436 l 375 438 q 374 265 375 349 q 374 111 374 182 m 508 531 q 630 563 589 531 q 671 669 671 594 q 667 727 671 700 q 648 775 664 754 q 599 808 632 796 q 510 819 567 819 l 375 819 l 375 529 l 508 531 z "},"C":{"ha":857,"x_min":85,"x_max":775,"o":"m 731 207 q 755 172 744 193 q 768 128 765 150 q 765 88 771 107 q 740 58 760 69 q 594 -2 672 18 q 438 -22 517 -22 q 361 -16 399 -22 q 289 8 324 -10 q 160 128 208 49 q 100 296 111 207 q 88 506 85 400 q 131 711 92 611 q 191 819 156 776 q 272 888 226 863 q 372 924 317 914 q 492 935 426 935 q 624 920 571 935 q 711 888 678 906 q 775 839 750 865 l 757 722 l 661 682 q 632 675 643 675 q 610 684 619 675 q 592 715 601 693 l 547 819 q 492 826 522 826 q 380 801 424 826 q 310 735 336 776 q 274 638 285 693 q 261 522 264 583 q 260 431 260 481 q 269 331 261 381 q 292 237 276 282 q 338 158 308 192 q 401 113 365 126 q 476 99 438 99 q 544 107 510 99 q 613 130 579 115 q 676 165 646 144 q 731 207 706 185 z "},"D":{"ha":1035,"x_min":124,"x_max":925,"o":"m 124 929 l 561 929 q 676 923 622 929 q 775 894 731 917 q 851 828 819 872 q 900 706 883 783 q 919 574 913 646 q 925 429 925 501 q 917 291 925 357 q 892 176 908 225 q 824 76 869 113 q 728 24 779 40 q 630 3 678 7 q 553 0 582 0 l 124 0 l 124 44 q 152 63 136 56 q 183 75 168 71 q 200 80 192 78 q 217 85 208 82 l 217 840 q 199 845 207 843 q 182 850 190 847 q 124 881 147 860 l 124 929 m 544 101 q 658 128 617 101 q 721 201 700 154 q 747 310 742 247 q 750 446 751 374 q 738 608 749 538 q 702 725 728 678 q 631 797 676 772 q 515 821 586 821 l 371 819 l 369 103 l 544 101 z "},"E":{"ha":908,"x_min":126,"x_max":824,"o":"m 128 49 q 155 68 139 60 q 185 81 171 76 q 201 85 193 83 q 219 90 210 88 l 219 842 q 170 856 197 844 q 128 882 143 867 l 126 931 l 806 931 l 817 794 l 747 765 q 728 761 735 761 q 696 789 711 761 l 674 826 l 371 826 l 371 536 l 678 536 q 714 531 701 536 q 726 501 726 525 l 726 444 l 371 444 l 371 104 l 681 104 l 703 140 q 735 169 718 169 q 754 165 744 169 l 824 136 l 814 1 l 126 1 l 128 49 z "},"F":{"ha":910,"x_min":128,"x_max":818,"o":"m 129 44 q 188 75 153 65 q 204 80 196 78 q 221 85 213 82 l 221 840 q 204 845 213 843 q 188 850 196 847 q 129 881 153 860 l 128 929 l 807 929 l 818 794 l 749 765 q 728 760 736 760 q 697 789 713 760 l 675 825 l 372 825 l 372 510 l 679 510 q 717 504 704 510 q 729 475 729 499 l 728 418 l 372 419 l 372 83 q 422 69 394 81 q 465 43 449 58 l 467 -4 q 370 -1 406 -1 q 304 0 335 0 q 233 -1 271 0 q 128 -4 196 -1 l 129 44 z "},"G":{"ha":969,"x_min":92,"x_max":864,"o":"m 825 189 q 831 133 825 163 q 844 76 838 103 q 864 18 853 47 q 811 -6 839 -6 q 767 7 792 -6 l 696 39 q 574 -2 638 11 q 444 -15 510 -15 q 368 -9 406 -15 q 296 14 331 -3 q 222 65 254 35 q 166 134 190 96 q 127 215 142 172 q 107 303 113 258 q 94 513 92 407 q 138 718 97 618 q 200 828 164 785 q 281 897 236 872 q 382 932 326 922 q 504 942 438 942 q 646 928 585 942 q 747 899 707 915 q 832 856 796 879 l 813 738 l 718 699 q 688 692 697 692 q 647 731 665 692 l 603 831 q 579 835 593 833 q 549 836 565 836 q 413 816 465 836 q 328 757 360 796 q 284 660 297 718 q 268 528 271 603 q 267 431 265 479 q 276 333 269 382 q 299 240 283 285 q 344 160 315 194 q 413 106 372 126 q 507 85 453 85 q 583 96 544 85 q 656 125 622 107 q 672 138 658 128 l 672 356 q 639 365 656 360 q 608 378 624 371 q 579 397 592 386 l 579 444 q 694 442 638 442 q 810 442 751 442 l 825 442 l 825 189 z "},"H":{"ha":1174,"x_min":129,"x_max":1032,"o":"m 306 929 q 372 930 336 929 q 468 933 407 931 l 467 886 q 424 860 450 869 q 375 844 399 851 l 375 544 l 786 544 l 786 844 q 769 849 778 847 q 753 854 761 851 q 722 866 738 858 q 693 885 706 874 l 693 933 q 799 930 761 931 q 871 929 836 929 q 935 930 900 929 q 1032 933 971 931 l 1032 885 q 988 860 1013 868 q 939 844 963 851 l 939 85 q 988 69 964 78 q 1032 43 1013 61 l 1032 -4 q 934 -1 969 -3 q 868 0 899 0 q 797 -1 835 0 q 693 -4 760 -1 l 693 44 q 722 63 706 56 q 753 75 738 71 q 769 80 761 78 q 786 85 778 82 l 786 440 l 375 440 l 375 85 q 424 71 397 82 q 467 44 451 60 l 468 -4 q 370 -1 406 -3 q 304 0 335 0 q 233 -1 271 0 q 129 -4 196 -1 l 131 44 q 174 71 147 60 q 224 85 200 82 l 224 844 q 175 860 200 850 q 131 886 150 869 l 129 933 q 235 930 197 931 q 306 929 272 929 z "},"I":{"ha":613,"x_min":138,"x_max":475,"o":"m 196 75 q 213 80 204 78 q 231 85 221 82 l 231 844 q 213 849 221 847 q 196 854 204 851 q 138 885 161 864 l 138 933 q 243 930 206 931 q 314 929 281 929 q 379 930 343 929 q 475 933 415 931 l 475 885 q 431 860 456 868 q 382 844 406 851 l 382 85 q 431 69 406 78 q 475 44 456 61 l 475 -4 q 377 -1 413 -1 q 313 0 342 0 q 242 -1 279 0 q 138 -4 204 -1 l 138 44 q 196 75 161 65 z "},"J":{"ha":671,"x_min":71,"x_max":582,"o":"m 582 883 q 553 865 569 872 q 524 851 538 857 q 489 843 506 846 l 488 231 q 474 145 488 185 q 438 75 461 106 q 385 26 415 44 q 318 3 354 7 q 273 -1 294 0 q 233 -3 251 -3 q 165 3 192 -3 q 119 17 138 8 q 90 38 101 26 q 71 58 79 49 l 88 146 l 157 174 q 169 178 164 176 q 179 179 175 179 q 208 150 197 179 l 229 92 q 269 79 254 79 q 306 90 293 79 q 325 117 318 100 q 334 153 332 133 q 336 190 336 172 l 338 843 q 303 851 319 846 q 272 865 288 857 q 244 883 257 872 l 244 931 q 338 928 303 929 q 403 928 374 928 q 475 929 436 928 q 582 932 514 931 l 582 883 z "},"K":{"ha":1056,"x_min":117,"x_max":972,"o":"m 972 -4 q 888 0 933 0 q 845 -1 868 0 q 796 -3 822 -1 q 786 -3 790 -3 q 778 -4 782 -4 q 755 2 765 -4 q 729 31 744 8 l 422 432 l 364 383 l 363 85 q 397 75 381 81 q 428 63 413 71 q 456 44 444 56 l 456 -4 q 350 -1 388 -1 q 279 0 313 0 q 213 -1 249 0 q 117 -4 178 -1 l 118 44 q 147 63 131 56 q 178 75 163 71 q 211 85 194 81 l 211 844 q 178 854 194 849 q 147 866 163 858 q 118 885 131 874 l 117 933 q 214 930 178 931 q 281 929 250 929 q 353 930 315 929 q 460 933 392 931 l 458 885 q 431 866 447 874 q 400 854 415 858 q 365 844 383 849 l 364 503 l 711 844 l 710 844 q 686 854 699 849 q 638 885 663 864 l 636 933 q 688 931 667 932 q 725 930 710 931 q 752 929 740 929 q 774 929 764 929 q 798 929 786 929 q 826 930 810 929 q 866 931 843 931 q 922 933 889 932 l 921 885 q 897 866 910 874 q 872 854 883 858 q 847 844 860 849 l 526 521 l 821 165 q 879 108 853 128 q 926 78 906 88 q 969 65 950 67 l 972 -4 z "},"L":{"ha":869,"x_min":119,"x_max":781,"o":"m 781 138 l 771 1 l 119 1 l 121 50 q 149 69 133 61 q 179 81 164 76 q 214 90 196 86 l 214 846 q 179 856 196 850 q 149 869 164 861 q 121 888 133 876 l 119 935 q 225 931 188 932 q 297 931 263 931 q 362 931 326 931 q 458 935 397 932 l 457 888 q 428 869 444 876 q 399 856 413 861 q 364 846 381 850 l 364 106 l 639 106 l 660 142 q 690 171 675 171 q 699 169 694 171 q 711 165 704 168 l 781 138 z "},"M":{"ha":1369,"x_min":135,"x_max":1233,"o":"m 135 43 q 193 75 160 67 q 210 80 201 78 q 228 85 218 82 l 243 844 q 225 849 233 847 q 208 854 217 851 q 150 885 174 864 l 149 929 l 444 929 l 693 207 l 938 929 l 1218 929 l 1218 885 q 1174 860 1199 868 q 1125 844 1149 851 l 1140 85 q 1190 69 1165 78 q 1233 43 1214 61 l 1233 -4 q 1137 -1 1172 -1 q 1071 0 1101 0 q 1000 -1 1038 0 q 894 -4 963 -1 l 896 43 q 954 75 921 67 q 971 80 963 78 q 989 85 979 82 l 974 715 l 754 85 q 703 70 728 76 q 656 64 678 64 q 605 78 628 64 q 568 133 582 93 l 367 724 l 353 85 q 402 69 378 78 q 446 43 426 61 l 446 -4 q 358 -1 389 -1 q 300 0 326 0 q 271 0 286 0 q 237 -1 256 0 q 193 -2 218 -1 q 135 -4 168 -3 l 135 43 z "},"N":{"ha":1138,"x_min":115,"x_max":1011,"o":"m 174 75 q 190 80 182 78 q 208 85 199 82 l 208 844 q 190 849 199 847 q 174 854 182 851 q 115 885 139 864 l 115 929 l 354 929 l 793 183 l 793 844 q 743 858 771 847 q 700 885 715 869 l 699 933 q 792 931 760 932 q 853 929 825 929 q 914 930 881 929 q 1011 932 947 931 l 1010 885 q 967 858 993 868 q 917 843 940 849 l 917 0 q 896 -4 908 -3 q 833 -8 878 -8 q 782 -2 801 -8 q 749 15 763 4 q 726 42 736 26 q 704 78 717 58 l 333 706 l 333 85 q 383 69 358 78 q 426 43 407 61 l 426 -4 q 333 -1 365 -1 q 274 0 301 0 q 213 -1 246 0 q 115 -4 179 -1 l 115 43 q 174 75 140 67 z "},"O":{"ha":971,"x_min":82,"x_max":892,"o":"m 486 944 q 684 910 606 944 q 808 814 763 876 q 873 663 854 751 q 892 467 892 575 q 863 259 892 349 q 781 109 833 169 q 653 18 728 49 q 486 -12 578 -12 q 177 104 272 -12 q 82 467 82 221 q 105 657 82 569 q 176 808 128 744 q 301 908 225 872 q 486 944 378 944 m 494 96 q 606 121 563 96 q 674 193 649 146 q 708 310 699 240 q 717 467 717 379 q 710 615 717 547 q 679 731 703 682 q 612 808 656 781 q 494 836 568 835 q 383 812 429 838 q 309 738 338 786 q 267 622 281 690 q 254 467 254 553 q 264 309 254 378 q 301 193 274 240 q 374 121 328 146 q 494 96 421 96 z "},"P":{"ha":965,"x_min":118,"x_max":854,"o":"m 118 -4 l 118 43 q 161 69 133 58 q 211 83 189 81 l 211 840 q 193 845 201 843 q 176 850 185 847 q 118 881 142 860 l 118 929 l 536 929 q 613 926 574 929 q 689 913 653 924 q 757 879 725 901 q 813 817 789 857 q 847 713 840 771 q 849 598 854 654 q 827 495 843 542 q 793 426 811 449 q 738 379 768 396 q 674 354 707 363 q 604 344 640 346 q 532 343 568 343 l 364 344 l 364 85 q 382 80 374 82 q 399 75 390 78 q 430 63 414 71 q 457 44 446 56 l 457 -4 q 351 -1 389 -1 q 281 0 314 0 q 215 -1 250 0 q 118 -4 179 -1 m 547 442 q 615 458 589 442 q 655 502 640 475 q 675 563 669 529 q 681 632 681 597 q 674 699 681 665 q 648 760 667 733 q 595 804 629 788 q 508 821 561 821 l 367 819 l 365 444 l 547 442 z "},"Q":{"ha":1013,"x_min":100,"x_max":950,"o":"m 940 10 q 949 -26 949 -4 q 942 -68 950 -47 q 915 -103 933 -89 q 864 -118 896 -118 q 650 -14 731 -118 q 642 -3 646 -8 q 635 8 638 1 q 504 -10 576 -10 q 195 108 290 -10 q 100 468 100 225 q 123 659 100 571 q 195 811 146 747 q 321 911 244 875 q 504 947 397 947 q 702 913 624 947 q 826 817 781 879 q 891 666 872 754 q 910 468 910 578 q 864 215 910 318 q 735 56 818 113 q 794 12 758 28 q 865 -4 829 -4 q 873 -3 869 -4 q 881 -3 876 -3 q 900 1 888 -1 q 940 10 913 3 m 272 468 q 282 312 272 381 q 319 196 292 243 q 392 124 346 149 q 513 99 439 99 q 572 104 546 99 q 542 149 557 126 q 517 193 528 172 l 608 253 q 616 238 608 251 q 625 224 624 225 q 644 189 635 206 q 665 156 654 172 q 720 281 706 201 q 735 468 735 360 q 728 617 735 550 q 697 734 721 685 q 630 810 674 783 q 513 839 586 838 q 401 815 447 840 q 327 740 356 789 q 285 623 299 692 q 272 468 272 554 z "},"R":{"ha":1035,"x_min":118,"x_max":943,"o":"m 118 44 q 161 71 133 60 q 211 85 189 82 l 211 842 q 161 856 188 844 q 118 882 135 867 l 118 931 l 513 931 q 590 928 551 931 q 665 914 629 925 q 733 881 701 903 q 790 818 765 858 q 824 720 818 772 q 824 619 831 668 q 800 531 817 571 q 765 468 783 490 q 724 431 743 442 q 676 407 704 419 q 706 384 694 394 q 724 362 717 374 q 737 336 732 350 q 749 303 742 322 q 769 249 760 272 q 783 206 778 225 q 804 147 793 172 q 833 106 815 122 q 876 79 850 89 q 940 67 901 69 l 943 -3 q 924 0 933 0 q 906 0 915 0 q 836 -1 871 0 q 767 -3 801 -1 l 739 -3 q 711 3 719 -3 q 689 31 703 10 q 653 126 663 81 q 638 210 644 171 q 620 280 632 249 q 576 332 608 311 q 511 362 549 351 q 414 372 474 372 l 364 372 l 363 86 q 381 81 372 83 q 397 76 389 79 q 428 64 413 72 q 456 44 444 56 l 457 -3 q 358 0 394 -1 q 289 1 321 1 q 220 0 257 1 q 118 -4 183 -1 l 118 44 m 364 481 l 506 479 q 576 493 547 479 q 623 531 606 507 q 649 585 640 554 q 657 651 657 617 q 650 715 657 685 q 624 769 643 746 q 572 807 606 793 q 485 821 538 821 l 365 821 l 364 481 z "},"S":{"ha":810,"x_min":64,"x_max":728,"o":"m 692 374 q 718 319 710 349 q 727 260 726 290 q 722 201 728 231 q 704 144 715 171 q 649 65 686 97 q 567 14 613 33 q 470 -13 521 -6 q 374 -21 419 -21 q 253 -12 311 -21 q 138 19 196 -3 q 101 38 118 28 q 64 61 83 49 l 79 165 l 140 192 q 168 199 158 199 q 204 158 190 199 l 232 92 q 242 90 233 92 q 253 86 250 88 q 297 79 272 82 q 349 76 321 76 q 438 84 393 76 q 518 111 483 92 q 552 147 540 124 q 567 199 564 171 q 563 254 569 226 q 543 300 557 282 q 510 333 529 319 q 469 356 490 346 q 427 374 449 367 q 386 390 406 382 q 317 416 351 404 q 251 442 283 428 q 190 472 218 456 q 136 511 161 489 q 72 708 64 578 q 110 817 78 774 q 189 887 142 860 q 294 925 236 914 q 408 936 351 936 q 553 918 481 936 q 685 856 626 900 l 671 760 l 608 733 q 581 728 593 728 q 560 736 569 728 q 543 767 551 744 l 522 824 q 501 828 519 824 q 467 836 482 833 q 407 840 440 840 q 322 831 364 840 q 254 794 281 821 q 227 744 233 774 q 227 685 221 714 q 251 629 233 656 q 297 588 268 603 q 413 539 358 556 q 517 503 468 522 q 609 456 565 485 q 692 374 653 428 z "},"T":{"ha":1006,"x_min":75,"x_max":933,"o":"m 86 929 l 924 929 l 933 793 l 864 764 q 844 760 854 760 q 814 789 829 760 l 792 825 l 581 825 l 581 85 q 630 69 606 78 q 674 43 654 61 l 674 -4 q 578 -1 614 -1 q 513 0 542 0 q 442 -1 479 0 q 336 -4 404 -1 l 336 43 q 394 75 361 67 q 411 80 403 78 q 429 85 419 82 l 429 825 l 218 825 l 196 789 q 164 760 182 760 q 144 764 156 760 l 75 793 l 86 929 z "},"U":{"ha":1039,"x_min":108,"x_max":967,"o":"m 628 929 q 732 926 694 926 q 803 925 769 925 q 869 926 833 925 q 967 929 906 928 l 965 881 q 937 862 953 869 q 907 849 921 854 q 872 840 889 843 l 872 264 q 840 129 872 183 q 755 42 807 75 q 637 -6 703 8 q 504 -19 571 -19 q 376 -8 432 -19 q 281 34 319 4 q 222 117 242 64 q 201 251 201 169 l 201 840 q 168 849 185 843 q 138 862 153 854 q 110 881 122 869 l 108 929 q 213 926 175 926 q 283 925 250 925 q 350 926 314 925 q 447 929 386 928 l 446 881 q 417 862 433 869 q 388 849 401 854 q 353 840 369 843 l 353 374 q 358 259 353 308 q 379 176 364 210 q 424 124 394 142 q 499 103 453 106 q 577 109 538 103 q 649 133 617 115 q 702 182 682 151 q 722 260 722 213 l 722 840 q 688 849 704 843 q 657 862 672 854 q 629 881 642 869 l 628 929 z "},"V":{"ha":1075,"x_min":97,"x_max":978,"o":"m 685 925 q 742 923 719 924 q 781 922 765 922 q 808 921 797 921 q 828 921 819 921 q 849 921 839 921 q 876 922 860 921 q 916 923 892 922 q 978 925 940 924 l 978 876 q 951 856 964 864 q 928 843 939 847 q 906 835 917 838 l 631 -4 q 576 -16 604 -11 q 524 -21 549 -21 q 466 -9 492 -21 q 428 36 440 3 l 169 835 q 147 843 160 838 q 125 856 138 847 q 97 876 113 864 l 97 925 q 162 923 136 924 q 206 922 188 922 q 238 921 225 921 q 264 921 251 921 q 288 921 275 921 q 319 922 301 921 q 360 923 336 922 q 419 925 385 924 l 418 876 q 368 845 390 853 q 343 836 346 838 l 563 133 l 760 836 q 735 845 757 838 q 685 876 713 853 l 685 925 z "},"W":{"ha":1432,"x_min":74,"x_max":1326,"o":"m 1032 921 q 1092 918 1068 919 q 1131 916 1115 917 q 1158 915 1147 915 q 1176 914 1168 914 q 1197 915 1186 914 q 1223 916 1207 915 q 1263 917 1239 917 q 1326 919 1288 918 l 1325 871 q 1301 852 1314 860 q 1278 839 1289 844 q 1254 829 1265 833 l 1040 -7 q 986 -21 1014 -14 q 932 -28 958 -28 q 875 -13 900 -28 q 838 42 850 1 l 699 701 l 547 -4 q 492 -18 519 -11 q 436 -25 464 -25 q 378 -10 404 -25 q 340 44 353 4 l 146 829 q 124 838 135 832 q 100 851 113 843 q 74 871 88 860 l 74 921 q 137 919 111 919 q 181 917 163 918 q 212 917 199 917 q 238 917 225 917 q 294 918 261 917 q 396 921 326 919 l 394 871 q 344 839 367 847 q 319 831 322 831 l 464 169 l 611 847 q 628 882 615 867 q 657 905 639 894 q 706 915 675 915 l 808 914 l 965 150 l 1107 831 q 1083 839 1096 833 q 1033 871 1060 849 l 1032 921 z "},"X":{"ha":940,"x_min":75,"x_max":925,"o":"m 925 -4 q 831 -1 864 -1 q 769 0 797 0 q 704 -1 739 0 q 603 -4 669 -1 l 603 44 q 628 63 615 56 q 651 76 640 71 q 676 85 664 82 l 488 378 l 289 85 q 314 76 301 82 q 338 63 325 71 q 363 44 351 56 l 363 -4 q 306 -2 329 -3 q 267 -1 283 -1 q 240 0 251 0 q 215 0 228 0 q 165 -1 194 0 q 75 -4 136 -3 l 75 44 q 101 63 88 56 q 125 76 114 71 q 149 85 138 82 l 424 479 l 185 850 q 164 857 175 853 q 114 886 143 865 l 114 933 q 208 930 175 931 q 269 929 242 929 q 301 929 285 929 q 335 930 317 929 q 379 931 354 931 q 438 933 404 932 l 436 886 q 412 867 425 875 q 388 854 399 860 q 364 844 375 849 l 514 610 l 678 844 q 651 855 675 846 q 604 886 628 864 l 604 933 q 662 931 639 932 q 700 930 685 931 q 726 929 715 929 q 747 929 738 929 q 767 929 757 929 q 792 930 778 929 q 828 931 807 931 q 878 932 849 932 l 878 885 q 853 866 867 874 q 829 853 840 858 q 804 843 817 847 l 578 511 l 856 79 q 876 72 865 78 q 899 63 886 69 q 925 44 911 56 l 925 -4 z "},"Y":{"ha":950,"x_min":65,"x_max":908,"o":"m 614 935 q 672 933 649 933 q 712 931 696 932 q 739 931 728 931 q 758 931 750 931 q 778 931 768 931 q 805 931 789 931 q 846 933 821 932 q 908 935 871 933 l 907 885 q 881 865 893 872 q 858 853 868 857 q 836 844 846 847 l 571 296 l 571 85 q 606 76 588 82 q 635 63 619 71 q 664 44 651 56 l 665 -3 q 569 1 604 0 q 503 1 533 1 q 432 1 469 1 q 326 -3 394 0 l 326 44 q 354 64 339 56 q 385 76 369 72 q 419 86 401 82 l 419 294 l 138 844 q 115 853 126 847 q 92 865 104 857 q 65 885 79 872 l 65 935 q 128 933 103 933 q 173 931 154 932 q 205 931 192 931 q 231 931 218 931 q 254 931 242 931 q 285 931 267 931 q 327 933 303 932 q 386 935 351 933 l 386 886 q 337 853 358 861 q 311 844 315 846 l 511 403 l 689 844 q 664 853 686 846 q 615 886 642 861 l 614 935 z "},"Z":{"ha":847,"x_min":86,"x_max":758,"o":"m 721 931 q 735 901 732 918 q 737 867 739 885 q 728 833 735 850 q 711 803 721 817 l 276 104 l 617 104 l 638 140 q 669 169 653 169 q 689 165 679 169 l 758 136 l 747 1 l 103 1 q 95 14 100 4 q 88 40 90 24 q 91 80 86 57 q 113 129 96 103 l 550 826 l 235 826 l 213 790 q 181 761 197 761 q 161 765 172 761 l 92 794 l 101 931 l 721 931 z "},".":{"ha":483,"x_min":153,"x_max":353,"o":"m 353 24 q 296 14 326 18 q 238 6 271 10 q 171 3 206 3 l 154 3 l 153 194 q 216 200 189 197 q 263 206 243 203 q 300 213 285 210 q 313 214 304 214 q 342 202 331 214 q 351 172 353 190 l 353 24 z "},"a":{"ha":754,"x_min":81,"x_max":671,"o":"m 85 185 q 102 243 88 218 q 139 286 117 268 q 190 316 161 304 q 247 335 218 328 q 303 346 281 342 q 363 357 326 350 q 391 363 374 360 q 426 372 408 365 q 456 388 443 378 q 468 417 468 399 l 468 486 q 467 522 468 506 q 457 550 465 539 q 410 576 442 568 q 347 583 378 583 q 337 583 342 583 q 326 582 332 582 q 295 576 311 579 q 268 571 279 574 l 240 501 q 210 472 226 472 q 189 478 201 472 l 119 506 l 106 603 q 171 635 135 622 q 245 657 207 649 q 322 669 283 665 q 394 672 361 672 l 403 672 q 538 635 482 672 q 607 513 594 599 q 610 474 610 497 q 610 431 610 451 l 610 171 q 628 89 610 133 q 671 15 647 44 q 635 -3 656 6 q 597 -12 614 -12 q 576 -7 582 -12 l 494 54 q 394 -1 449 21 q 281 -22 339 -22 q 241 -19 261 -22 q 199 -11 221 -17 q 137 19 161 -1 q 99 67 113 40 q 83 125 86 94 q 85 185 81 156 m 271 82 q 324 72 292 72 q 361 76 343 72 q 392 83 375 78 q 426 98 410 89 q 453 119 442 107 q 468 146 465 131 l 468 290 q 420 277 444 282 q 371 265 396 272 q 264 228 315 253 q 235 199 246 219 q 224 157 225 179 q 235 114 224 135 q 271 82 246 93 z "},"b":{"ha":900,"x_min":107,"x_max":814,"o":"m 774 546 q 804 448 794 503 q 813 335 814 393 q 799 222 811 278 q 763 118 786 165 q 669 15 726 43 q 538 -12 613 -12 q 521 -12 529 -12 q 504 -11 513 -12 q 431 -1 464 -8 q 375 13 399 6 q 324 32 346 21 l 275 10 q 235 -3 253 -3 q 188 21 213 -3 q 210 107 200 65 q 223 184 217 143 q 226 256 229 225 l 226 793 q 215 830 226 817 q 185 851 203 843 q 146 860 167 858 q 108 863 125 863 l 107 957 q 156 959 136 958 q 193 962 176 960 q 227 967 210 964 q 269 974 244 969 q 288 975 276 975 q 319 964 311 975 l 350 932 q 367 910 365 917 q 368 886 368 903 l 364 633 q 403 651 383 643 q 442 666 421 658 q 483 676 464 674 q 515 681 499 679 q 547 682 531 682 q 683 653 629 682 q 774 546 738 624 m 651 253 q 656 322 656 285 q 653 394 657 358 q 640 465 650 431 q 614 526 631 500 q 562 574 594 558 q 494 590 529 590 q 447 583 469 590 q 407 560 425 575 q 378 524 389 546 q 368 474 368 503 l 369 153 q 397 122 381 136 q 433 101 411 111 q 485 92 454 92 q 601 137 560 92 q 651 253 643 182 z "},"c":{"ha":713,"x_min":93,"x_max":629,"o":"m 597 146 q 613 119 606 135 q 622 89 619 104 q 621 60 625 74 q 603 38 617 46 q 557 16 581 25 q 514 1 533 7 q 468 -10 490 -6 q 372 -19 424 -19 q 238 10 292 -19 q 153 90 185 40 q 107 205 121 140 q 93 339 93 269 q 99 417 93 376 q 119 497 106 458 q 156 569 133 535 q 208 628 178 603 q 249 651 225 642 q 299 665 272 660 q 353 673 326 671 q 403 675 381 675 q 503 664 461 675 q 574 640 546 653 q 629 604 607 624 l 615 508 l 547 481 q 535 476 540 478 q 525 475 529 475 q 496 504 507 475 l 464 579 q 440 583 453 582 q 413 585 428 585 q 338 572 371 585 q 283 519 304 560 q 242 403 253 465 q 239 279 232 342 q 258 205 243 242 q 297 140 274 168 q 354 93 321 111 q 429 75 388 75 q 519 97 478 75 q 597 146 560 118 z "},"d":{"ha":810,"x_min":81,"x_max":726,"o":"m 665 169 q 675 111 665 139 q 696 61 685 83 q 726 14 710 36 q 656 -14 679 -14 q 618 1 640 -14 l 558 49 q 514 19 539 33 q 460 -3 492 8 q 389 -21 429 -15 q 332 -25 360 -25 q 217 0 269 -25 q 131 94 164 25 q 94 198 107 142 q 81 311 82 254 q 90 423 81 368 q 121 522 100 478 q 147 571 133 550 q 177 608 161 592 q 212 635 193 624 q 256 657 231 647 q 313 674 288 668 q 375 679 339 679 q 392 678 383 679 q 410 678 400 678 q 489 667 451 675 q 528 658 508 663 l 525 786 q 513 823 525 810 q 482 844 500 836 q 443 853 464 851 q 406 856 422 856 l 406 950 q 497 956 458 953 q 567 967 536 960 q 577 968 572 968 q 586 968 582 968 q 618 957 610 968 l 647 925 q 664 903 663 910 q 665 879 665 896 l 665 169 m 522 176 l 525 514 q 469 557 506 540 q 393 574 433 574 q 331 561 361 574 q 279 519 301 549 q 250 460 260 494 q 237 389 240 426 q 235 315 233 351 q 240 246 236 278 q 254 188 244 217 q 281 135 264 158 q 323 97 299 113 q 381 78 347 81 q 401 76 388 76 q 488 103 454 76 q 522 176 522 129 z "},"e":{"ha":740,"x_min":78,"x_max":651,"o":"m 646 328 q 625 294 643 299 q 583 289 607 290 l 224 290 q 253 174 228 228 q 338 89 279 119 q 385 72 357 78 q 442 67 413 67 q 535 85 496 67 q 618 136 574 104 q 634 111 626 126 q 644 80 642 96 q 642 51 646 64 q 625 29 639 38 q 579 8 603 17 q 535 -7 556 -1 q 489 -18 511 -14 q 440 -26 465 -24 q 386 -28 414 -28 q 171 45 246 -28 q 82 253 96 118 q 79 351 78 301 q 93 449 81 400 q 196 618 121 561 q 383 675 271 675 q 451 668 418 675 q 513 644 483 661 q 587 589 558 619 q 631 520 615 558 q 649 434 646 482 q 646 328 651 386 m 515 382 q 515 415 515 399 q 514 444 515 429 q 510 469 513 458 q 465 549 499 518 q 379 581 431 581 q 317 565 347 581 q 267 522 286 550 q 236 460 247 490 q 226 382 225 431 l 515 382 z "},"f":{"ha":693,"x_min":67,"x_max":631,"o":"m 67 -4 l 67 44 q 98 64 79 56 q 136 76 117 72 q 158 81 147 79 q 179 86 168 83 l 179 578 l 88 578 l 86 669 l 179 669 l 179 788 q 192 846 179 814 q 227 906 206 878 q 278 953 249 935 q 340 972 307 972 q 411 969 372 972 q 490 958 450 965 q 566 938 529 950 q 631 906 603 925 l 613 819 l 543 792 q 521 786 531 786 q 492 815 503 786 l 464 881 q 399 890 439 890 q 370 888 385 890 q 345 881 356 886 q 328 865 335 875 q 321 836 321 854 l 321 669 l 468 669 q 504 664 492 669 q 517 635 517 658 l 517 578 l 321 578 l 319 86 q 379 72 347 81 q 432 44 411 64 l 432 -4 q 324 -1 365 -1 q 242 0 282 0 q 168 -1 207 0 q 67 -4 129 -1 z "},"g":{"ha":876,"x_min":72,"x_max":792,"o":"m 647 625 q 626 616 640 622 q 601 603 611 610 q 630 536 621 575 q 639 444 639 497 q 620 351 639 394 q 567 276 601 308 q 482 226 532 244 q 369 207 432 207 q 322 208 344 207 q 278 213 299 210 q 265 186 274 197 q 247 166 256 175 q 232 149 239 157 q 224 131 225 140 q 253 88 221 99 q 333 78 285 78 q 391 80 361 78 q 450 85 421 82 q 506 90 479 88 q 556 92 533 92 l 571 92 q 702 26 657 85 q 731 -133 747 -33 q 683 -222 721 -187 q 592 -277 644 -257 q 483 -306 540 -297 q 379 -314 426 -314 q 285 -308 338 -314 q 188 -282 233 -301 q 109 -227 142 -262 q 74 -132 76 -192 q 77 -80 72 -101 q 94 -41 82 -58 q 124 -8 106 -24 q 167 24 142 7 q 132 47 147 32 q 109 81 119 60 q 99 133 99 101 q 131 167 115 154 q 158 192 147 181 q 177 215 169 203 q 185 247 185 228 q 124 319 146 272 q 99 444 101 367 q 113 533 97 490 q 161 609 128 576 q 247 662 194 642 q 369 682 299 682 q 470 675 426 682 q 546 651 514 668 q 656 696 599 678 q 772 714 714 714 l 792 647 l 761 599 q 733 581 747 581 q 704 593 724 581 l 647 625 m 238 -10 q 199 -56 213 -29 q 185 -108 186 -82 q 197 -159 185 -135 q 233 -197 208 -183 q 312 -224 272 -218 q 394 -229 351 -229 q 448 -222 415 -229 q 512 -202 481 -215 q 567 -169 543 -189 q 597 -121 592 -149 q 593 -66 601 -93 q 549 -25 585 -39 q 520 -18 536 -19 q 488 -17 504 -17 q 449 -18 468 -17 q 414 -21 431 -19 q 378 -22 396 -21 q 340 -24 360 -24 q 293 -21 318 -24 q 238 -10 268 -18 m 376 282 q 465 323 435 282 q 496 444 496 364 q 463 565 496 526 q 376 603 429 603 q 274 559 301 603 q 246 444 246 515 q 275 324 246 367 q 376 282 304 282 z "},"h":{"ha":971,"x_min":121,"x_max":903,"o":"m 121 951 q 169 954 150 953 q 206 957 189 956 q 240 961 222 958 q 282 968 257 964 q 294 970 289 969 q 303 971 300 971 q 332 958 326 971 l 361 928 q 379 906 378 913 q 381 881 381 899 l 381 597 q 414 621 397 611 q 501 664 449 644 q 599 682 543 682 q 710 658 658 682 q 786 578 761 635 q 801 522 797 551 q 807 464 804 493 q 809 401 810 432 q 810 339 808 371 l 808 85 q 826 80 818 82 q 843 75 835 78 q 874 63 858 71 q 901 44 890 56 l 903 -4 q 799 -1 836 -1 q 731 0 763 0 q 669 -1 703 0 q 575 -4 635 -1 l 575 43 q 635 75 600 65 q 651 80 643 78 q 668 85 660 82 l 668 339 q 667 382 668 356 q 664 436 667 408 q 656 488 661 464 q 643 526 651 513 q 603 561 628 550 q 551 572 579 572 q 492 562 522 572 q 436 534 461 551 q 396 494 411 517 q 381 447 381 472 l 381 85 q 399 80 390 82 q 415 75 407 78 q 446 63 431 71 q 472 44 461 56 l 474 -4 q 370 -1 407 -1 q 303 0 333 0 q 241 -1 275 0 q 146 -4 207 -1 l 146 43 q 206 75 174 67 q 222 80 214 78 q 239 85 231 82 l 240 789 q 228 825 240 811 q 197 846 215 839 q 158 856 179 853 q 121 858 138 858 l 121 951 z "},"i":{"ha":582,"x_min":119,"x_max":474,"o":"m 383 789 q 339 779 364 783 q 290 772 318 775 q 228 768 261 768 l 211 768 l 211 933 q 270 940 247 936 q 307 946 293 943 q 331 953 322 949 q 342 954 335 954 q 372 942 361 954 q 382 913 383 929 l 383 789 m 474 -4 q 415 -2 440 -3 q 371 -1 390 -1 q 335 0 351 0 q 303 0 319 0 q 241 -1 275 0 q 146 -4 207 -1 l 146 43 q 174 63 158 54 q 206 75 190 71 q 239 85 222 81 l 239 492 q 227 528 239 514 q 197 549 215 542 q 158 558 179 556 q 121 561 138 561 l 119 656 q 169 658 149 657 q 206 661 189 660 q 240 665 222 663 q 281 671 257 667 q 292 673 288 672 q 301 674 297 674 q 321 670 314 674 q 332 663 328 667 l 363 631 q 379 608 378 615 q 381 585 381 601 l 381 85 q 415 75 399 81 q 447 63 431 71 q 474 44 463 56 l 474 -4 z "},"j":{"ha":421,"x_min":-106,"x_max":313,"o":"m 304 789 q 261 779 285 783 q 212 772 240 775 q 150 768 183 768 l 133 768 l 132 933 q 191 940 168 936 q 228 946 214 943 q 251 953 243 949 q 264 954 256 954 q 294 942 283 954 q 304 913 304 929 l 304 789 m 293 631 q 311 608 310 615 q 313 585 313 601 l 311 -69 q 298 -156 311 -115 q 262 -226 285 -196 q 208 -276 239 -257 q 142 -299 178 -294 q 60 -303 94 -303 q -10 -297 18 -303 q -57 -283 -39 -292 q -86 -264 -75 -275 q -106 -242 -97 -253 l -89 -156 l -19 -126 q 1 -122 -7 -122 q 32 -151 21 -122 l 54 -210 q 99 -221 75 -221 q 135 -214 117 -221 q 163 -173 157 -203 q 169 -110 168 -143 l 171 492 q 158 528 171 514 q 128 549 146 542 q 89 558 110 556 q 51 561 68 561 l 51 656 q 100 658 81 657 q 136 661 119 660 q 170 665 153 663 q 213 671 188 667 q 224 673 219 672 q 233 674 229 674 q 264 663 253 674 l 293 631 z "},"k":{"ha":961,"x_min":119,"x_max":876,"o":"m 876 -4 q 799 0 839 0 q 758 -1 779 0 q 711 -3 738 -1 q 695 -4 701 -4 q 685 -4 689 -4 q 665 2 671 -4 q 646 28 658 8 l 447 307 l 381 247 l 379 85 q 414 75 397 81 q 445 63 429 71 q 472 44 461 56 l 474 -4 q 415 -2 440 -3 q 370 -1 390 -1 q 334 0 350 0 q 303 0 318 0 q 240 -1 275 0 q 146 -4 206 -1 l 146 43 q 174 63 158 54 q 206 75 190 71 q 239 85 222 81 l 239 789 q 227 825 239 811 q 197 846 215 839 q 158 856 179 853 q 121 858 138 858 l 119 951 q 169 954 149 953 q 206 957 189 956 q 240 961 222 958 q 282 968 257 964 q 301 971 296 971 q 321 967 314 971 q 332 958 328 964 l 363 928 q 379 906 378 913 q 381 881 381 899 l 381 360 l 621 583 q 595 592 618 583 q 549 624 572 601 l 547 672 q 636 669 608 671 q 682 668 664 668 q 703 668 693 668 q 730 669 714 668 q 768 670 746 669 q 824 672 790 671 l 822 624 q 798 605 811 613 q 774 593 785 597 q 749 583 761 588 l 532 383 l 725 167 q 781 108 754 128 q 829 78 808 88 q 874 67 853 67 l 876 -4 z "},"l":{"ha":608,"x_min":129,"x_max":482,"o":"m 389 85 q 424 75 407 81 q 455 63 439 71 q 482 44 471 56 l 482 -4 q 424 -2 449 -3 q 381 -1 400 -1 q 345 0 361 0 q 314 0 329 0 q 251 -1 286 0 q 156 -4 217 -1 l 156 44 q 184 63 168 56 q 215 75 200 71 q 249 85 232 81 l 249 790 q 236 826 249 813 q 206 847 224 840 q 167 857 188 854 q 129 860 146 860 l 129 954 q 178 957 158 956 q 214 960 197 958 q 248 963 231 961 q 290 969 265 965 q 302 972 297 971 q 311 972 307 972 q 331 969 324 972 q 342 961 338 965 l 371 931 q 388 908 386 915 q 389 883 389 900 l 389 85 z "},"m":{"ha":1338,"x_min":115,"x_max":1244,"o":"m 1244 -4 q 1148 -1 1182 -1 q 1086 0 1114 0 q 1057 0 1072 0 q 1023 -1 1042 0 q 980 -2 1004 -1 q 924 -4 956 -3 l 924 44 q 952 63 936 56 q 982 76 968 71 q 1004 83 996 81 q 1010 85 1013 85 l 1011 339 q 1010 432 1011 389 q 999 507 1008 475 q 967 558 989 539 q 904 578 944 576 q 838 572 867 578 q 789 549 808 565 q 760 506 769 533 q 750 439 750 479 l 750 85 q 785 75 768 81 q 816 63 800 71 q 843 44 832 56 l 843 -4 q 746 -1 781 -1 q 682 0 711 0 q 652 0 668 0 q 617 -1 636 0 q 573 -2 597 -1 q 517 -4 549 -3 l 517 44 q 545 63 529 56 q 576 75 561 71 q 610 85 593 81 l 608 339 q 606 431 607 388 q 596 506 606 474 q 565 558 586 539 q 504 578 544 576 q 438 572 467 578 q 389 549 408 565 q 360 506 369 533 q 350 439 350 479 l 350 85 q 385 75 368 81 q 416 63 400 71 q 443 44 432 56 l 443 -4 q 346 -1 381 -1 q 281 0 311 0 q 251 0 267 0 q 215 -1 235 0 q 172 -2 196 -1 q 115 -4 147 -3 l 115 44 q 144 63 129 56 q 175 75 160 71 q 208 85 192 81 l 210 493 q 197 535 210 521 q 168 556 183 549 q 125 564 149 564 l 125 658 q 183 663 154 660 q 261 672 213 665 q 288 656 282 672 l 313 585 q 356 612 339 601 q 386 630 372 622 q 414 643 400 638 q 450 656 428 649 q 509 671 481 665 q 565 676 538 676 q 657 657 614 676 q 724 593 700 638 q 840 652 781 628 q 967 676 899 676 q 1064 655 1019 676 q 1131 581 1108 633 q 1145 519 1143 551 q 1150 456 1147 488 q 1151 397 1151 426 q 1151 339 1151 368 l 1151 85 q 1186 75 1169 81 q 1217 63 1201 71 q 1243 44 1232 56 l 1244 -4 z "},"n":{"ha":933,"x_min":113,"x_max":854,"o":"m 854 -4 q 756 -1 790 -1 q 692 0 721 0 q 662 0 678 0 q 626 -1 646 0 q 583 -2 607 -1 q 526 -4 558 -3 l 526 44 q 555 63 539 56 q 586 75 571 71 q 619 85 603 81 l 619 339 q 617 431 618 388 q 606 506 615 474 q 575 557 596 538 q 514 578 554 576 q 446 572 476 578 q 393 550 415 565 q 359 508 371 535 q 347 439 347 481 l 346 85 q 381 75 364 81 q 412 63 396 71 q 439 44 428 56 l 440 -4 q 342 -1 376 -1 q 278 0 307 0 q 248 0 264 0 q 213 -1 232 0 q 169 -2 193 -1 q 113 -4 144 -3 l 113 44 q 141 63 125 56 q 172 75 157 71 q 206 85 189 81 l 206 493 q 192 535 206 521 q 164 556 179 549 q 122 564 146 564 l 122 658 q 181 663 151 660 q 258 672 210 665 q 285 656 279 672 l 308 585 q 351 612 335 601 q 382 630 368 622 q 410 643 396 638 q 446 656 424 649 q 508 672 476 665 q 572 678 540 678 q 672 655 625 678 q 739 581 718 632 q 755 519 753 551 q 758 456 757 488 q 760 397 760 426 q 760 339 760 368 l 760 85 q 794 75 778 81 q 826 63 810 71 q 853 44 842 56 l 854 -4 z "},"o":{"ha":839,"x_min":83,"x_max":735,"o":"m 410 681 q 560 656 499 681 q 661 585 622 631 q 717 476 700 540 q 735 333 735 413 q 707 176 735 242 q 633 67 679 110 q 529 5 588 25 q 410 -15 471 -15 q 277 6 338 -15 q 174 69 217 26 q 107 178 131 113 q 83 333 83 244 q 100 463 83 400 q 155 574 117 525 q 256 651 193 622 q 410 681 318 681 m 417 75 q 544 142 510 75 q 578 333 578 208 q 573 433 578 386 q 551 516 568 481 q 503 572 535 551 q 417 592 471 592 q 331 572 365 592 q 276 516 296 551 q 247 433 256 481 q 239 333 239 386 q 244 227 239 275 q 268 145 250 179 q 322 93 286 111 q 417 75 357 75 z "},"p":{"ha":821,"x_min":106,"x_max":789,"o":"m 743 571 q 778 466 767 524 q 788 350 789 408 q 776 237 788 292 q 744 138 765 182 q 689 51 718 82 q 610 1 660 21 q 552 -15 578 -10 q 490 -21 526 -21 q 474 -20 482 -21 q 456 -19 465 -19 q 415 -15 436 -18 q 378 -8 394 -11 q 340 1 358 -4 l 340 -217 q 375 -226 358 -221 q 406 -238 390 -231 q 433 -257 422 -246 l 433 -306 q 331 -302 367 -303 q 264 -301 296 -301 q 201 -303 236 -301 q 106 -306 167 -304 l 107 -257 q 135 -238 119 -246 q 167 -226 151 -231 q 200 -217 183 -221 l 200 490 q 199 497 200 493 q 199 504 199 501 q 183 540 196 528 q 154 558 169 553 q 115 565 136 565 l 115 660 q 174 664 144 661 q 251 674 203 667 q 278 657 272 674 l 294 608 q 412 665 347 647 q 543 683 476 683 q 657 660 604 683 q 743 571 710 636 m 586 139 q 615 199 606 165 q 628 270 625 233 q 631 344 632 307 q 625 413 629 382 q 584 523 617 474 q 485 579 551 572 q 475 580 479 579 q 465 581 471 581 q 377 551 411 581 q 343 474 343 521 l 340 150 q 398 105 360 122 q 476 88 436 88 q 537 99 508 88 q 586 139 565 111 z "},"q":{"ha":846,"x_min":74,"x_max":757,"o":"m 757 -304 q 699 -302 724 -303 q 654 -301 674 -301 q 619 -300 635 -300 q 586 -300 603 -300 q 524 -301 558 -300 q 429 -304 490 -301 l 431 -257 q 459 -238 443 -246 q 490 -225 475 -231 q 524 -215 507 -219 l 524 42 q 486 22 506 32 q 449 8 469 15 q 408 -4 428 0 q 365 -11 389 -8 q 315 -14 340 -14 q 192 19 240 -14 q 113 119 144 53 q 83 218 92 163 q 76 333 74 274 q 92 449 78 392 q 129 554 106 507 q 222 658 165 631 q 353 685 278 685 q 369 685 361 685 q 388 683 378 685 q 460 676 428 682 q 517 664 493 671 q 567 649 544 657 l 606 682 q 647 694 631 694 q 694 671 669 694 q 679 610 686 642 q 669 546 674 582 q 664 471 664 510 l 664 -215 q 699 -225 682 -219 q 730 -238 714 -231 q 757 -257 746 -246 l 757 -304 m 276 146 q 327 101 296 115 q 390 86 358 86 q 439 94 415 86 q 481 117 463 101 q 511 156 500 133 q 522 207 522 178 l 521 519 q 493 550 510 536 q 458 571 479 561 q 406 581 436 581 q 290 535 331 581 q 239 419 250 490 q 234 352 235 389 q 237 278 233 315 q 250 208 240 242 q 276 146 260 174 z "},"r":{"ha":704,"x_min":110,"x_max":632,"o":"m 625 669 l 632 547 l 564 518 q 552 514 557 515 q 543 513 547 513 q 513 542 526 513 l 490 579 q 344 440 344 575 l 343 85 q 378 75 361 81 q 409 63 393 71 q 436 44 425 56 l 438 -4 q 335 -1 371 -1 q 268 0 300 0 q 206 -1 240 0 q 110 -4 171 -3 l 110 44 q 138 63 122 56 q 169 75 154 71 q 203 85 186 81 l 203 493 q 190 535 203 521 q 161 556 176 549 q 119 564 143 564 l 118 658 q 177 663 147 660 q 256 672 207 665 q 282 656 276 672 l 306 586 q 360 618 338 606 q 403 640 382 631 q 450 658 425 650 q 510 674 475 665 q 563 678 535 678 q 588 676 575 678 q 614 672 601 675 q 620 672 615 672 q 625 669 625 671 z "},"s":{"ha":657,"x_min":67,"x_max":579,"o":"m 557 278 q 575 224 571 251 q 578 173 579 197 q 572 131 576 149 q 564 106 568 114 q 519 47 546 71 q 458 10 492 24 q 389 -8 425 -3 q 315 -14 353 -14 q 186 -2 251 -14 q 68 46 121 10 l 82 142 l 151 171 q 163 175 158 174 q 172 176 168 176 q 203 147 189 176 l 231 79 q 238 78 233 78 q 282 74 258 74 q 344 81 313 74 q 399 99 375 88 q 426 122 417 107 q 437 153 435 136 q 434 189 439 171 q 418 221 429 207 q 361 260 394 249 q 296 282 328 271 q 201 322 240 303 q 125 374 163 340 q 75 518 67 424 q 104 597 79 565 q 167 649 129 629 q 250 676 204 668 q 340 685 296 685 q 393 681 364 685 q 451 670 422 678 q 506 651 479 663 q 553 625 533 640 l 539 529 l 469 500 q 458 496 463 497 q 447 494 453 494 q 418 524 429 494 l 390 593 q 383 594 386 593 q 322 601 351 601 q 276 595 299 601 q 236 572 253 589 q 215 537 219 557 q 216 498 211 517 q 235 463 221 479 q 269 436 249 446 q 365 401 322 413 q 444 375 408 389 q 507 340 479 361 q 557 278 535 319 z "},"t":{"ha":599,"x_min":58,"x_max":532,"o":"m 151 665 l 204 861 l 292 861 l 292 665 l 481 665 q 519 660 506 665 q 532 632 532 656 l 531 575 l 292 575 l 292 240 q 294 178 292 207 q 304 128 296 149 q 328 94 313 107 q 372 78 344 81 q 426 91 400 78 q 471 122 451 104 q 486 96 479 111 q 496 65 493 81 q 494 36 499 50 q 476 14 490 22 q 410 -10 443 -6 q 340 -14 378 -14 q 245 1 282 -14 q 188 45 208 17 q 159 116 167 74 q 151 213 151 158 l 151 575 l 58 575 l 58 665 l 151 665 z "},"u":{"ha":892,"x_min":107,"x_max":808,"o":"m 747 178 q 757 119 747 147 q 778 69 767 92 q 808 22 792 44 q 738 -6 761 -6 q 697 11 718 -6 q 671 32 683 21 q 647 50 660 40 q 625 67 635 60 q 511 10 571 36 q 388 -15 451 -15 q 289 8 336 -15 q 221 81 242 31 q 206 143 208 110 q 201 214 203 176 l 200 494 q 192 527 200 514 q 171 548 183 540 q 142 559 158 556 q 108 563 125 563 l 107 657 q 152 660 133 658 q 185 663 171 661 q 213 668 200 665 q 242 674 226 671 q 263 676 256 676 q 292 664 285 676 l 322 633 q 339 611 338 618 q 340 586 340 604 l 342 586 l 342 331 q 343 240 343 282 q 351 165 343 197 q 378 114 358 133 q 439 93 397 94 q 507 99 476 93 q 559 120 538 104 q 593 163 581 136 q 606 231 606 189 l 606 494 q 597 527 606 514 q 576 548 589 540 q 547 559 564 556 q 514 563 531 563 l 513 657 q 558 660 539 658 q 591 663 576 661 q 619 668 606 665 q 647 674 632 671 q 668 676 661 676 q 699 664 689 676 l 728 633 q 746 611 744 618 q 747 586 747 604 l 747 178 z "},"v":{"ha":839,"x_min":56,"x_max":763,"o":"m 56 671 q 113 669 89 669 q 154 667 136 668 q 185 667 172 667 q 213 667 199 667 q 266 667 236 667 q 357 671 296 668 l 356 624 q 309 592 332 601 q 283 583 286 583 l 426 101 l 560 583 q 534 592 557 583 q 488 624 511 601 l 486 671 q 538 669 517 669 q 574 667 558 668 q 599 667 589 667 q 619 667 610 667 q 642 667 631 667 q 668 667 653 667 q 706 669 683 668 q 763 671 729 669 l 761 624 q 737 605 750 613 q 713 592 724 597 q 688 582 700 586 l 486 -1 q 439 -12 463 -7 q 392 -17 415 -17 q 342 -6 364 -17 q 308 33 319 4 l 131 582 q 106 592 118 586 q 82 605 94 597 q 57 624 69 613 l 56 671 z "},"w":{"ha":1210,"x_min":72,"x_max":1136,"o":"m 369 624 q 323 592 346 601 q 297 582 300 583 l 393 101 l 521 617 q 535 643 525 631 q 560 660 544 653 q 603 668 576 668 l 690 668 l 814 101 l 935 582 q 910 592 922 586 q 885 605 899 597 q 860 624 872 613 l 860 671 q 914 669 892 669 q 952 667 936 668 q 979 667 968 667 q 1000 667 990 667 q 1047 667 1019 667 q 1136 671 1074 668 l 1136 622 q 1086 592 1110 600 q 1061 582 1074 586 l 874 -1 q 826 -12 850 -7 q 781 -17 803 -17 q 732 -6 753 -17 q 700 33 711 4 l 592 490 l 453 -1 q 406 -12 429 -7 q 358 -17 382 -17 q 308 -6 331 -17 q 275 33 286 4 l 147 579 l 147 582 q 122 592 135 586 q 74 622 97 601 l 72 671 q 127 669 104 669 q 167 667 150 668 q 196 667 183 667 q 221 667 208 667 q 276 668 244 667 q 371 671 307 669 l 369 624 z "},"x":{"ha":803,"x_min":72,"x_max":779,"o":"m 72 43 q 122 75 97 65 q 146 85 135 81 l 357 340 l 163 588 q 142 594 153 590 q 92 624 121 603 l 92 671 q 147 669 124 669 q 189 667 171 668 q 220 667 207 667 q 246 667 233 667 q 303 667 272 667 q 399 671 335 668 l 399 622 q 351 591 375 600 q 324 582 326 582 l 438 432 l 575 582 q 549 591 572 582 q 500 622 525 600 l 500 671 q 557 669 535 669 q 594 667 579 668 q 620 667 610 667 q 640 667 631 667 q 684 667 658 667 q 768 669 710 668 l 768 622 q 744 603 757 611 q 719 590 731 596 q 694 581 707 585 l 497 357 l 708 79 q 729 72 718 76 q 751 61 739 68 q 778 43 764 54 l 779 -4 q 686 -1 718 -1 q 631 0 654 0 q 603 0 617 0 q 571 -1 589 0 q 528 -2 553 -1 q 471 -4 504 -3 l 472 44 q 497 63 485 56 q 521 75 510 71 q 546 85 533 81 l 415 267 l 269 85 q 294 75 282 81 q 319 63 306 71 q 344 44 333 56 l 344 -4 q 289 -2 311 -3 q 251 -1 267 -1 q 226 0 236 0 q 204 0 215 0 q 185 0 196 0 q 160 -1 175 0 q 124 -2 144 -1 q 72 -4 103 -3 l 72 43 z "},"y":{"ha":803,"x_min":64,"x_max":781,"o":"m 82 -169 l 151 -140 q 163 -136 158 -137 q 172 -135 168 -135 q 203 -164 189 -135 l 224 -224 q 301 -203 268 -224 q 356 -151 333 -183 q 391 -81 378 -119 q 410 -3 404 -42 l 364 101 q 283 288 321 200 q 250 364 267 325 q 218 438 233 403 q 190 503 203 474 q 169 551 178 532 l 157 582 q 131 591 154 582 q 83 622 107 600 l 82 671 q 137 669 114 669 q 177 667 160 668 q 207 667 194 667 q 232 667 219 667 q 288 667 257 667 q 383 671 319 668 l 383 624 q 337 592 360 601 q 310 582 314 583 l 474 172 l 579 582 q 556 592 568 586 q 531 605 544 597 q 506 624 518 613 l 504 671 q 558 669 536 669 q 597 667 581 668 q 624 667 613 667 q 644 667 635 667 q 691 667 664 667 q 781 671 718 668 l 781 622 q 756 603 769 611 q 731 592 742 596 q 706 582 718 586 l 672 469 q 622 307 650 396 q 569 139 594 218 q 513 -47 542 46 q 467 -158 493 -110 q 406 -240 442 -207 q 322 -291 371 -274 q 204 -308 272 -308 q 168 -307 189 -308 q 132 -300 147 -306 q 129 -299 129 -299 l 128 -299 q 88 -280 103 -292 q 64 -256 74 -268 l 82 -169 z "},"z":{"ha":736,"x_min":86,"x_max":647,"o":"m 647 100 l 589 0 l 113 0 q 114 44 108 19 q 128 94 117 65 q 168 160 140 124 l 451 590 l 258 590 l 218 538 q 199 515 207 522 q 183 508 192 508 q 156 521 175 508 l 86 569 l 144 669 l 600 669 q 616 615 621 644 q 594 557 611 585 l 285 79 l 464 81 l 474 81 l 515 133 q 550 161 535 161 q 578 150 560 161 l 647 100 z "},"-":{"ha":526,"x_min":119,"x_max":461,"o":"m 119 263 l 119 375 l 461 375 l 461 263 l 119 263 z "},",":{"ha":492,"x_min":121,"x_max":357,"o":"m 126 -193 q 169 -158 147 -182 q 207 -108 190 -135 q 234 -54 224 -81 q 243 -11 244 -28 l 165 36 q 133 63 144 49 q 132 97 121 78 l 190 217 l 322 200 q 351 31 357 114 q 338 -44 350 -6 q 300 -119 326 -82 q 231 -192 274 -157 q 125 -256 189 -226 l 126 -193 z "},"+":{"ha":843,"x_min":99,"x_max":747,"o":"m 99 472 l 344 472 l 344 721 l 501 721 l 501 472 l 747 472 l 747 325 l 501 325 l 501 75 l 344 75 l 344 325 l 99 325 l 99 472 z "},"*":{"ha":686,"x_min":64,"x_max":592,"o":"m 163 686 q 125 692 146 688 q 89 710 104 697 q 69 742 74 722 q 76 793 64 763 q 106 838 90 825 q 140 850 122 850 q 180 838 160 850 q 215 811 200 826 l 313 717 l 257 856 q 248 893 251 872 q 249 933 244 914 q 271 964 254 951 q 321 976 288 976 q 376 965 358 976 q 401 935 394 953 q 403 896 407 917 q 393 856 400 875 l 340 724 l 439 821 q 474 847 454 836 q 514 858 494 858 q 549 847 532 858 q 579 803 565 835 q 586 751 592 772 q 565 718 581 731 q 529 701 550 706 q 492 694 508 696 l 379 693 l 472 635 q 505 608 489 624 q 526 574 521 592 q 524 535 532 556 q 486 493 515 514 q 438 475 460 475 q 388 502 407 475 q 363 554 369 529 l 332 676 l 301 550 q 276 498 294 525 q 228 471 258 471 q 178 490 203 471 q 140 532 149 511 q 138 571 132 553 q 159 604 144 589 q 190 631 174 619 l 276 685 l 163 686 z "},"/":{"ha":769,"x_min":96,"x_max":660,"o":"m 247 -8 l 96 -7 l 510 972 l 660 972 l 247 -8 z "},"\\":{"ha":772,"x_min":106,"x_max":671,"o":"m 671 -8 l 525 -8 l 106 971 l 250 971 l 671 -8 z "},":":{"ha":435,"x_min":119,"x_max":318,"o":"m 228 190 q 265 197 247 192 q 303 191 288 197 q 318 156 318 185 l 318 7 q 290 1 304 4 q 261 -4 276 -1 q 203 -10 236 -7 q 136 -14 171 -14 l 119 -14 l 119 178 q 228 190 193 185 m 228 679 q 265 686 247 681 q 278 688 268 688 q 308 675 297 688 q 318 646 318 663 l 318 497 q 231 481 276 486 q 142 476 185 476 l 119 476 l 119 667 q 228 679 193 674 z "},";":{"ha":439,"x_min":107,"x_max":344,"o":"m 113 -194 q 155 -160 133 -183 q 194 -108 176 -136 q 222 -53 211 -81 q 231 -10 232 -26 l 151 36 q 119 63 132 49 q 118 96 107 78 l 176 215 l 310 200 q 339 31 344 114 q 324 -44 336 -6 q 287 -119 313 -82 q 218 -192 261 -157 q 111 -256 175 -226 l 113 -194 m 314 497 q 260 488 289 492 q 203 480 235 483 q 138 476 172 476 l 115 476 l 115 667 q 224 679 189 674 q 261 686 246 682 q 274 688 265 688 q 303 675 293 688 q 314 646 314 663 l 314 497 z "},"<":{"ha":1181,"x_min":190,"x_max":989,"o":"m 190 372 q 191 401 190 385 q 198 433 192 417 q 217 463 204 449 q 254 486 231 478 q 286 499 254 486 q 370 533 318 513 q 488 581 422 554 q 622 635 554 607 q 794 704 703 667 q 989 782 885 742 l 989 690 l 311 414 l 989 139 l 989 46 l 190 372 z "},"=":{"ha":851,"x_min":113,"x_max":738,"o":"m 113 324 l 738 324 l 738 174 l 113 174 l 113 324 m 113 622 l 738 622 l 738 474 l 113 474 l 113 622 z "},">":{"ha":1181,"x_min":190,"x_max":989,"o":"m 190 46 l 190 139 l 868 414 l 190 690 l 190 782 q 557 635 396 700 q 692 581 626 607 q 810 533 758 554 q 893 499 861 513 q 925 486 925 486 q 962 463 949 478 q 981 433 975 449 q 988 401 988 417 q 989 372 989 385 l 190 46 z "},"!":{"ha":624,"x_min":201,"x_max":426,"o":"m 356 279 l 290 279 l 201 921 l 347 924 q 397 913 381 924 q 420 884 414 901 q 425 847 426 867 q 421 810 424 826 l 356 279 m 425 21 q 368 11 399 15 q 310 3 343 7 q 243 0 278 0 l 226 0 l 225 192 q 288 197 261 194 q 335 203 315 200 q 372 210 357 207 q 385 211 376 211 q 414 199 403 211 q 424 169 425 188 l 425 21 z "},"?":{"ha":800,"x_min":125,"x_max":581,"o":"m 390 278 l 293 274 q 283 354 286 318 q 281 420 279 390 q 292 476 283 450 q 319 529 301 503 q 356 582 339 557 q 385 632 374 607 q 400 683 396 657 q 397 740 404 710 q 364 784 390 771 q 307 797 338 797 q 292 797 300 797 q 278 794 285 796 q 269 792 276 794 q 261 789 263 789 l 242 731 q 210 690 228 690 q 188 697 201 690 l 138 724 l 125 821 q 230 884 169 863 q 351 906 290 906 q 457 883 413 906 q 545 807 510 857 q 574 694 581 757 q 553 610 568 643 q 517 554 538 578 q 474 509 496 531 q 433 459 451 488 q 402 388 414 431 q 390 278 390 344 m 443 24 q 386 13 417 18 q 327 5 360 8 q 260 1 294 1 l 244 1 l 243 193 q 353 206 314 199 q 390 213 375 208 q 401 214 394 214 q 432 201 421 214 q 443 172 443 189 l 443 24 z "},"'":{"ha":374,"x_min":94,"x_max":254,"o":"m 193 525 l 163 525 l 94 928 l 175 931 q 225 919 208 931 q 248 891 242 908 q 253 853 254 874 q 249 817 251 833 l 193 525 z "},"\"":{"ha":618,"x_min":106,"x_max":525,"o":"m 365 921 l 446 924 q 496 913 479 924 q 519 884 513 901 q 524 847 525 867 q 519 810 522 826 l 464 518 l 433 518 l 365 921 m 106 921 l 186 924 q 236 913 219 924 q 259 884 253 901 q 264 847 265 867 q 260 810 263 826 l 204 518 l 174 518 l 106 921 z "},"#":{"ha":1138,"x_min":153,"x_max":1014,"o":"m 794 585 l 729 386 l 953 386 l 953 307 l 704 307 l 594 -10 l 508 -10 l 617 307 l 435 307 l 324 -10 l 239 -8 l 350 307 l 153 307 l 153 386 l 372 386 l 440 585 l 215 585 l 215 665 l 464 665 l 568 961 l 656 961 l 549 665 l 732 665 l 835 961 l 925 961 l 819 665 l 1014 665 l 1014 585 l 794 585 m 526 585 l 458 386 l 640 386 l 708 585 l 526 585 z "},"@":{"ha":1303,"x_min":99,"x_max":1210,"o":"m 293 801 q 497 924 390 889 q 735 960 604 960 q 925 930 838 958 q 1076 846 1013 901 q 1174 708 1139 790 q 1210 518 1210 626 q 1177 329 1210 410 q 1093 193 1144 249 q 1063 163 1081 179 q 1023 131 1044 146 q 980 104 1001 115 q 939 92 958 93 q 919 94 928 92 q 915 97 918 94 l 835 150 q 736 101 786 118 q 631 85 686 85 q 591 88 611 85 q 550 94 571 90 q 489 121 513 103 q 453 163 465 139 q 437 213 440 186 q 438 267 433 240 q 471 339 443 313 q 537 380 499 365 q 620 401 575 394 q 704 415 665 408 q 731 421 714 418 q 766 430 749 424 q 796 446 783 436 q 808 472 808 456 l 808 533 q 788 606 808 586 q 711 625 767 625 q 658 620 685 625 q 611 608 632 615 l 583 557 q 554 532 569 532 q 532 536 544 532 l 464 561 l 450 636 q 506 663 475 653 q 569 681 536 674 q 633 692 601 689 q 694 697 665 696 q 774 694 738 697 q 840 677 811 690 q 889 635 869 664 q 917 557 908 607 q 920 524 919 543 q 921 485 921 504 q 921 463 921 474 q 919 442 921 453 l 919 254 q 923 226 919 239 q 932 200 926 213 q 954 185 940 185 q 981 194 967 185 q 1009 215 996 203 q 1034 241 1022 228 q 1051 263 1046 254 q 1100 385 1083 321 q 1117 517 1117 450 q 1083 681 1117 617 q 996 792 1050 746 q 944 828 974 811 q 882 857 914 844 q 817 876 850 869 q 753 883 783 883 q 553 843 649 883 q 383 728 458 803 q 268 560 301 649 q 235 357 235 472 q 265 167 235 249 q 358 18 296 85 q 511 -88 421 -50 q 697 -126 601 -126 q 811 -117 758 -126 q 910 -92 864 -107 q 994 -58 956 -76 q 1064 -24 1032 -40 q 1024 -131 1104 -96 q 849 -192 933 -171 q 664 -212 764 -212 q 453 -175 551 -212 q 272 -67 356 -137 q 149 104 189 6 q 104 332 110 203 q 151 605 99 488 q 293 801 204 722 m 599 168 q 647 161 622 161 q 697 166 671 161 q 747 180 724 171 q 787 202 769 189 q 808 232 804 215 l 808 360 q 760 350 785 353 q 713 342 736 347 q 651 328 685 336 q 592 308 618 319 q 565 281 575 300 q 553 240 554 261 q 563 198 551 218 q 599 168 574 178 z "},"$":{"ha":740,"x_min":64,"x_max":660,"o":"m 64 75 l 76 171 q 107 188 96 182 q 126 193 118 193 q 146 183 136 193 q 175 151 156 174 l 215 103 q 244 98 229 100 q 274 94 260 96 q 299 91 288 92 q 317 90 311 90 l 315 396 q 220 433 272 411 q 138 485 168 456 q 79 665 71 546 q 104 753 83 717 q 157 813 125 789 q 230 851 189 838 q 315 871 271 864 l 315 951 l 390 951 l 390 872 q 517 858 461 872 q 629 800 572 844 l 617 713 q 583 692 594 700 q 564 683 572 683 q 546 693 554 683 q 519 726 538 703 l 492 761 q 481 767 486 764 q 468 774 475 771 q 440 781 457 778 q 403 785 424 785 l 390 785 l 390 507 q 526 447 465 483 q 626 360 588 411 q 651 311 643 338 q 659 257 658 285 q 654 202 660 229 q 639 150 649 175 q 597 89 625 115 q 535 44 569 63 q 463 14 501 25 q 390 -1 425 3 l 390 -74 l 315 -74 l 315 -1 q 183 19 249 3 q 64 75 118 35 m 390 93 q 443 105 421 97 q 492 131 465 113 q 517 164 508 143 q 528 208 526 185 q 524 253 529 231 q 507 293 518 276 q 454 338 486 325 q 390 368 422 351 l 390 93 m 267 554 q 282 548 274 551 q 297 542 290 544 q 315 535 308 536 l 315 778 q 274 767 296 775 q 238 744 253 760 q 212 697 219 725 q 207 642 204 669 q 225 591 210 615 q 267 554 240 567 z "},"€":{"ha":888,"x_min":57,"x_max":806,"o":"m 131 611 q 180 759 149 697 q 258 860 211 821 q 371 917 306 899 q 521 935 436 935 q 596 930 557 935 q 673 914 635 925 q 746 885 711 903 q 806 839 781 867 q 793 809 801 825 q 774 780 785 793 q 750 758 764 767 q 719 750 736 750 q 676 765 700 750 q 592 810 636 793 q 501 828 549 828 q 411 811 449 828 q 349 765 374 794 q 309 697 324 736 q 286 611 294 657 l 635 611 l 635 499 l 276 499 q 276 440 276 469 q 279 381 276 410 l 635 381 l 635 268 l 296 268 q 363 141 315 188 q 499 94 411 94 q 639 127 569 94 q 761 207 708 160 q 784 172 774 193 q 797 128 794 150 q 794 88 800 107 q 769 58 789 69 q 624 -2 701 18 q 467 -22 546 -22 q 247 58 332 -22 q 133 268 161 138 l 57 268 l 57 381 l 121 381 q 117 440 118 410 q 118 499 117 469 l 57 499 l 57 611 l 131 611 z "},"%":{"ha":1154,"x_min":83,"x_max":1061,"o":"m 396 -17 l 258 -17 l 761 869 l 899 869 l 396 -17 m 297 854 q 399 840 358 854 q 463 799 439 826 q 497 729 488 771 q 507 631 507 688 q 492 524 507 567 q 449 454 476 481 q 382 417 421 428 q 297 406 343 406 q 203 415 243 406 q 138 448 164 424 q 99 516 113 472 q 85 631 86 560 q 93 719 83 679 q 127 790 103 760 q 193 838 151 821 q 297 854 235 854 m 301 497 q 374 533 356 497 q 390 631 392 568 q 388 683 390 658 q 374 726 385 708 q 344 755 364 744 q 290 765 324 765 q 219 731 239 765 q 200 631 200 697 q 203 570 200 596 q 218 528 207 544 q 249 505 229 513 q 301 497 268 497 m 853 447 q 954 433 914 447 q 1018 392 994 419 q 1051 322 1042 364 q 1061 222 1061 279 q 1046 117 1061 160 q 1003 47 1031 74 q 938 9 976 21 q 853 -3 899 -3 q 759 6 799 -3 q 693 40 719 15 q 653 109 667 65 q 639 222 640 153 q 649 312 639 271 q 683 383 658 353 q 749 431 707 414 q 853 447 790 447 m 857 90 q 928 126 910 90 q 946 222 947 161 q 942 274 946 250 q 929 317 939 299 q 900 347 919 336 q 847 358 881 358 q 775 324 794 358 q 756 222 756 290 q 759 163 756 188 q 774 122 763 138 q 804 98 785 106 q 857 90 824 90 z "},"&":{"ha":1018,"x_min":68,"x_max":957,"o":"m 639 89 q 514 -6 585 26 q 371 -37 443 -37 q 263 -17 315 -37 q 168 43 210 3 q 100 144 126 83 q 69 286 74 204 q 81 357 68 326 q 117 413 93 388 q 176 458 142 438 q 249 500 210 479 q 179 578 206 542 q 141 651 153 615 q 131 724 129 686 q 147 803 133 761 q 186 871 160 843 q 247 917 213 899 q 322 944 282 936 q 400 953 361 953 q 503 938 454 953 q 582 894 551 922 q 653 769 646 833 q 624 650 660 704 q 533 559 588 597 q 422 494 478 521 l 667 238 q 720 304 700 274 q 751 356 740 335 q 765 390 761 378 q 767 401 768 401 q 755 404 765 401 q 730 412 744 407 q 699 424 715 417 q 671 443 683 432 l 671 492 q 723 490 701 490 q 760 488 744 489 q 788 488 776 488 q 810 488 800 488 q 833 488 821 488 q 861 488 844 488 q 901 490 878 489 q 957 492 924 490 l 956 443 q 928 424 944 432 q 896 413 911 417 q 860 403 878 407 q 826 318 843 354 q 791 256 808 282 q 757 210 774 229 q 725 174 740 190 l 756 143 q 832 80 792 107 q 925 53 872 53 l 928 -4 q 890 -1 908 -1 q 850 -1 871 -1 q 814 -1 833 -1 q 769 -3 794 -1 q 757 -4 763 -4 q 746 -4 751 -4 q 718 6 728 -4 l 639 89 m 319 438 q 249 380 279 410 q 208 315 218 350 q 213 235 197 279 q 278 136 228 192 q 347 79 314 96 q 413 63 381 63 q 501 91 458 63 q 583 156 543 119 l 319 438 m 296 815 q 257 751 258 786 q 273 683 256 717 q 317 617 290 649 q 363 564 343 586 q 401 588 383 576 q 435 610 418 599 q 463 629 451 621 q 502 670 485 647 q 527 719 519 693 q 528 772 535 744 q 493 825 521 799 q 408 860 457 860 q 351 848 381 860 q 296 815 322 836 z "},"(":{"ha":618,"x_min":143,"x_max":485,"o":"m 356 28 q 394 -37 372 -8 q 438 -87 417 -67 q 485 -131 460 -111 q 462 -162 478 -149 q 422 -175 446 -175 q 375 -161 401 -175 q 305 -112 340 -140 q 239 -37 269 -83 q 186 79 208 10 q 153 250 164 149 q 151 467 143 354 q 188 678 160 579 q 262 852 215 778 q 376 954 308 926 q 404 960 392 960 q 434 952 422 960 q 453 935 446 944 q 465 910 461 924 q 404 839 431 882 q 360 747 378 796 q 331 644 343 697 q 313 544 319 592 q 304 456 307 496 q 301 393 301 417 q 301 304 300 351 q 308 209 303 257 q 326 115 314 161 q 356 28 338 68 z "},")":{"ha":614,"x_min":126,"x_max":468,"o":"m 256 28 q 286 115 275 68 q 303 209 297 161 q 310 304 308 257 q 310 393 311 351 q 307 456 310 417 q 298 544 304 496 q 280 644 292 592 q 251 747 268 697 q 207 839 233 796 q 146 910 181 882 q 158 935 150 924 q 177 952 165 944 q 207 960 189 960 q 235 954 219 960 q 349 852 303 926 q 424 678 396 778 q 460 467 451 579 q 458 250 468 354 q 426 79 449 149 q 372 -37 403 10 q 307 -112 342 -83 q 236 -161 272 -140 q 189 -175 210 -175 q 149 -162 165 -175 q 126 -131 133 -149 q 175 -87 151 -111 q 217 -37 194 -67 q 256 28 239 -8 z "},"{":{"ha":656,"x_min":72,"x_max":542,"o":"m 124 440 q 197 446 168 440 q 244 467 226 451 q 268 513 261 483 q 275 592 275 543 l 275 765 q 304 921 275 879 q 349 952 319 940 q 410 969 378 964 q 476 976 443 975 q 533 978 510 978 q 479 908 539 908 q 411 881 419 908 q 399 769 401 854 l 396 599 q 265 406 393 410 q 397 211 394 401 l 400 42 q 413 -69 403 -43 q 481 -97 421 -97 q 535 -168 542 -97 q 478 -167 511 -168 q 412 -159 444 -165 q 350 -141 379 -153 q 306 -110 321 -129 q 276 44 276 -71 l 276 218 q 249 342 276 310 q 220 360 235 353 q 186 368 206 367 q 131 372 154 371 q 75 372 107 372 q 117 440 72 440 l 124 440 z "},"|":{"ha":674,"x_min":307,"x_max":414,"o":"m 307 -328 l 307 1061 q 381 1044 349 1061 q 414 978 414 1026 l 414 -328 l 307 -328 z "},"}":{"ha":700,"x_min":119,"x_max":588,"o":"m 536 440 l 543 440 q 583 372 588 440 q 529 372 553 372 q 472 368 506 371 q 440 360 454 367 q 411 342 425 353 q 382 218 382 308 l 382 44 q 378 -34 382 1 q 361 -95 375 -69 q 319 -137 347 -121 q 243 -158 292 -153 q 173 -166 203 -164 q 124 -168 143 -168 q 178 -97 119 -97 q 247 -69 239 -97 q 260 42 257 -43 l 263 211 q 394 406 265 401 q 264 599 267 410 l 261 769 q 249 881 258 854 q 179 908 240 908 q 125 978 121 908 q 182 976 149 978 q 249 969 215 975 q 311 952 282 964 q 354 921 340 940 q 383 765 383 882 l 383 592 q 389 523 383 551 q 409 476 394 494 q 450 448 424 457 q 517 439 476 439 q 526 440 522 439 q 536 440 531 440 z "},"[":{"ha":550,"x_min":135,"x_max":415,"o":"m 135 -171 l 135 913 q 149 959 135 940 q 213 978 164 978 l 411 978 l 411 894 l 264 894 l 264 -90 l 411 -90 q 410 -131 415 -112 q 390 -158 404 -146 q 343 -171 375 -171 l 135 -171 z "},"]":{"ha":497,"x_min":117,"x_max":397,"o":"m 397 978 l 397 -104 q 383 -151 397 -132 q 319 -169 368 -169 l 121 -169 l 121 -86 l 268 -86 l 268 897 l 121 897 q 122 938 117 919 q 142 965 128 953 q 189 978 157 978 l 397 978 z "},"‘":{"ha":569,"x_min":115,"x_max":428,"o":"m 428 872 q 374 839 403 863 q 321 788 344 815 q 283 735 297 761 q 269 692 268 708 l 339 646 q 381 617 365 631 q 383 583 397 603 l 325 471 l 161 494 q 122 661 115 579 q 140 733 125 696 q 189 806 156 769 q 277 877 222 843 q 414 939 332 911 l 428 872 z "},"’":{"ha":524,"x_min":121,"x_max":432,"o":"m 121 538 q 174 571 146 547 q 226 622 203 594 q 265 675 250 649 q 278 718 281 701 l 208 764 q 167 793 183 779 q 164 826 151 807 l 222 939 l 386 915 q 425 750 432 831 q 407 678 422 715 q 358 604 392 640 q 271 534 325 568 q 133 472 217 500 l 121 538 z "},"“":{"ha":956,"x_min":115,"x_max":840,"o":"m 428 872 q 374 839 403 863 q 321 788 344 815 q 283 735 297 761 q 269 692 268 708 l 339 646 q 381 617 365 631 q 383 583 397 603 l 325 471 l 161 494 q 122 661 115 579 q 140 733 125 696 q 189 806 156 769 q 277 877 222 843 q 414 939 332 911 l 428 872 m 840 875 q 786 842 815 865 q 733 791 757 818 q 695 737 710 764 q 682 693 681 710 l 751 649 q 794 619 778 633 q 796 586 810 606 l 738 474 l 574 497 q 535 663 528 582 q 553 735 538 697 q 601 809 568 772 q 690 879 635 846 q 826 940 744 913 l 840 875 z "},"”":{"ha":939,"x_min":121,"x_max":844,"o":"m 121 538 q 174 571 146 547 q 226 622 203 594 q 265 675 250 649 q 278 718 281 701 l 208 764 q 167 793 183 779 q 164 826 151 807 l 222 939 l 386 915 q 425 750 432 831 q 407 678 422 715 q 358 604 392 640 q 271 534 325 568 q 133 472 217 500 l 121 538 m 532 539 q 586 573 557 550 q 639 623 615 596 q 678 677 663 650 q 690 721 693 704 l 621 767 q 580 796 596 782 q 576 829 564 810 l 635 940 l 799 918 q 838 753 844 833 q 819 681 835 718 q 771 606 804 643 q 683 535 738 569 q 546 474 629 501 l 532 539 z "},"_":{"ha":861,"x_min":14,"x_max":849,"o":"m 14 -474 l 14 -325 l 849 -325 l 849 -474 l 14 -474 z "},"−":{"ha":844,"x_min":99,"x_max":746,"o":"m 99 542 l 746 542 l 746 440 l 99 440 l 99 542 z "},"ሀ":{"ha":868,"x_min":111,"x_max":726,"o":"m 111 271 l 111 992 l 236 992 l 236 271 q 256 185 236 217 q 306 138 275 154 q 373 118 336 122 q 444 114 410 114 l 601 114 l 601 992 l 726 992 l 726 0 l 444 0 q 380 2 415 0 q 307 13 344 4 q 235 38 269 21 q 172 85 200 54 q 128 160 144 115 q 111 271 111 206 z "},"ሁ":{"ha":1136,"x_min":111,"x_max":1035,"o":"m 111 271 l 111 992 l 236 992 l 236 271 q 255 185 236 217 q 303 138 274 154 q 370 118 333 122 q 442 114 407 114 l 599 114 l 599 992 l 724 992 l 724 582 l 1006 582 l 1035 400 l 949 400 l 864 496 l 724 496 l 724 0 l 442 0 q 342 6 399 0 q 233 38 285 11 q 147 119 182 64 q 111 271 111 174 z "},"ሂ":{"ha":983,"x_min":83,"x_max":875,"o":"m 208 989 l 208 697 q 228 612 208 643 q 277 565 247 581 q 344 544 307 549 q 417 540 382 540 l 482 540 l 544 989 l 668 989 l 542 86 l 703 86 l 729 114 l 857 114 q 849 93 853 103 q 849 71 846 83 l 875 -96 l 788 -96 l 703 0 l 407 0 l 467 426 l 417 426 q 352 428 388 426 q 279 439 317 431 q 207 464 242 447 q 144 511 172 481 q 100 587 117 542 q 83 697 83 632 l 83 989 l 208 989 z "},"ሃ":{"ha":693,"x_min":81,"x_max":664,"o":"m 81 989 l 206 989 l 206 697 q 224 612 206 643 q 274 565 243 581 q 341 544 304 549 q 413 540 378 540 l 479 540 l 540 989 l 664 989 l 526 0 l 403 0 l 465 426 l 413 426 q 347 428 383 426 q 274 439 311 431 q 203 464 238 447 q 141 511 168 481 q 97 587 114 542 q 81 697 81 632 l 81 989 z "},"ሄ":{"ha":1006,"x_min":111,"x_max":901,"o":"m 236 989 l 236 697 q 256 612 236 643 q 305 565 275 581 q 372 544 335 549 q 443 540 408 540 l 510 540 l 571 989 l 694 989 l 599 326 l 672 326 q 762 321 721 326 q 833 299 803 315 q 882 255 864 283 q 901 182 900 226 l 901 0 l 432 0 l 494 426 l 443 426 q 378 428 414 426 q 305 439 342 431 q 233 464 268 447 q 172 511 199 481 q 128 587 144 542 q 111 697 111 632 l 111 989 l 236 989 m 568 86 l 776 86 l 776 169 q 768 210 776 196 q 746 231 760 224 q 714 239 732 238 q 675 240 696 240 l 590 240 l 568 86 z "},"ህ":{"ha":994,"x_min":118,"x_max":931,"o":"m 243 992 l 246 724 l 442 724 l 442 271 q 461 185 442 217 q 510 138 481 154 q 578 118 540 122 q 650 114 615 114 l 806 114 l 806 992 l 931 992 l 931 0 l 650 0 q 585 2 621 0 q 512 13 549 4 q 440 38 475 21 q 377 85 404 56 q 333 160 350 115 q 317 271 317 206 l 317 638 l 121 638 l 118 992 l 243 992 z "},"ሆ":{"ha":1111,"x_min":111,"x_max":1042,"o":"m 111 992 l 236 992 l 236 271 q 256 185 236 217 q 305 138 275 154 q 372 118 335 122 q 443 114 408 114 l 599 114 l 599 992 l 821 992 q 909 985 869 992 q 978 960 949 978 q 1024 913 1007 942 q 1042 839 1040 883 l 1042 661 l 724 661 l 724 0 l 443 0 q 378 2 414 0 q 306 13 343 4 q 234 38 269 21 q 172 85 199 56 q 128 160 144 115 q 111 271 111 206 l 111 992 m 724 906 l 724 747 l 917 747 l 915 835 q 908 874 915 860 q 890 894 901 888 q 861 903 878 901 q 824 906 844 906 l 724 906 z "},"ሇ":{"ha":1244,"x_min":99,"x_max":1351,"o":"m 129 550 l 421 550 l 421 992 l 546 992 l 546 271 q 565 185 546 217 q 615 138 585 154 q 681 118 644 122 q 753 114 718 114 l 910 114 l 910 992 l 1121 992 q 1210 986 1168 992 q 1282 965 1251 981 q 1331 921 1313 949 q 1351 849 1350 893 l 1351 661 l 1035 661 l 1035 0 l 753 0 q 688 2 724 0 q 616 13 653 4 q 544 38 579 21 q 481 85 508 56 q 438 160 454 115 q 421 271 421 206 l 421 464 l 271 464 l 186 368 l 99 368 l 129 550 m 1226 747 l 1226 835 q 1218 874 1226 860 q 1196 895 1210 888 q 1163 904 1182 903 q 1124 906 1144 906 l 1035 906 l 1035 747 l 1226 747 z "},"ለ":{"ha":888,"x_min":90,"x_max":783,"o":"m 149 475 q 185 585 157 539 q 256 665 214 632 q 351 717 297 697 q 463 747 404 738 l 399 989 l 522 989 l 783 0 l 657 0 l 482 664 q 364 618 406 646 q 302 561 322 590 q 278 505 282 532 q 271 461 274 478 l 214 0 l 90 0 l 149 475 z "},"ሉ":{"ha":1042,"x_min":72,"x_max":968,"o":"m 131 475 q 167 585 139 539 q 237 665 194 632 q 332 717 279 697 q 443 747 385 738 l 379 989 l 504 989 l 633 503 l 940 503 l 968 322 l 883 322 l 799 418 l 656 418 l 765 0 l 639 0 l 464 664 q 347 618 389 646 q 285 561 306 590 q 259 505 264 532 q 251 461 254 478 l 194 0 l 72 0 l 131 475 z "},"ሊ":{"ha":1193,"x_min":101,"x_max":1111,"o":"m 160 475 q 194 585 167 539 q 265 665 222 632 q 360 718 307 699 q 471 747 413 738 l 407 989 l 533 989 l 771 85 l 939 85 l 965 114 l 1093 114 q 1085 92 1088 103 q 1085 69 1082 82 l 1111 -96 l 1024 -96 l 939 0 l 668 0 l 493 664 q 376 618 418 646 q 315 561 335 590 q 290 505 294 532 q 282 461 285 478 l 225 0 l 101 0 l 160 475 z "},"ላ":{"ha":840,"x_min":85,"x_max":746,"o":"m 746 0 l 619 0 l 444 664 q 326 618 368 646 q 263 561 283 590 q 239 505 243 532 q 232 461 235 478 l 210 269 l 85 269 l 111 475 q 147 585 119 539 q 217 665 175 632 q 311 718 258 699 q 422 747 364 738 l 358 989 l 485 989 l 746 0 z "},"ሌ":{"ha":1047,"x_min":76,"x_max":1035,"o":"m 76 0 l 135 475 q 169 585 142 539 q 240 665 197 632 q 335 718 282 699 q 446 747 388 738 l 383 989 l 508 989 l 683 326 l 806 326 q 895 321 854 326 q 967 299 936 315 q 1015 255 997 283 q 1035 182 1033 226 l 1035 0 l 643 0 l 468 664 q 349 618 390 646 q 287 561 307 590 q 263 505 267 532 q 256 461 258 478 l 200 0 l 76 0 m 747 86 l 910 86 l 910 169 q 901 209 910 194 q 879 231 893 224 q 847 239 865 238 q 808 240 828 240 l 706 240 l 747 86 z "},"ል":{"ha":911,"x_min":85,"x_max":833,"o":"m 85 0 l 143 475 q 181 586 151 539 q 253 666 210 633 q 351 719 297 699 q 464 749 406 739 l 388 989 l 517 989 l 833 0 l 704 0 l 492 667 q 369 620 414 649 q 302 562 325 592 q 273 505 279 532 q 264 461 267 478 l 249 326 l 279 326 q 370 321 328 326 q 444 299 413 315 q 496 255 476 283 q 518 182 515 226 l 518 0 l 85 0 m 393 86 l 393 169 q 383 209 393 194 q 356 231 372 224 q 319 239 339 238 q 279 240 299 240 l 238 240 l 219 86 l 393 86 z "},"ሎ":{"ha":1238,"x_min":79,"x_max":1143,"o":"m 79 0 l 138 475 q 174 585 146 539 q 244 665 201 632 q 339 717 286 697 q 450 747 392 738 l 385 989 l 511 989 l 606 636 l 906 636 q 997 631 954 636 q 1071 610 1039 625 q 1122 566 1103 594 q 1143 493 1142 538 l 1143 311 l 775 311 l 775 550 l 628 550 l 772 0 l 646 0 l 472 664 q 352 618 394 646 q 290 561 310 590 q 265 505 269 532 q 258 461 261 478 l 203 0 l 79 0 m 1018 397 l 1018 479 q 1010 520 1018 506 q 988 541 1001 535 q 956 549 974 547 q 917 550 938 550 l 886 550 l 886 397 l 1018 397 z "},"ሏ":{"ha":1051,"x_min":50,"x_max":979,"o":"m 75 475 q 111 585 83 539 q 181 665 139 632 q 275 717 222 697 q 386 747 328 738 l 322 989 l 449 989 l 686 86 l 949 86 l 979 -96 l 892 -96 l 807 0 l 453 0 l 368 -96 l 281 -96 l 311 86 l 560 86 l 407 667 q 289 620 331 649 q 228 562 247 592 q 204 505 208 532 q 197 461 200 478 l 174 269 l 50 269 l 75 475 z "},"ሐ":{"ha":989,"x_min":71,"x_max":969,"o":"m 71 413 q 106 547 71 499 q 190 620 140 596 q 297 650 240 644 q 397 656 354 656 q 457 651 428 656 l 457 989 l 582 989 l 582 651 q 642 656 610 656 l 643 656 q 744 650 688 656 q 850 620 800 644 q 935 547 900 596 q 969 413 969 499 l 969 0 l 844 0 l 844 413 q 827 481 844 456 q 781 521 810 507 q 717 539 753 535 q 643 543 681 543 l 642 543 q 612 542 626 543 q 582 536 597 542 l 582 0 l 457 0 l 457 536 q 427 542 442 542 q 397 543 413 543 q 323 539 360 543 q 258 521 286 535 q 213 481 231 507 q 196 413 196 456 l 196 0 l 71 0 l 71 413 z "},"ሑ":{"ha":1408,"x_min":101,"x_max":1313,"o":"m 101 413 q 136 547 101 499 q 221 620 171 596 q 328 650 271 644 q 428 656 385 656 q 488 651 461 656 l 488 989 l 613 989 l 613 651 q 675 656 640 656 q 774 650 718 656 q 881 620 831 644 q 965 547 931 596 q 1000 413 1000 499 l 1000 311 l 1285 311 l 1313 129 l 1226 129 l 1143 225 l 1000 225 l 1000 0 l 875 0 l 875 413 q 858 481 875 456 q 812 521 840 507 q 748 539 783 535 q 675 543 713 543 q 644 542 660 543 q 613 536 628 542 l 613 0 l 488 0 l 488 536 q 458 542 472 542 q 428 543 443 543 q 354 539 390 543 q 290 521 318 535 q 244 481 261 507 q 226 413 226 456 l 226 0 l 101 0 l 101 413 z "},"ሒ":{"ha":1378,"x_min":78,"x_max":1293,"o":"m 78 413 q 113 547 78 499 q 197 620 147 596 q 304 650 247 644 q 404 656 361 656 q 464 651 435 656 l 464 989 l 589 989 l 590 651 q 649 656 618 656 q 714 653 678 656 q 786 644 750 651 q 857 620 822 636 q 918 577 892 604 q 960 510 944 550 q 976 413 976 469 l 976 86 l 1121 86 l 1144 114 l 1275 114 q 1265 93 1268 100 q 1265 71 1263 86 l 1293 -96 l 1206 -96 l 1121 0 l 851 0 l 851 413 q 834 481 851 456 q 788 521 817 507 q 723 539 760 535 q 649 543 686 543 q 619 542 633 543 q 589 536 604 542 l 589 0 l 464 0 l 464 536 q 434 542 449 542 q 404 543 419 543 q 330 539 367 543 q 265 521 293 535 q 220 481 238 507 q 203 413 203 456 l 203 0 l 78 0 l 78 413 z "},"ሓ":{"ha":958,"x_min":38,"x_max":936,"o":"m 38 413 q 72 547 38 499 q 158 620 107 596 q 265 650 208 644 q 365 656 322 656 q 425 651 396 656 l 425 989 l 550 989 l 551 651 q 611 656 579 656 q 676 653 640 656 q 747 644 711 651 q 817 620 783 636 q 878 577 851 604 q 920 510 904 550 q 936 413 936 469 l 936 0 l 811 0 l 811 413 q 794 481 811 456 q 749 521 776 507 q 685 539 721 535 q 611 543 649 543 q 581 542 596 543 q 550 536 565 542 l 550 203 l 425 203 l 425 536 q 395 542 410 542 q 365 543 381 543 q 291 539 328 543 q 226 521 254 535 q 180 481 197 507 q 163 413 163 456 l 163 203 l 38 203 l 38 413 z "},"ሔ":{"ha":1368,"x_min":78,"x_max":1300,"o":"m 406 656 q 465 651 436 656 l 465 989 l 590 989 l 590 651 q 651 656 618 656 q 716 653 681 656 q 788 644 751 651 q 858 620 824 636 q 918 577 892 604 q 960 510 944 550 q 976 413 976 469 l 976 326 l 1069 326 q 1159 321 1118 326 q 1231 299 1200 315 q 1279 255 1261 283 q 1299 182 1297 226 l 1300 0 l 851 0 l 851 413 q 834 481 851 456 q 789 521 817 507 q 725 539 761 535 q 651 543 689 543 q 621 542 636 543 q 590 536 606 542 l 590 0 l 465 0 l 465 536 q 435 542 450 542 q 406 543 421 543 q 332 539 368 543 q 267 521 296 535 q 220 481 238 507 q 203 413 203 456 l 203 0 l 78 0 l 78 413 q 113 547 78 499 q 198 620 147 596 q 306 650 249 644 q 406 656 363 656 m 976 240 l 976 86 l 1175 86 l 1174 169 q 1165 210 1174 196 q 1143 231 1157 224 q 1111 239 1129 238 q 1072 240 1093 240 l 976 240 z "},"ሕ":{"ha":1004,"x_min":89,"x_max":989,"o":"m 89 0 l 89 413 q 124 547 89 499 q 209 620 158 596 q 317 650 260 644 q 417 656 374 656 q 476 651 450 656 l 476 807 l 210 807 l 208 1049 l 333 1049 l 335 893 l 601 893 l 601 651 q 661 656 629 656 q 762 650 706 656 q 869 620 818 644 q 954 547 919 596 q 989 413 989 499 l 989 0 l 864 0 l 864 413 q 847 481 864 456 q 800 521 829 507 q 735 539 771 535 q 661 543 699 543 q 631 542 646 543 q 601 536 615 542 l 601 0 l 476 0 l 476 536 q 447 542 461 542 q 417 543 432 543 q 343 539 379 543 q 278 521 307 535 q 231 481 249 507 q 214 413 214 456 l 214 0 l 89 0 z "},"ሖ":{"ha":958,"x_min":69,"x_max":968,"o":"m 69 413 q 104 547 69 499 q 190 620 139 596 q 297 650 240 644 q 397 656 354 656 q 457 651 428 656 l 457 989 l 582 989 l 582 651 q 642 656 610 656 q 742 650 686 656 q 849 620 799 644 q 933 547 899 596 q 968 413 968 499 l 968 203 l 843 203 l 843 413 q 826 481 843 456 q 780 521 808 507 q 715 539 751 535 q 642 543 679 543 q 612 542 626 543 q 582 536 597 542 l 582 203 l 457 203 l 457 536 q 428 542 443 542 q 397 543 413 543 q 324 539 360 543 q 258 521 288 535 q 212 481 229 507 q 194 413 194 456 l 194 0 l 69 0 l 69 413 z "},"ሗ":{"ha":1301,"x_min":54,"x_max":1240,"o":"m 54 413 q 89 547 54 499 q 174 620 124 596 q 282 650 225 644 q 382 656 339 656 q 442 651 415 656 l 442 989 l 567 989 l 567 651 q 626 656 594 656 q 727 650 671 656 q 833 620 783 644 q 918 547 883 596 q 953 413 953 499 l 953 86 l 1211 86 l 1240 -96 l 1154 -96 l 1069 0 l 715 0 l 631 -96 l 544 -96 l 572 86 l 828 86 l 828 413 q 810 481 828 456 q 765 521 793 507 q 700 539 736 535 q 626 543 664 543 q 596 542 611 543 q 567 536 581 542 l 567 203 l 442 203 l 442 536 q 412 542 426 542 q 382 543 397 543 q 308 539 344 543 q 243 521 272 535 q 197 481 214 507 q 179 413 179 456 l 179 203 l 54 203 l 54 413 z "},"መ":{"ha":1310,"x_min":106,"x_max":1219,"o":"m 965 990 q 1053 986 1008 990 q 1135 959 1099 982 q 1196 888 1172 936 q 1219 749 1219 839 l 1219 117 l 761 117 l 761 879 l 603 879 l 601 0 l 106 0 l 106 749 q 133 888 106 839 q 203 959 161 936 q 294 986 244 982 q 386 990 343 990 l 965 990 m 476 633 q 475 773 476 724 q 466 845 474 822 q 442 872 458 868 q 394 876 425 876 q 321 874 351 876 q 270 860 290 872 q 240 822 250 847 q 231 749 231 796 l 231 113 l 476 113 l 476 633 m 1094 749 q 1090 822 1094 796 q 1070 860 1085 847 q 1028 874 1056 872 q 958 876 1001 876 q 917 872 932 876 q 896 844 903 868 q 888 772 889 821 q 886 633 886 724 l 886 229 l 1094 229 l 1094 749 z "},"ሙ":{"ha":1632,"x_min":111,"x_max":1533,"o":"m 392 990 l 971 990 q 1059 986 1014 990 q 1141 959 1104 982 q 1201 888 1178 936 q 1225 749 1225 839 l 1225 594 l 1504 594 l 1533 411 l 1447 411 l 1363 508 l 1225 508 l 1225 117 l 767 117 l 767 879 l 608 879 l 607 0 l 111 0 l 111 749 q 139 888 111 839 q 208 959 167 936 q 299 986 250 982 q 392 990 349 990 m 482 113 l 482 633 q 481 773 482 724 q 472 845 479 822 q 447 872 464 868 q 400 876 431 876 q 326 874 357 876 q 276 860 296 872 q 246 822 256 847 q 236 749 236 796 l 236 113 l 482 113 m 892 633 l 892 229 l 1100 229 l 1100 749 q 1095 822 1100 796 q 1076 860 1090 847 q 1035 874 1061 872 q 964 876 1008 876 q 923 872 938 876 q 901 844 908 868 q 893 772 894 821 q 892 633 892 724 z "},"ሚ":{"ha":1499,"x_min":51,"x_max":1424,"o":"m 1424 -96 l 1336 -96 l 1251 0 l 953 0 l 1013 428 l 708 428 l 708 881 l 549 881 l 549 311 l 51 311 l 51 750 q 79 888 51 839 q 149 960 107 938 q 240 988 190 983 q 333 992 289 992 l 913 992 q 1001 988 956 992 q 1084 960 1047 983 q 1144 889 1121 938 q 1167 750 1168 840 q 1164 715 1167 742 q 1158 653 1161 689 q 1151 578 1154 617 q 1144 506 1147 539 q 1140 450 1142 472 q 1138 428 1138 428 l 1090 86 l 1251 86 l 1275 114 l 1406 114 q 1396 93 1399 103 q 1396 69 1393 83 l 1424 -96 m 424 635 q 422 774 424 725 q 410 847 419 824 q 384 874 401 869 q 338 878 367 878 q 267 876 297 878 q 217 861 238 874 q 187 823 197 849 q 176 750 176 797 l 176 424 l 424 424 l 424 635 m 833 539 l 1024 539 l 1043 750 q 1039 824 1044 799 q 1019 862 1033 850 q 978 876 1004 874 q 913 878 953 878 q 869 874 885 878 q 845 847 853 869 q 835 774 838 824 q 833 635 833 725 l 833 539 z "},"ማ":{"ha":1285,"x_min":79,"x_max":1196,"o":"m 981 0 l 1040 428 l 736 428 l 736 881 l 576 881 l 576 311 l 79 311 l 79 750 q 107 888 79 839 q 176 960 135 938 q 267 988 218 983 q 361 992 317 992 l 940 992 q 1029 988 983 992 q 1112 960 1075 983 q 1172 889 1149 938 q 1194 750 1196 840 q 1192 715 1194 742 q 1185 653 1189 689 q 1178 578 1182 617 q 1172 506 1175 539 q 1167 450 1169 472 q 1165 428 1165 428 l 1106 0 l 981 0 m 451 635 q 449 774 451 725 q 438 847 447 824 q 412 874 429 869 q 365 878 394 878 q 295 876 325 878 q 245 861 265 874 q 215 823 225 849 q 204 750 204 797 l 204 424 l 451 424 l 451 635 m 861 539 l 1051 539 l 1071 750 q 1067 824 1072 799 q 1047 862 1061 850 q 1006 876 1032 874 q 940 878 981 878 q 897 874 913 878 q 873 847 881 869 q 863 774 865 824 q 861 635 861 725 l 861 539 z "},"ሜ":{"ha":1528,"x_min":82,"x_max":1451,"o":"m 82 311 l 82 750 q 110 888 82 839 q 179 960 138 938 q 270 988 221 983 q 364 992 319 992 l 943 992 q 1032 988 986 992 q 1115 960 1078 983 q 1175 889 1151 938 q 1197 750 1199 840 q 1194 715 1197 742 q 1188 653 1192 689 q 1181 578 1185 617 q 1175 506 1178 539 q 1170 450 1172 472 q 1168 428 1168 428 l 1154 326 l 1222 326 q 1313 321 1271 326 q 1384 299 1354 315 q 1432 255 1414 283 q 1451 182 1450 226 l 1451 0 l 983 0 l 1043 428 l 739 428 l 739 881 l 579 881 l 579 311 l 82 311 m 454 424 l 454 635 q 452 774 454 725 q 441 847 450 824 q 415 874 432 869 q 368 878 397 878 q 298 876 328 878 q 248 861 268 874 q 217 823 228 849 q 207 750 207 797 l 207 424 l 454 424 m 864 539 l 1054 539 l 1074 750 q 1069 824 1075 799 q 1049 862 1064 850 q 1009 876 1035 874 q 943 878 983 878 q 899 874 915 878 q 876 847 883 869 q 866 774 868 824 q 864 635 864 725 l 864 539 m 1326 86 l 1326 169 q 1318 210 1326 196 q 1297 231 1310 224 q 1265 239 1283 238 q 1226 240 1247 240 l 1142 240 l 1121 86 l 1326 86 z "},"ም":{"ha":1261,"x_min":69,"x_max":1183,"o":"m 944 990 q 1028 985 986 990 q 1106 958 1071 981 q 1162 886 1140 935 q 1183 749 1183 838 l 1183 426 l 725 426 l 725 879 l 567 879 l 565 425 l 363 0 l 229 0 l 378 311 l 69 311 l 69 749 q 88 872 69 825 q 143 946 107 919 q 231 981 179 972 q 350 990 283 990 l 944 990 m 194 425 l 442 425 l 442 633 q 440 773 442 724 q 431 845 439 822 q 403 872 422 868 q 350 876 385 876 q 281 874 310 876 q 232 860 251 872 q 203 822 213 847 q 194 749 194 796 l 194 425 m 1058 749 q 1053 822 1058 796 q 1034 860 1047 847 q 997 874 1021 872 q 936 876 974 876 q 882 872 900 876 q 857 845 864 868 q 850 773 850 822 q 850 633 850 724 l 850 540 l 1058 540 l 1058 749 z "},"ሞ":{"ha":1283,"x_min":74,"x_max":1189,"o":"m 74 311 l 74 749 q 101 888 74 839 q 171 960 129 938 q 262 987 213 983 q 354 990 311 990 l 938 990 q 1026 986 982 990 q 1107 959 1071 982 q 1166 888 1143 936 q 1189 749 1189 839 q 1189 714 1189 740 q 1189 651 1189 688 q 1189 576 1189 615 q 1189 504 1189 538 q 1188 449 1189 471 q 1188 426 1188 426 l 732 426 l 729 879 l 572 879 l 572 0 l 447 0 l 447 311 l 74 311 m 447 422 l 447 633 q 447 775 447 725 q 440 848 447 825 q 413 875 432 871 q 354 879 393 879 q 285 876 315 879 q 237 861 256 874 q 208 822 218 849 q 199 749 199 796 l 199 422 l 447 422 m 856 633 l 856 538 l 1064 538 l 1064 749 q 1058 822 1064 796 q 1038 861 1053 849 q 999 876 1024 874 q 933 879 974 879 l 914 879 q 875 874 888 879 q 858 845 863 869 q 855 772 854 821 q 856 633 856 722 z "},"ሟ":{"ha":1488,"x_min":94,"x_max":1413,"o":"m 94 311 l 94 749 q 113 874 94 826 q 169 947 132 921 q 258 983 206 974 q 376 992 310 992 l 967 992 q 1052 988 1008 992 q 1131 960 1096 983 q 1188 888 1165 936 q 1210 749 1210 839 q 1208 714 1210 740 q 1202 652 1206 688 q 1195 578 1199 617 q 1188 506 1192 539 q 1183 450 1185 472 q 1181 426 1181 428 l 1133 85 l 1383 85 l 1413 -96 l 1326 -96 l 1242 0 l 894 0 l 810 -96 l 722 -96 l 753 85 l 1011 85 l 1060 426 l 751 426 l 751 879 l 592 879 l 592 311 l 94 311 m 219 424 l 467 424 l 467 633 q 467 775 467 725 q 460 848 468 825 q 434 875 453 871 q 376 879 415 879 q 308 877 338 879 q 258 863 278 875 q 229 824 239 850 q 219 749 219 797 l 219 424 m 876 633 l 876 539 l 1071 539 l 1090 749 q 1084 824 1090 797 q 1063 863 1078 850 q 1022 877 1047 875 q 956 879 996 879 l 933 879 q 897 874 908 879 q 880 845 885 869 q 876 772 875 821 q 876 633 876 722 z "},"ሠ":{"ha":1118,"x_min":114,"x_max":1074,"o":"m 239 989 l 239 213 q 248 156 239 176 q 276 126 257 136 q 328 115 296 117 q 407 113 361 113 q 481 117 456 113 q 518 144 507 121 q 531 217 529 167 q 532 358 532 267 l 532 989 l 656 989 l 656 526 q 667 385 656 435 q 697 313 678 336 q 739 285 715 289 q 789 281 763 281 l 949 281 l 949 989 l 1074 989 l 1074 169 l 793 169 q 706 180 743 169 q 640 210 669 190 q 628 106 640 146 q 588 42 615 65 q 515 9 560 18 q 407 0 471 0 q 288 4 342 0 q 195 28 233 8 q 135 92 157 49 q 114 213 114 135 l 114 989 l 239 989 z "},"ሡ":{"ha":1453,"x_min":114,"x_max":1381,"o":"m 239 989 l 239 213 q 248 156 239 176 q 276 126 257 136 q 328 115 296 117 q 407 113 360 113 q 481 117 456 113 q 517 144 506 121 q 529 217 528 167 q 531 358 531 267 l 531 989 l 654 989 l 654 526 q 665 385 654 435 q 695 313 676 336 q 738 285 714 289 q 788 281 761 281 l 947 281 l 947 989 l 1072 989 l 1072 694 l 1353 694 l 1381 514 l 1294 514 l 1210 608 l 1072 608 l 1072 169 l 792 169 q 705 180 742 169 q 640 210 668 190 q 628 106 640 146 q 588 42 615 65 q 515 9 560 18 q 407 0 471 0 q 288 4 342 0 q 195 28 233 8 q 135 92 157 49 q 114 213 114 135 l 114 989 l 239 989 z "},"ሢ":{"ha":1260,"x_min":11,"x_max":1179,"o":"m 136 989 l 136 511 q 145 453 136 474 q 174 424 154 433 q 227 412 194 414 q 306 410 260 410 q 379 414 354 410 q 415 441 404 418 q 428 514 426 464 q 429 656 429 564 l 429 989 l 553 989 l 553 825 q 564 686 553 736 q 592 613 575 636 q 633 584 610 589 q 681 579 656 579 l 792 579 l 849 989 l 971 989 l 846 86 l 1008 86 l 1033 114 l 1161 114 q 1154 92 1158 103 q 1153 69 1150 81 l 1179 -96 l 1093 -96 l 1008 0 l 711 0 l 776 465 l 689 465 q 539 507 596 465 q 526 403 539 443 q 486 339 514 363 q 414 306 458 315 q 306 297 369 297 q 186 301 240 297 q 93 326 132 306 q 33 389 54 346 q 11 511 11 432 l 11 989 l 136 989 z "},"ሣ":{"ha":1099,"x_min":85,"x_max":1043,"o":"m 196 989 l 196 511 q 207 453 196 474 q 240 424 218 433 q 297 412 263 414 q 378 410 331 410 q 452 414 426 410 q 490 441 478 418 q 503 514 501 464 q 506 656 506 564 l 506 989 l 619 989 l 619 825 q 631 686 619 736 q 662 613 643 636 q 705 584 681 589 q 754 579 729 579 l 874 579 l 929 989 l 1043 989 l 907 0 l 793 0 l 857 465 l 763 465 q 675 476 713 465 q 610 507 638 488 q 597 403 610 443 q 557 339 585 363 q 485 306 529 315 q 378 297 442 297 q 258 301 311 297 q 165 326 204 306 q 106 389 126 346 q 85 511 85 432 l 85 989 l 196 989 z "},"ሤ":{"ha":1331,"x_min":75,"x_max":1243,"o":"m 75 989 l 200 989 l 200 511 q 209 453 200 474 q 238 424 218 433 q 291 412 258 414 q 369 410 324 410 q 443 414 418 410 q 479 441 468 418 q 492 514 490 464 q 493 656 493 564 l 493 989 l 617 989 l 617 825 q 628 686 617 736 q 656 613 639 636 q 697 584 674 589 q 744 579 719 579 l 857 579 l 914 989 l 1035 989 l 944 326 l 1013 326 q 1101 321 1060 326 q 1174 299 1143 315 q 1223 255 1204 283 q 1243 182 1242 226 l 1243 0 l 776 0 l 842 465 l 753 465 q 603 507 660 465 q 590 403 603 443 q 550 339 578 363 q 478 306 522 315 q 369 297 433 297 q 250 301 304 297 q 157 326 196 306 q 97 389 118 346 q 75 511 75 432 l 75 989 m 1118 86 l 1118 169 q 1110 210 1118 196 q 1088 231 1101 224 q 1056 239 1074 238 q 1017 240 1038 240 l 932 240 l 911 86 l 1118 86 z "},"ሥ":{"ha":1397,"x_min":86,"x_max":1303,"o":"m 343 531 l 343 988 l 468 988 l 468 510 q 477 452 468 472 q 506 422 486 432 q 558 410 525 413 q 636 408 590 408 q 710 413 685 408 q 747 440 736 417 q 760 513 758 463 q 761 654 761 563 l 761 988 l 885 988 l 885 821 q 896 681 885 731 q 924 608 907 632 q 965 581 942 585 q 1014 576 989 576 l 1178 576 l 1178 988 l 1303 988 l 1303 464 l 1021 464 q 935 475 972 464 q 871 506 899 486 q 858 401 871 442 q 817 338 846 361 q 744 305 789 314 q 636 296 700 296 q 490 304 549 296 q 393 356 431 313 l 221 0 l 86 0 l 343 531 z "},"ሦ":{"ha":1144,"x_min":85,"x_max":1044,"o":"m 210 989 l 210 511 q 219 453 210 474 q 247 424 228 433 q 299 412 267 414 q 378 410 332 410 q 452 414 426 410 q 489 441 478 418 q 501 514 500 464 q 503 656 503 564 l 503 989 l 626 989 l 626 822 q 638 683 626 732 q 666 610 649 633 q 707 582 683 586 q 756 578 731 578 l 919 578 l 919 989 l 1044 989 l 1044 465 l 763 465 q 680 476 714 465 q 617 507 646 488 q 610 429 617 463 q 592 372 603 396 l 413 0 l 278 0 l 422 299 q 401 297 411 297 q 378 297 392 297 q 258 301 313 297 q 166 326 204 306 q 106 389 128 346 q 85 511 85 432 l 85 989 l 210 989 z "},"ሧ":{"ha":1307,"x_min":92,"x_max":1210,"o":"m 217 989 l 217 511 q 226 453 217 474 q 254 424 235 433 q 306 412 274 414 q 385 410 338 410 q 459 414 433 410 q 496 441 485 418 q 508 514 507 464 q 510 656 510 564 l 510 989 l 633 989 l 633 825 q 644 686 633 736 q 672 613 654 636 q 713 584 690 589 q 761 579 736 579 l 871 579 l 929 989 l 1050 989 l 926 86 l 1181 86 l 1210 -96 l 1124 -96 l 1039 0 l 689 0 l 604 -96 l 517 -96 l 546 86 l 804 86 l 857 465 l 769 465 q 684 476 721 465 q 619 507 647 488 q 607 403 619 443 q 566 340 594 363 q 493 308 538 317 q 385 299 449 299 q 265 302 319 299 q 173 326 211 306 q 113 389 135 346 q 92 511 92 432 l 92 989 l 217 989 z "},"ረ":{"ha":758,"x_min":53,"x_max":685,"o":"m 338 804 l 338 989 l 463 989 l 463 804 q 436 677 458 732 q 383 579 414 622 q 317 501 351 536 q 252 433 282 465 q 202 368 222 401 q 179 296 182 335 l 179 86 l 513 86 l 538 114 l 667 114 q 659 93 663 104 q 658 71 656 82 l 685 -96 l 597 -96 l 513 0 l 54 0 l 54 306 q 72 397 53 356 q 122 474 92 438 q 188 544 151 510 q 256 617 224 579 q 310 701 288 656 q 338 804 333 747 z "},"ሩ":{"ha":776,"x_min":58,"x_max":714,"o":"m 58 524 q 79 622 58 582 q 132 688 100 661 q 200 735 164 715 q 268 773 236 754 q 321 812 300 792 q 342 863 342 832 l 342 989 l 467 989 l 467 890 q 446 789 467 828 q 393 725 425 750 q 325 683 361 700 q 257 646 289 665 q 204 599 225 626 q 183 528 183 572 l 183 318 l 542 318 l 567 346 l 696 346 q 688 325 692 336 q 688 303 685 314 l 714 136 l 626 136 l 542 232 l 410 232 l 410 0 l 285 0 l 285 232 l 58 232 l 58 524 z "},"ሪ":{"ha":736,"x_min":54,"x_max":664,"o":"m 664 390 l 664 0 l 56 0 l 56 306 q 73 397 54 356 q 122 474 92 438 q 189 544 153 510 q 258 617 225 579 q 313 701 290 656 q 340 804 336 747 l 339 989 l 465 989 l 464 804 q 438 677 460 732 q 385 579 415 622 q 319 501 354 536 q 253 433 283 465 q 203 368 224 401 q 181 296 182 335 l 181 86 l 539 86 l 538 390 l 664 390 z "},"ራ":{"ha":940,"x_min":64,"x_max":921,"o":"m 921 179 l 833 179 l 749 276 l 626 276 q 565 251 590 276 q 540 190 540 225 l 540 0 l 65 0 l 65 306 q 83 397 64 356 q 132 474 101 438 q 199 544 163 510 q 267 617 235 579 q 322 701 299 656 q 349 804 344 747 l 349 989 l 474 989 l 474 804 q 447 677 469 732 q 394 579 425 622 q 328 501 363 536 q 263 433 293 465 q 213 368 233 401 q 190 296 192 335 l 190 86 l 415 86 l 415 190 q 431 258 415 226 q 471 312 446 289 q 529 349 496 335 q 597 363 563 363 l 890 363 l 921 179 z "},"ሬ":{"ha":944,"x_min":78,"x_max":871,"o":"m 363 804 l 363 989 l 488 989 l 488 804 q 461 677 483 732 q 408 579 439 622 q 342 501 376 536 q 276 433 307 465 q 226 368 246 401 q 204 296 206 335 l 204 86 l 435 86 l 435 326 l 640 326 q 731 321 689 326 q 802 299 772 315 q 850 255 832 283 q 869 182 868 226 l 871 0 l 79 0 l 79 306 q 97 397 78 357 q 147 474 117 438 q 213 544 176 510 q 281 617 249 579 q 335 701 313 656 q 363 804 358 747 m 560 240 l 560 86 l 746 86 l 744 169 q 738 209 746 194 q 715 231 729 224 q 683 239 701 238 q 644 240 664 240 l 560 240 z "},"ር":{"ha":842,"x_min":101,"x_max":758,"o":"m 758 -96 l 671 -96 l 586 0 l 101 0 l 101 749 q 122 849 101 808 q 178 916 143 889 q 255 958 213 943 q 342 981 297 974 q 426 990 386 989 q 496 992 467 992 l 664 992 l 692 785 l 606 785 l 522 881 l 472 881 q 390 877 433 881 q 310 860 347 874 q 250 821 274 847 q 226 749 226 794 l 226 86 l 586 86 l 611 114 l 740 114 q 733 93 736 104 q 732 71 729 82 l 758 -96 z "},"ሮ":{"ha":900,"x_min":103,"x_max":819,"o":"m 819 -96 l 732 -96 l 647 0 l 103 0 l 103 749 q 122 847 103 807 q 174 915 142 888 q 248 957 207 942 q 331 980 289 972 q 414 990 374 988 q 485 992 454 992 l 556 992 q 646 989 604 992 q 719 975 688 986 q 768 940 750 964 q 786 871 786 915 l 786 658 l 394 658 l 394 879 q 329 870 360 878 q 276 848 299 863 q 241 809 254 833 q 228 749 228 785 l 228 86 l 647 86 l 672 114 l 801 114 q 792 94 794 103 q 792 71 789 85 l 819 -96 m 513 906 l 513 744 l 661 744 l 661 826 q 653 868 661 853 q 630 892 644 883 q 597 903 615 900 q 558 906 579 906 l 513 906 z "},"ሯ":{"ha":985,"x_min":74,"x_max":931,"o":"m 358 804 l 358 904 l 104 904 l 75 1085 l 161 1085 l 246 989 l 597 989 l 682 1085 l 769 1085 l 740 904 l 483 904 l 483 804 q 457 677 479 732 q 403 579 435 622 q 338 501 372 536 q 272 433 303 465 q 222 368 242 401 q 200 296 201 335 l 200 86 l 425 86 l 425 192 q 440 274 425 240 q 481 326 456 307 q 540 354 507 346 q 607 363 572 363 l 901 363 l 931 179 l 844 179 l 760 276 l 638 276 q 576 257 601 276 q 550 190 550 238 l 550 0 l 75 0 l 75 306 q 93 397 74 357 q 143 474 113 438 q 210 544 174 510 q 279 617 247 579 q 333 701 311 656 q 358 804 356 747 z "},"ሰ":{"ha":744,"x_min":78,"x_max":667,"o":"m 78 576 q 99 700 78 651 q 153 778 119 749 q 228 822 186 808 q 311 840 269 836 l 311 1050 l 436 1050 l 436 847 l 667 847 l 667 0 l 542 0 l 542 733 l 411 733 q 340 729 376 733 q 272 709 303 725 q 222 662 242 693 q 203 576 203 631 l 203 0 l 78 0 l 78 576 z "},"ሱ":{"ha":1061,"x_min":85,"x_max":983,"o":"m 85 576 q 105 700 85 651 q 158 778 125 749 q 233 822 192 808 q 315 840 274 836 l 315 1050 l 440 1050 l 440 847 l 671 847 l 671 503 l 953 503 l 983 321 l 896 321 l 811 418 l 671 418 l 671 0 l 546 0 l 546 733 l 417 733 q 345 729 382 733 q 278 709 308 725 q 228 662 247 693 q 210 576 210 631 l 210 0 l 85 0 l 85 576 z "},"ሲ":{"ha":1064,"x_min":96,"x_max":1000,"o":"m 326 840 l 326 1050 l 451 1050 l 451 847 l 683 847 l 683 85 l 829 85 l 853 114 l 982 114 q 973 92 976 101 q 972 69 969 83 l 1000 -96 l 914 -96 l 829 0 l 558 0 l 558 733 l 426 733 q 355 729 392 733 q 288 709 318 725 q 240 662 258 693 q 221 576 221 631 l 221 0 l 96 0 l 96 576 q 116 700 96 651 q 169 778 136 749 q 244 822 203 808 q 326 840 285 836 z "},"ሳ":{"ha":760,"x_min":82,"x_max":671,"o":"m 671 847 l 671 0 l 546 0 l 546 733 l 415 733 q 343 729 381 733 q 276 709 306 725 q 226 662 246 693 q 207 576 207 631 l 207 314 l 82 314 l 82 576 q 103 700 82 651 q 156 778 124 749 q 231 822 189 808 q 314 840 272 836 l 314 1050 l 439 1050 l 439 847 l 671 847 z "},"ሴ":{"ha":1064,"x_min":96,"x_max":1007,"o":"m 96 0 l 96 576 q 116 700 96 651 q 169 778 136 749 q 244 822 203 808 q 328 840 286 836 l 328 1050 l 453 1050 l 453 847 l 685 847 l 685 324 l 776 324 q 866 318 825 324 q 938 297 907 313 q 986 254 968 282 q 1007 182 1004 226 l 1007 0 l 560 0 l 560 733 l 429 733 q 357 729 394 733 q 290 709 319 725 q 240 662 260 693 q 221 576 221 631 l 221 0 l 96 0 m 685 238 l 685 86 l 882 86 l 882 169 q 874 208 882 194 q 853 228 867 222 q 823 236 840 235 q 786 238 806 238 l 685 238 z "},"ስ":{"ha":756,"x_min":78,"x_max":667,"o":"m 78 576 q 101 708 78 658 q 160 788 124 758 q 242 828 197 817 q 329 844 286 840 l 181 1050 l 328 1050 l 475 847 l 667 847 l 667 0 l 542 0 l 542 733 l 411 733 q 339 729 376 733 q 272 709 301 725 q 222 662 242 693 q 203 576 203 631 l 203 0 l 78 0 l 78 576 z "},"ሶ":{"ha":746,"x_min":85,"x_max":674,"o":"m 674 847 l 674 313 l 549 313 l 549 733 l 417 733 q 345 729 382 733 q 278 709 308 725 q 229 662 249 693 q 210 576 210 631 l 210 0 l 85 0 l 85 576 q 106 700 85 651 q 159 778 126 749 q 233 822 192 808 q 317 840 275 836 l 317 1050 l 442 1050 l 442 847 l 674 847 z "},"ሷ":{"ha":1017,"x_min":60,"x_max":935,"o":"m 292 840 l 292 1050 l 417 1050 l 417 847 l 647 847 l 647 85 l 906 85 l 935 -96 l 849 -96 l 764 0 l 424 0 l 339 -96 l 251 -96 l 282 85 l 522 85 l 522 733 l 392 733 q 320 729 357 733 q 253 709 283 725 q 204 662 224 693 q 185 576 185 631 l 185 314 l 60 314 l 60 576 q 81 700 60 651 q 134 778 101 749 q 208 822 167 808 q 292 840 250 836 z "},"ሸ":{"ha":854,"x_min":74,"x_max":785,"o":"m 74 1147 l 161 1147 l 246 1050 l 613 1050 l 697 1147 l 785 1147 l 757 981 q 758 958 754 967 q 767 936 761 949 l 636 936 l 613 964 l 492 964 l 492 847 l 722 847 l 722 0 l 597 0 l 597 733 l 467 733 q 395 729 432 733 q 328 709 358 725 q 278 662 297 693 q 258 576 258 631 l 258 0 l 133 0 l 133 576 q 154 700 133 651 q 208 778 175 749 q 283 822 242 808 q 367 840 325 836 l 367 964 l 246 964 l 222 936 l 92 936 q 101 957 99 947 q 101 981 104 967 l 74 1147 z "},"ሹ":{"ha":1100,"x_min":58,"x_max":1017,"o":"m 58 1147 l 144 1147 l 228 1050 l 593 1050 l 678 1147 l 765 1147 l 739 979 q 740 958 736 968 q 747 936 743 947 l 619 936 l 593 964 l 474 964 l 474 847 l 706 847 l 706 503 l 988 503 l 1017 321 l 929 321 l 844 418 l 706 418 l 706 0 l 581 0 l 581 733 l 451 733 q 378 729 415 733 q 311 709 342 725 q 262 662 281 693 q 243 576 243 631 l 243 0 l 118 0 l 118 576 q 138 700 118 651 q 192 778 158 749 q 266 822 225 808 q 349 840 307 836 l 349 964 l 228 964 l 204 936 l 75 936 q 83 957 79 949 q 83 979 86 965 l 58 1147 z "},"ሺ":{"ha":1090,"x_min":65,"x_max":1031,"o":"m 153 1147 l 236 1050 l 601 1050 l 686 1147 l 774 1147 l 747 979 q 746 965 744 972 q 750 951 747 958 l 756 936 l 626 936 l 601 964 l 482 964 l 482 847 l 714 847 l 714 85 l 860 85 l 885 114 l 1013 114 q 1004 92 1008 103 q 1003 71 1000 82 l 1031 -96 l 944 -96 l 860 0 l 589 0 l 589 733 l 458 733 q 387 729 424 733 q 319 709 350 725 q 270 662 289 693 q 251 576 251 631 l 251 0 l 126 0 l 126 576 q 147 700 126 651 q 200 778 167 749 q 274 822 233 808 q 357 840 315 836 l 357 964 l 236 964 l 213 936 l 83 936 l 89 951 q 92 979 94 964 l 65 1147 l 153 1147 z "},"ሻ":{"ha":844,"x_min":63,"x_max":775,"o":"m 150 1147 l 235 1050 l 604 1050 l 689 1147 l 775 1147 l 747 979 q 749 958 744 968 q 756 936 753 947 l 628 936 l 604 964 l 482 964 l 482 847 l 713 847 l 713 0 l 588 0 l 588 733 l 458 733 q 386 729 424 733 q 319 709 349 725 q 269 662 289 693 q 250 576 250 631 l 250 313 l 125 313 l 125 576 q 145 700 125 651 q 199 778 165 749 q 274 822 232 808 q 357 840 315 836 l 357 964 l 235 964 l 210 936 l 82 936 q 90 958 85 947 q 92 979 94 968 l 63 1147 l 150 1147 z "},"ሼ":{"ha":1110,"x_min":68,"x_max":1040,"o":"m 68 1147 l 156 1147 l 240 1050 l 607 1050 l 692 1147 l 778 1147 l 750 979 q 751 957 747 967 q 760 936 754 947 l 631 936 l 607 964 l 486 964 l 486 847 l 717 847 l 717 324 l 810 324 q 900 318 858 324 q 973 297 942 313 q 1022 254 1004 282 q 1040 182 1040 226 l 1040 0 l 592 0 l 592 733 l 461 733 q 390 729 426 733 q 322 709 353 725 q 272 662 292 693 q 253 576 253 631 l 253 0 l 128 0 l 128 576 q 149 700 128 651 q 203 778 169 749 q 278 822 236 808 q 361 840 319 836 l 361 964 l 240 964 l 215 936 l 86 936 q 95 957 92 947 q 96 979 99 967 l 68 1147 m 717 238 l 717 86 l 915 86 l 915 169 q 906 206 915 193 q 883 226 897 219 q 850 235 868 233 q 813 238 832 238 l 717 238 z "},"ሽ":{"ha":815,"x_min":21,"x_max":735,"o":"m 21 1147 l 108 1147 l 193 1050 l 563 1050 l 647 1147 l 735 1147 l 707 979 q 708 957 704 967 q 717 936 711 947 l 586 936 l 563 964 l 442 964 l 542 847 l 731 847 l 731 0 l 606 0 l 606 733 l 475 733 q 403 729 440 733 q 336 709 367 725 q 287 662 306 693 q 268 576 268 631 l 268 0 l 143 0 l 143 576 q 167 708 143 658 q 228 788 190 758 q 310 828 265 817 q 399 844 356 840 l 296 964 l 193 964 l 169 936 l 39 936 q 48 958 44 949 q 49 981 51 967 l 21 1147 z "},"ሾ":{"ha":800,"x_min":53,"x_max":764,"o":"m 139 1147 l 224 1050 l 593 1050 l 678 1147 l 764 1147 l 738 979 q 738 957 735 968 q 744 936 742 946 l 617 936 l 593 964 l 471 964 l 471 847 l 701 847 l 701 311 l 576 311 l 576 733 l 447 733 q 375 729 413 733 q 308 709 338 725 q 258 662 278 693 q 239 576 239 631 l 239 0 l 114 0 l 114 576 q 134 700 114 651 q 188 778 154 749 q 263 822 221 808 q 346 840 304 836 l 346 964 l 225 964 l 199 936 l 71 936 q 78 958 74 947 q 81 979 83 968 l 53 1147 l 139 1147 z "},"ሿ":{"ha":1021,"x_min":57,"x_max":992,"o":"m 144 1147 l 229 1050 l 596 1050 l 681 1147 l 768 1147 l 740 979 q 741 957 738 967 q 750 936 744 947 l 619 936 l 596 964 l 475 964 l 475 847 l 707 847 l 707 85 l 963 85 l 992 -96 l 904 -96 l 819 0 l 468 0 l 383 -96 l 297 -96 l 326 85 l 582 85 l 582 733 l 450 733 q 378 729 415 733 q 312 709 342 725 q 263 662 282 693 q 243 576 243 631 l 243 313 l 118 313 l 118 576 q 138 700 118 651 q 192 778 158 749 q 267 822 225 808 q 350 840 308 836 l 350 964 l 229 964 l 206 936 l 75 936 q 84 957 81 947 q 85 979 88 967 l 57 1147 l 144 1147 z "},"ቀ":{"ha":915,"x_min":42,"x_max":843,"o":"m 289 763 l 382 763 l 382 992 l 507 992 l 507 763 l 608 763 q 700 748 657 763 q 775 706 743 733 q 825 638 807 678 q 843 549 843 599 l 843 313 l 507 313 l 507 0 l 382 0 l 382 313 l 42 313 l 42 551 q 60 640 42 600 q 111 706 78 679 q 190 748 144 733 q 289 763 235 763 m 167 424 l 382 424 l 382 651 l 299 651 q 243 645 268 650 q 201 628 218 640 q 176 594 185 615 q 167 538 167 572 l 167 424 m 507 651 l 507 424 l 718 424 l 718 538 q 681 627 718 603 q 586 651 644 651 l 507 651 z "},"ቁ":{"ha":925,"x_min":42,"x_max":843,"o":"m 42 629 q 60 717 42 678 q 111 784 78 757 q 190 826 144 811 q 289 840 235 840 l 382 840 l 382 992 l 507 992 l 507 840 l 608 840 q 700 826 657 840 q 775 783 743 811 q 825 716 807 756 q 843 626 843 676 l 843 390 l 507 390 l 507 274 l 779 274 l 808 92 l 721 92 l 636 189 l 507 189 l 507 0 l 382 0 l 382 390 l 42 390 l 42 629 m 382 501 l 382 729 l 299 729 q 243 723 268 728 q 201 706 218 718 q 176 672 185 693 q 167 615 167 650 l 167 501 l 382 501 m 718 501 l 718 615 q 681 705 718 681 q 586 729 644 729 l 507 729 l 507 501 l 718 501 z "},"ቂ":{"ha":957,"x_min":83,"x_max":885,"o":"m 83 551 q 101 640 83 600 q 153 706 119 679 q 231 748 186 733 q 331 763 276 763 l 424 763 l 424 992 l 549 992 l 549 763 l 650 763 q 742 748 699 763 q 817 706 785 733 q 867 638 849 678 q 885 549 885 599 l 885 313 l 549 313 l 549 86 l 688 86 l 711 114 l 840 114 l 829 86 l 858 -96 l 771 -96 l 688 0 l 424 0 l 424 313 l 83 313 l 83 551 m 208 424 l 424 424 l 424 651 l 340 651 q 285 645 310 650 q 243 628 260 640 q 217 594 226 615 q 208 538 208 572 l 208 424 m 549 651 l 549 424 l 760 424 l 760 538 q 723 627 760 603 q 628 651 686 651 l 549 651 z "},"ቃ":{"ha":943,"x_min":57,"x_max":858,"o":"m 57 313 l 57 551 q 76 640 57 600 q 126 706 94 679 q 199 748 157 733 q 286 763 240 763 l 396 763 l 396 992 l 521 992 l 521 763 l 624 763 q 715 748 672 763 q 790 706 758 733 q 840 638 822 678 q 858 549 858 599 l 858 313 l 521 313 l 521 213 q 503 108 521 149 q 456 43 486 67 q 385 10 425 19 q 301 0 346 0 l 228 0 l 144 -96 l 57 -96 l 85 86 l 292 86 q 367 108 338 86 q 396 196 396 129 l 396 313 l 57 313 m 182 538 l 182 424 l 396 424 l 396 651 l 307 651 q 213 628 243 651 q 182 538 182 606 m 521 651 l 521 424 l 733 424 l 733 538 q 699 628 731 606 q 601 651 668 651 l 521 651 z "},"ቄ":{"ha":924,"x_min":44,"x_max":846,"o":"m 44 390 l 44 629 q 63 717 44 678 q 114 784 81 757 q 192 826 147 811 q 292 840 238 840 l 385 840 l 385 992 l 510 992 l 510 840 l 611 840 q 703 826 660 840 q 778 783 746 811 q 828 716 810 756 q 846 626 846 676 l 846 390 l 510 390 l 510 311 l 597 311 q 688 308 646 311 q 760 291 729 304 q 810 252 792 278 q 828 182 828 226 l 828 0 l 385 0 l 385 390 l 44 390 m 169 501 l 385 501 l 385 729 l 301 729 q 246 723 271 728 q 204 706 221 718 q 178 672 188 693 q 169 615 169 650 l 169 501 m 510 729 l 510 501 l 721 501 l 721 615 q 684 705 721 681 q 589 729 647 729 l 510 729 m 510 226 l 510 86 l 703 86 l 703 169 q 672 217 703 208 q 601 226 642 226 l 510 226 z "},"ቅ":{"ha":933,"x_min":60,"x_max":861,"o":"m 60 274 l 60 513 q 79 602 60 563 q 131 669 99 642 q 206 710 163 696 q 296 724 249 724 l 400 724 l 400 814 l 133 814 l 133 1058 l 257 1058 l 260 900 l 525 900 l 525 724 l 626 724 q 717 709 675 724 q 792 667 760 694 q 842 599 824 639 q 861 510 861 560 l 861 274 l 525 274 l 525 0 l 400 0 l 400 274 l 60 274 m 185 499 l 185 385 l 400 385 l 400 613 l 317 613 q 219 590 253 613 q 185 499 185 567 m 736 385 l 736 499 q 701 590 736 567 q 604 613 667 613 l 525 613 l 525 385 l 736 385 z "},"ቆ":{"ha":943,"x_min":71,"x_max":872,"o":"m 304 603 l 411 603 l 411 699 l 324 840 l 324 992 l 504 992 q 598 989 553 992 q 678 974 643 986 q 735 938 714 963 q 756 868 756 913 l 756 696 l 536 696 l 536 603 l 638 603 q 730 588 688 603 q 804 546 772 574 q 854 478 836 518 q 872 388 872 438 l 872 153 l 536 153 l 536 0 l 411 0 l 411 153 l 71 153 l 71 392 q 90 481 71 442 q 140 547 108 519 q 215 588 172 574 q 304 603 257 603 m 196 378 l 196 264 l 411 264 l 411 492 l 328 492 q 272 485 297 490 q 231 468 247 481 q 205 434 214 456 q 196 378 196 413 m 536 492 l 536 264 l 747 264 l 747 378 q 712 468 746 444 q 615 492 678 492 l 536 492 m 449 908 l 449 858 l 499 782 l 631 782 l 631 865 q 619 890 631 882 q 590 903 607 899 q 550 908 572 907 q 507 908 528 908 l 449 908 z "},"ቇ":{"ha":931,"x_min":64,"x_max":865,"o":"m 64 181 l 64 392 q 83 481 64 442 q 133 547 101 519 q 208 588 165 574 q 297 603 250 603 l 404 603 l 404 699 l 317 840 l 317 992 l 497 992 q 591 989 546 992 q 672 974 636 986 q 728 938 707 963 q 749 868 749 913 l 749 696 l 529 696 l 529 603 l 631 603 q 723 588 681 603 q 797 546 765 574 q 847 478 829 518 q 865 388 865 438 l 865 181 l 529 181 l 529 0 l 297 0 l 213 -96 l 126 -96 l 156 86 l 404 86 l 404 181 l 64 181 m 189 292 l 404 292 l 404 492 l 321 492 q 265 485 290 490 q 224 468 240 481 q 198 434 207 456 q 189 378 189 413 l 189 292 m 529 492 l 529 292 l 740 292 l 740 378 q 705 468 739 444 q 608 492 671 492 l 529 492 m 492 782 l 624 782 l 624 865 q 612 890 624 882 q 583 903 600 899 q 543 908 565 907 q 500 908 521 908 l 442 908 l 442 858 l 492 782 z "},"ቈ":{"ha":992,"x_min":44,"x_max":944,"o":"m 44 390 l 44 629 q 63 717 44 678 q 114 784 81 757 q 192 826 147 811 q 292 840 238 840 l 385 840 l 385 992 l 510 992 l 510 840 l 611 840 q 703 826 660 840 q 778 783 746 811 q 828 716 810 756 q 846 626 846 676 l 846 390 l 510 390 l 510 307 l 714 307 q 805 304 763 307 q 878 288 847 301 q 927 249 910 275 q 944 176 944 222 l 944 14 l 594 14 l 594 232 l 510 232 l 510 0 l 385 0 l 385 390 l 44 390 m 385 501 l 385 729 l 301 729 q 246 723 271 728 q 204 706 221 718 q 178 672 188 693 q 169 615 169 650 l 169 501 l 385 501 m 721 501 l 721 615 q 684 705 721 681 q 589 729 647 729 l 510 729 l 510 501 l 721 501 m 701 100 l 819 100 l 819 168 q 811 205 819 192 q 789 224 803 218 q 756 231 775 231 q 718 232 738 232 l 701 232 l 701 100 z "},"ቊ":{"ha":1383,"x_min":60,"x_max":1282,"o":"m 60 551 q 78 640 60 600 q 129 706 96 679 q 208 748 163 733 q 307 763 253 763 l 400 763 l 400 992 l 525 992 l 525 763 l 626 763 q 782 715 718 763 q 858 583 846 668 l 972 583 l 972 694 l 1083 694 l 1083 465 l 1251 465 l 1282 283 l 1194 283 l 1110 379 l 972 379 l 972 497 l 861 497 l 861 313 l 525 313 l 525 0 l 400 0 l 400 313 l 60 313 l 60 551 m 400 424 l 400 651 l 317 651 q 261 645 286 650 q 219 628 236 640 q 194 594 203 615 q 185 538 185 572 l 185 424 l 400 424 m 736 424 l 736 538 q 699 627 736 603 q 604 651 663 651 l 525 651 l 525 424 l 736 424 z "},"ቋ":{"ha":928,"x_min":60,"x_max":861,"o":"m 60 551 q 78 640 60 600 q 129 706 96 679 q 208 748 163 733 q 307 763 253 763 l 400 763 l 400 992 l 525 992 l 525 763 l 626 763 q 718 748 675 763 q 793 706 761 733 q 843 638 825 678 q 861 549 861 599 l 861 313 l 525 313 l 525 86 l 771 86 l 799 -96 l 714 -96 l 629 0 l 289 0 l 204 -96 l 117 -96 l 146 86 l 400 86 l 400 313 l 60 313 l 60 551 m 400 424 l 400 651 l 317 651 q 261 645 286 650 q 219 628 236 640 q 194 594 203 615 q 185 538 185 572 l 185 424 l 400 424 m 736 424 l 736 538 q 699 627 736 603 q 604 651 663 651 l 525 651 l 525 424 l 736 424 z "},"ቌ":{"ha":915,"x_min":49,"x_max":850,"o":"m 49 629 q 67 717 49 678 q 118 784 85 757 q 197 826 151 811 q 296 840 242 840 l 389 840 l 389 992 l 514 992 l 514 840 l 615 840 q 707 826 664 840 q 782 783 750 811 q 832 716 814 756 q 850 626 850 676 l 850 390 l 514 390 l 514 300 l 600 300 q 690 297 649 300 q 763 281 732 293 q 811 246 793 269 q 831 182 829 222 l 831 0 l 272 0 l 189 -94 l 103 -94 l 131 86 l 389 86 l 389 390 l 49 390 l 49 629 m 174 501 l 389 501 l 389 729 l 306 729 q 250 723 275 728 q 208 706 225 718 q 183 672 192 693 q 174 615 174 650 l 174 501 m 514 729 l 514 501 l 725 501 l 725 615 q 688 705 725 681 q 593 729 651 729 l 514 729 m 706 86 l 706 169 q 697 198 706 188 q 675 214 689 208 q 643 221 661 219 q 604 222 625 222 l 514 222 l 514 86 l 706 86 z "},"ቍ":{"ha":1363,"x_min":78,"x_max":1256,"o":"m 78 551 q 96 640 78 600 q 147 706 114 679 q 226 748 181 733 q 325 763 271 763 l 418 763 l 418 992 l 543 992 l 543 763 l 644 763 q 728 751 689 763 q 799 716 768 739 q 851 660 831 693 q 876 585 871 626 l 947 585 l 947 735 l 1058 735 l 1058 585 l 1228 585 l 1256 403 l 1169 403 l 1086 499 l 879 499 l 879 313 l 543 313 l 543 0 l 418 0 l 418 313 l 78 313 l 78 551 m 203 424 l 418 424 l 418 651 l 335 651 q 279 645 304 650 q 238 628 254 640 q 212 594 221 615 q 203 538 203 572 l 203 424 m 543 651 l 543 424 l 754 424 l 754 538 q 717 627 754 603 q 622 651 681 651 l 543 651 z "},"ቐ":{"ha":968,"x_min":61,"x_max":893,"o":"m 61 1088 l 147 1088 l 231 992 l 721 992 l 807 1088 l 893 1088 l 865 921 q 866 899 863 908 q 875 878 869 889 l 747 878 l 721 907 l 540 907 l 540 763 l 642 763 q 733 748 690 763 q 808 706 776 733 q 858 638 840 678 q 876 549 876 599 l 876 313 l 540 313 l 540 0 l 415 0 l 415 313 l 75 313 l 75 551 q 93 640 75 600 q 144 706 111 679 q 223 748 178 733 q 322 763 268 763 l 415 763 l 415 907 l 231 907 l 207 878 l 79 878 q 85 899 82 889 q 86 921 89 910 l 61 1088 m 200 424 l 415 424 l 415 651 l 332 651 q 276 645 301 650 q 235 628 251 640 q 209 594 218 615 q 200 538 200 572 l 200 424 m 540 651 l 540 424 l 751 424 l 751 538 q 715 627 751 603 q 619 651 678 651 l 540 651 z "},"ቑ":{"ha":1018,"x_min":89,"x_max":922,"o":"m 176 1114 l 261 1017 l 750 1017 l 835 1114 l 922 1114 l 896 946 q 894 932 893 939 q 899 918 896 925 l 904 903 l 775 903 l 750 932 l 564 932 l 564 840 l 671 840 q 752 829 713 840 q 824 795 792 818 q 878 738 856 772 q 906 660 900 704 q 906 643 906 651 q 907 625 907 635 l 907 390 l 564 390 l 564 274 l 840 274 l 869 92 l 782 92 l 697 189 l 564 189 l 564 0 l 450 0 l 450 390 l 104 390 l 104 628 q 106 644 106 636 q 107 660 106 653 q 172 782 117 736 q 299 838 226 828 q 326 840 313 839 q 351 840 339 840 l 450 840 l 450 932 l 261 932 l 236 903 l 107 903 l 113 918 q 117 946 118 932 l 89 1114 l 176 1114 m 564 750 l 564 482 l 794 482 l 794 617 q 753 717 794 683 q 650 750 713 750 l 564 750 m 450 482 l 450 750 l 361 750 q 306 742 333 749 q 258 715 278 736 q 218 617 217 674 l 217 617 l 217 482 l 450 482 z "},"ቒ":{"ha":958,"x_min":49,"x_max":881,"o":"m 49 1088 l 136 1088 l 221 992 l 710 992 l 794 1088 l 881 1088 l 854 921 q 855 899 851 907 q 864 878 858 890 l 735 878 l 710 907 l 529 907 l 529 763 l 631 763 q 722 748 679 763 q 797 706 765 733 q 847 638 829 678 q 865 549 865 599 l 865 313 l 529 313 l 529 86 l 668 86 l 693 114 l 822 114 q 813 92 815 101 q 813 69 810 83 l 840 -96 l 753 -96 l 668 0 l 404 0 l 404 313 l 64 313 l 64 551 q 82 640 64 600 q 133 706 100 679 q 212 748 167 733 q 311 763 257 763 l 404 763 l 404 907 l 221 907 l 194 878 l 67 878 q 75 899 72 889 q 75 922 78 910 l 49 1088 m 189 538 l 189 424 l 404 424 l 404 651 l 321 651 q 265 645 290 650 q 224 628 240 640 q 198 594 207 615 q 189 538 189 572 m 529 651 l 529 424 l 740 424 l 740 538 q 703 627 740 603 q 608 651 667 651 l 529 651 z "},"ቓ":{"ha":958,"x_min":57,"x_max":889,"o":"m 143 1088 l 226 993 l 717 993 l 801 1088 l 889 1088 l 861 924 q 863 901 858 911 q 871 879 867 890 l 740 879 l 717 907 l 536 907 l 536 763 l 638 763 q 728 749 686 763 q 803 708 771 735 q 855 641 836 681 q 874 549 874 601 l 874 314 l 536 314 l 536 214 q 519 131 536 169 q 471 63 501 92 q 401 17 440 33 q 318 0 363 0 l 242 0 l 158 -96 l 72 -96 l 100 86 l 307 86 q 381 119 351 86 q 411 196 411 151 l 411 314 l 72 314 l 72 551 q 90 639 72 600 q 140 705 108 678 q 213 747 171 732 q 303 763 256 763 l 411 763 l 411 907 l 226 907 l 203 879 l 74 879 q 82 900 79 890 q 82 922 85 910 l 57 1088 l 143 1088 m 411 425 l 411 651 l 328 651 q 254 639 281 650 q 215 611 228 628 q 200 575 203 594 q 197 538 197 556 l 197 425 l 411 425 m 749 425 l 749 538 q 717 629 749 607 q 621 651 686 651 l 536 651 l 536 425 l 749 425 z "},"ቔ":{"ha":951,"x_min":49,"x_max":881,"o":"m 49 1114 l 135 1114 l 218 1017 l 708 1017 l 793 1114 l 881 1114 l 853 946 q 854 924 850 933 q 863 903 858 914 l 735 903 l 708 933 l 529 933 l 529 840 l 631 840 q 722 826 679 840 q 797 783 765 811 q 847 716 829 756 q 865 626 865 676 l 865 390 l 529 390 l 529 311 l 617 311 q 707 308 665 311 q 780 291 749 304 q 829 252 811 278 q 847 182 847 226 l 847 0 l 404 0 l 404 390 l 64 390 l 64 629 q 82 717 64 678 q 133 784 100 757 q 212 826 167 811 q 311 840 257 840 l 404 840 l 404 933 l 218 933 l 194 903 l 65 903 q 74 926 72 918 q 74 950 76 935 l 49 1114 m 404 501 l 404 729 l 321 729 q 265 723 290 728 q 224 706 240 718 q 198 672 207 693 q 189 615 189 650 l 189 501 l 404 501 m 529 729 l 529 501 l 740 501 l 740 615 q 703 705 740 681 q 608 729 667 729 l 529 729 m 529 226 l 529 86 l 722 86 l 722 169 q 692 217 722 208 q 621 226 661 226 l 529 226 z "},"ቕ":{"ha":1193,"x_min":38,"x_max":1124,"o":"m 38 1186 l 126 1186 l 211 1092 l 701 1092 l 785 1186 l 871 1186 l 846 1021 q 846 999 843 1006 q 854 976 849 992 l 725 976 l 701 1006 l 521 1006 l 521 976 l 522 900 l 788 900 l 788 724 l 889 724 q 980 709 938 724 q 1054 667 1022 694 q 1105 599 1086 639 q 1124 510 1124 560 l 1124 274 l 788 274 l 788 0 l 663 0 l 663 274 l 322 274 l 322 513 q 342 602 322 563 q 393 669 361 642 q 468 710 425 696 q 558 724 511 724 l 663 724 l 663 814 l 396 814 l 396 1006 l 211 1006 l 185 976 l 57 976 q 65 999 61 989 q 67 1022 69 1008 l 38 1186 m 447 385 l 663 385 l 663 613 l 579 613 q 481 590 515 613 q 447 499 447 567 l 447 385 m 788 613 l 788 385 l 999 385 l 999 499 q 964 590 999 567 q 867 613 929 613 l 788 613 z "},"ቖ":{"ha":1011,"x_min":63,"x_max":944,"o":"m 63 392 q 81 481 63 442 q 132 547 100 519 q 206 588 164 574 q 296 603 249 603 l 403 603 l 403 699 l 315 840 l 315 917 l 283 917 l 258 889 l 129 889 q 136 910 132 897 q 138 932 140 922 l 111 1099 l 199 1099 l 283 1003 l 772 1003 l 857 1099 l 944 1099 l 917 932 q 918 910 914 921 q 926 889 922 900 l 797 889 l 772 917 l 739 917 q 743 903 742 910 q 746 889 744 896 q 747 868 747 885 l 747 696 l 528 696 l 528 603 l 629 603 q 722 588 679 603 q 796 546 764 574 q 846 478 828 518 q 864 388 864 438 l 864 153 l 528 153 l 528 0 l 403 0 l 403 153 l 63 153 l 63 392 m 188 264 l 403 264 l 403 492 l 319 492 q 264 485 289 490 q 222 468 239 481 q 197 434 206 456 q 188 378 188 413 l 188 264 m 528 492 l 528 264 l 739 264 l 739 378 q 703 468 738 444 q 607 492 669 492 l 528 492 m 440 908 l 440 858 l 490 782 l 622 782 l 622 865 q 613 889 622 879 q 571 906 599 903 q 514 908 543 908 l 499 908 l 440 908 z "},"ቘ":{"ha":1025,"x_min":44,"x_max":960,"o":"m 131 1114 l 215 1017 l 706 1017 l 789 1114 l 876 1114 l 850 946 q 851 924 847 935 q 858 903 856 914 l 731 903 l 706 933 l 525 933 l 525 840 l 626 840 q 718 826 675 840 q 793 783 761 811 q 843 716 825 756 q 861 626 861 676 l 861 390 l 525 390 l 525 307 l 729 307 q 820 304 778 307 q 894 288 863 301 q 942 249 925 275 q 960 176 960 222 l 960 14 l 610 14 l 610 232 l 525 232 l 525 0 l 400 0 l 400 390 l 60 390 l 60 629 q 78 717 60 678 q 129 784 96 757 q 208 826 163 811 q 307 840 253 840 l 400 840 l 400 933 l 215 933 l 192 903 l 61 903 q 71 925 68 918 q 71 949 74 932 l 44 1114 l 131 1114 m 185 615 l 185 501 l 400 501 l 400 729 l 317 729 q 261 723 286 728 q 219 706 236 718 q 194 672 203 693 q 185 615 185 650 m 736 501 l 736 615 q 699 705 736 681 q 604 729 663 729 l 525 729 l 525 501 l 736 501 m 717 232 l 717 100 l 835 100 l 835 168 q 826 205 835 192 q 804 224 818 218 q 772 231 790 231 q 733 232 753 232 l 717 232 z "},"ቚ":{"ha":1389,"x_min":60,"x_max":1297,"o":"m 146 1088 l 229 993 l 719 993 l 804 1088 l 892 1088 l 864 922 q 864 899 861 908 q 874 879 867 890 l 744 879 l 719 907 l 540 907 l 540 763 l 642 763 q 797 715 733 763 q 874 583 861 668 l 988 583 l 988 694 l 1099 694 l 1099 465 l 1267 465 l 1297 283 l 1210 283 l 1125 379 l 988 379 l 988 497 l 876 497 l 876 313 l 540 313 l 540 0 l 415 0 l 415 313 l 75 313 l 75 551 q 93 640 75 600 q 144 706 111 679 q 223 748 178 733 q 322 763 268 763 l 415 763 l 415 907 l 229 907 l 206 879 l 76 879 q 85 900 82 893 q 85 922 88 907 l 60 1088 l 146 1088 m 415 424 l 415 651 l 332 651 q 276 645 301 650 q 235 628 251 640 q 209 594 218 615 q 200 538 200 572 l 200 424 l 415 424 m 540 651 l 540 424 l 751 424 l 751 538 q 715 627 751 603 q 619 651 678 651 l 540 651 z "},"ቛ":{"ha":956,"x_min":60,"x_max":892,"o":"m 60 1088 l 146 1088 l 229 993 l 719 993 l 804 1088 l 892 1088 l 864 922 q 864 899 861 908 q 874 879 867 890 l 746 879 l 719 907 l 539 907 l 539 763 l 640 763 q 732 748 689 763 q 807 706 775 733 q 857 638 839 678 q 875 549 875 599 l 875 313 l 539 313 l 539 86 l 785 86 l 813 -96 l 728 -96 l 643 0 l 303 0 l 218 -96 l 131 -96 l 160 86 l 414 86 l 414 313 l 74 313 l 74 551 q 92 640 74 600 q 143 706 110 679 q 222 748 176 733 q 321 763 267 763 l 414 763 l 414 907 l 229 907 l 206 879 l 78 879 q 85 900 82 893 q 85 922 88 907 l 60 1088 m 414 424 l 414 651 l 331 651 q 275 645 300 650 q 233 628 250 640 q 208 594 217 615 q 199 538 199 572 l 199 424 l 414 424 m 539 424 l 750 424 l 750 538 q 713 627 750 603 q 618 651 676 651 l 539 651 l 539 424 z "},"ቜ":{"ha":939,"x_min":49,"x_max":881,"o":"m 135 1114 l 218 1017 l 708 1017 l 793 1114 l 881 1114 l 853 946 q 854 924 850 933 q 863 903 858 914 l 735 903 l 708 933 l 529 933 l 529 840 l 631 840 q 722 826 679 840 q 797 783 765 811 q 847 716 829 756 q 865 626 865 676 l 865 390 l 529 390 l 529 300 l 615 300 q 706 297 664 300 q 778 281 747 293 q 826 246 808 269 q 846 182 844 222 l 846 0 l 288 0 l 204 -94 l 118 -94 l 146 86 l 404 86 l 404 390 l 64 390 l 64 629 q 82 717 64 678 q 133 784 100 757 q 212 826 167 811 q 311 840 257 840 l 404 840 l 404 933 l 218 933 l 194 903 l 65 903 q 74 926 72 918 q 74 950 76 933 l 49 1114 l 135 1114 m 404 501 l 404 729 l 321 729 q 265 723 290 728 q 224 706 240 718 q 198 672 207 693 q 189 615 189 650 l 189 501 l 404 501 m 529 729 l 529 501 l 740 501 l 740 615 q 703 705 740 681 q 608 729 667 729 l 529 729 m 721 86 l 721 169 q 713 198 721 188 q 690 214 704 208 q 658 221 676 219 q 619 222 640 222 l 529 222 l 529 86 l 721 86 z "},"ቝ":{"ha":1363,"x_min":60,"x_max":1253,"o":"m 60 1088 l 147 1088 l 231 993 l 721 993 l 806 1088 l 892 1088 l 865 922 q 865 900 863 907 q 874 879 868 893 l 746 879 l 721 907 l 540 907 l 540 763 l 642 763 q 726 751 686 763 q 797 716 765 739 q 848 660 828 693 q 874 585 868 626 l 944 585 l 944 735 l 1056 735 l 1056 585 l 1225 585 l 1253 403 l 1167 403 l 1083 499 l 876 499 l 876 313 l 540 313 l 540 0 l 415 0 l 415 313 l 75 313 l 75 551 q 93 640 75 600 q 144 706 111 679 q 223 748 178 733 q 322 763 268 763 l 415 763 l 415 907 l 231 907 l 206 879 l 78 879 q 86 900 83 890 q 86 922 89 910 l 60 1088 m 415 424 l 415 651 l 332 651 q 276 645 301 650 q 235 628 251 640 q 209 594 218 615 q 200 538 200 572 l 200 424 l 415 424 m 540 651 l 540 424 l 751 424 l 751 538 q 715 627 751 603 q 619 651 678 651 l 540 651 z "},"በ":{"ha":828,"x_min":119,"x_max":708,"o":"m 119 721 q 136 831 119 786 q 180 906 153 876 q 242 953 207 936 q 315 979 278 971 q 388 990 351 988 q 453 992 424 992 l 708 992 l 708 0 l 583 0 l 583 879 l 453 879 q 381 874 418 879 q 313 853 343 869 q 264 806 283 838 q 244 721 244 775 l 244 0 l 119 0 l 119 721 z "},"ቡ":{"ha":1099,"x_min":99,"x_max":997,"o":"m 99 721 q 115 831 99 786 q 159 906 132 876 q 222 953 186 936 q 294 979 257 971 q 367 990 331 988 q 432 992 403 992 l 686 992 l 686 506 l 968 506 l 997 322 l 911 322 l 826 419 l 686 419 l 686 0 l 561 0 l 561 879 l 432 879 q 360 874 397 879 q 293 853 324 869 q 243 806 263 838 q 224 721 224 775 l 224 0 l 99 0 l 99 721 z "},"ቢ":{"ha":1099,"x_min":113,"x_max":1019,"o":"m 113 0 l 113 721 q 129 831 113 786 q 173 906 146 876 q 235 953 200 936 q 308 979 271 971 q 381 990 344 988 q 446 992 417 992 l 700 992 l 700 86 l 847 86 l 874 114 l 1001 114 q 992 94 994 103 q 992 71 989 85 l 1019 -96 l 933 -96 l 849 0 l 575 0 l 575 879 l 446 879 q 374 874 411 879 q 306 853 336 869 q 257 806 276 838 q 238 721 238 775 l 238 0 l 113 0 z "},"ባ":{"ha":765,"x_min":78,"x_max":667,"o":"m 667 992 l 667 0 l 542 0 l 542 879 l 410 879 q 338 874 375 879 q 272 853 301 869 q 222 806 242 838 q 203 721 203 775 l 203 315 l 78 315 l 78 721 q 94 831 78 786 q 138 906 111 876 q 201 953 165 936 q 273 979 236 971 q 345 990 310 988 q 410 992 381 992 l 667 992 z "},"ቤ":{"ha":1092,"x_min":103,"x_max":1014,"o":"m 103 0 l 103 721 q 119 831 103 786 q 163 907 136 876 q 225 954 190 938 q 297 979 260 971 q 369 990 333 988 q 435 992 406 992 l 692 992 l 692 326 l 783 326 q 873 321 832 326 q 944 299 914 315 q 993 255 975 283 q 1014 182 1011 226 l 1014 0 l 567 0 l 567 879 l 435 879 q 363 874 400 879 q 297 853 326 869 q 247 806 267 838 q 228 721 228 775 l 228 0 l 103 0 m 692 240 l 692 86 l 889 86 l 889 169 q 881 210 889 196 q 858 231 872 225 q 825 239 843 238 q 786 240 807 240 l 692 240 z "},"ብ":{"ha":1047,"x_min":72,"x_max":968,"o":"m 103 506 l 381 506 l 381 721 q 397 831 381 786 q 441 907 414 876 q 503 954 468 938 q 574 979 538 971 q 647 990 611 988 q 713 992 683 992 l 968 992 l 968 0 l 843 0 l 843 879 l 713 879 q 641 874 678 879 q 574 853 604 869 q 525 806 544 838 q 506 721 506 775 l 506 0 l 381 0 l 381 419 l 244 419 l 160 322 l 72 322 l 103 506 z "},"ቦ":{"ha":793,"x_min":110,"x_max":699,"o":"m 699 313 l 574 313 l 574 879 l 443 879 q 372 874 408 879 q 304 853 335 869 q 254 806 274 838 q 235 721 235 775 l 235 0 l 110 0 l 110 721 q 146 873 110 818 q 233 954 182 928 q 342 986 285 981 q 443 992 400 992 l 699 992 l 699 313 z "},"ቧ":{"ha":1039,"x_min":74,"x_max":949,"o":"m 74 314 l 74 719 q 90 830 74 785 q 134 905 107 875 q 197 952 161 935 q 269 978 232 969 q 341 988 306 986 q 406 990 376 990 l 663 990 l 663 85 l 919 85 l 949 -96 l 861 -96 l 776 0 l 425 0 l 340 -96 l 254 -96 l 283 85 l 538 85 l 538 879 l 406 879 q 334 874 371 879 q 267 853 297 869 q 218 805 238 836 q 199 719 199 774 l 199 314 l 74 314 z "},"ቨ":{"ha":863,"x_min":75,"x_max":774,"o":"m 129 578 q 165 729 129 675 q 253 810 201 783 q 362 842 304 836 q 463 849 419 849 l 718 849 l 718 0 l 593 0 l 593 736 l 463 736 q 391 731 428 736 q 324 710 354 726 q 274 663 293 694 q 254 578 254 632 l 254 0 l 129 0 l 129 578 m 163 1149 l 247 1051 l 601 1051 l 686 1149 l 774 1149 l 746 981 q 746 958 743 967 q 756 938 749 950 l 625 938 l 601 967 l 247 967 l 224 938 l 93 938 q 102 958 99 949 q 103 981 106 968 l 75 1149 l 163 1149 z "},"ቩ":{"ha":1121,"x_min":74,"x_max":1028,"o":"m 129 0 l 129 578 q 165 730 129 675 q 251 811 200 785 q 360 843 303 838 q 461 849 418 849 l 715 849 l 715 506 l 997 506 l 1028 322 l 940 322 l 856 419 l 715 419 l 715 0 l 590 0 l 590 736 l 461 736 q 390 731 426 736 q 323 710 353 726 q 274 663 293 694 q 254 578 254 632 l 254 0 l 129 0 m 161 1149 l 246 1051 l 600 1051 l 683 1149 l 771 1149 l 744 982 q 745 959 742 969 q 753 938 749 949 l 624 938 l 600 967 l 246 967 l 221 938 l 92 938 q 100 959 96 949 q 101 981 104 969 l 74 1149 l 161 1149 z "},"ቪ":{"ha":1115,"x_min":75,"x_max":1035,"o":"m 129 578 q 146 688 129 643 q 190 763 163 733 q 252 810 217 793 q 324 836 288 828 q 397 847 361 844 q 463 849 433 849 l 717 849 l 717 86 l 863 86 l 889 114 l 1017 114 q 1007 94 1010 103 q 1007 71 1004 85 l 1035 -96 l 949 -96 l 864 0 l 592 0 l 592 736 l 463 736 q 390 731 428 736 q 323 710 353 726 q 274 663 293 694 q 254 578 254 632 l 254 0 l 129 0 l 129 578 m 163 1149 l 246 1051 l 600 1051 l 685 1149 l 771 1149 l 746 981 q 746 959 742 969 q 754 938 750 949 l 625 938 l 600 967 l 246 967 l 221 938 l 93 938 q 101 959 97 949 q 101 981 104 969 l 75 1149 l 163 1149 z "},"ቫ":{"ha":825,"x_min":68,"x_max":765,"o":"m 122 314 l 122 578 q 158 729 122 675 q 244 810 193 783 q 353 842 296 836 q 456 849 411 849 l 710 849 l 710 0 l 585 0 l 585 736 l 456 736 q 383 731 421 736 q 316 710 346 726 q 267 663 286 694 q 247 578 247 632 l 247 314 l 122 314 m 154 1149 l 239 1051 l 593 1051 l 678 1149 l 765 1149 l 738 981 q 738 959 735 969 q 746 938 742 949 l 618 938 l 593 967 l 239 967 l 214 938 l 85 938 q 94 959 90 951 q 94 982 97 967 l 68 1149 l 154 1149 z "},"ቬ":{"ha":1113,"x_min":63,"x_max":1028,"o":"m 117 0 l 117 578 q 152 729 117 675 q 239 810 188 783 q 348 842 290 836 q 450 849 406 849 l 704 849 l 704 326 l 799 326 q 888 321 847 326 q 960 300 929 315 q 1008 256 990 285 q 1028 183 1026 228 l 1028 0 l 579 0 l 579 736 l 450 736 q 378 731 415 736 q 310 710 340 726 q 261 663 281 694 q 242 578 242 632 l 242 0 l 117 0 m 149 1149 l 233 1051 l 588 1051 l 672 1149 l 758 1149 l 732 982 q 733 960 729 971 q 740 938 738 949 l 613 938 l 588 967 l 233 967 l 208 938 l 79 938 q 88 959 85 951 q 89 982 92 967 l 63 1149 l 149 1149 m 903 86 l 903 171 q 894 210 903 196 q 872 231 886 225 q 840 239 858 238 q 801 240 821 240 l 704 240 l 704 86 l 903 86 z "},"ቭ":{"ha":1121,"x_min":88,"x_max":1038,"o":"m 88 322 l 117 506 l 396 506 l 396 578 q 431 730 396 675 q 518 811 467 785 q 627 843 569 838 q 728 849 685 849 l 982 849 l 982 0 l 857 0 l 857 736 l 728 736 q 656 731 693 736 q 590 710 619 726 q 540 663 560 694 q 521 578 521 632 l 521 0 l 396 0 l 396 419 l 258 419 l 175 322 l 88 322 m 428 1149 l 510 1057 l 869 1057 l 950 1149 l 1038 1149 l 1011 982 q 1012 959 1008 969 q 1019 938 1015 949 l 890 938 l 869 964 l 511 964 l 488 938 l 358 938 q 367 959 363 949 q 368 982 371 969 l 340 1149 l 428 1149 z "},"ቮ":{"ha":811,"x_min":58,"x_max":756,"o":"m 113 0 l 113 578 q 148 729 113 675 q 235 810 183 783 q 344 842 286 836 q 446 849 401 849 l 700 849 l 700 313 l 575 313 l 575 736 l 446 736 q 374 731 411 736 q 306 710 336 726 q 257 663 276 694 q 238 578 238 632 l 238 0 l 113 0 m 144 1149 l 229 1051 l 583 1051 l 668 1149 l 756 1149 l 728 981 q 728 959 725 969 q 736 938 732 949 l 608 938 l 583 967 l 229 967 l 204 938 l 75 938 q 83 958 79 949 q 85 981 88 968 l 58 1149 l 144 1149 z "},"ቯ":{"ha":1076,"x_min":65,"x_max":988,"o":"m 119 314 l 119 578 q 155 730 119 675 q 242 811 190 785 q 351 843 293 838 q 451 849 408 849 l 707 849 l 707 86 l 958 86 l 988 -94 l 900 -94 l 815 0 l 464 0 l 379 -94 l 293 -94 l 322 86 l 582 86 l 582 736 l 451 736 q 380 731 417 736 q 313 710 343 726 q 263 663 282 694 q 244 578 244 632 l 244 314 l 119 314 m 150 1149 l 235 1051 l 589 1051 l 674 1149 l 761 1149 l 733 981 q 735 959 731 969 q 743 938 739 949 l 615 938 l 589 967 l 235 967 l 211 938 l 82 938 q 90 959 88 951 q 90 982 93 967 l 65 1149 l 150 1149 z "},"ተ":{"ha":1014,"x_min":89,"x_max":921,"o":"m 115 714 q 115 737 118 726 q 107 758 111 747 l 235 758 l 261 728 l 439 728 l 439 758 l 442 989 l 569 989 l 565 758 l 565 728 l 750 728 l 775 758 l 904 758 q 895 736 899 744 q 894 713 892 728 l 921 547 l 835 547 l 750 643 l 564 643 l 557 0 l 432 0 l 439 643 l 261 643 l 176 547 l 89 547 l 115 714 z "},"ቱ":{"ha":999,"x_min":79,"x_max":913,"o":"m 107 713 q 106 736 110 726 q 97 758 101 746 l 226 758 l 251 728 l 429 728 l 429 758 l 432 989 l 558 989 l 556 758 l 556 728 l 740 728 l 765 758 l 894 758 q 887 735 890 747 q 886 713 883 724 l 913 547 l 825 547 l 740 643 l 556 643 l 550 343 l 826 343 l 856 163 l 768 163 l 683 260 l 550 260 l 547 0 l 422 0 l 429 633 l 429 643 l 251 643 l 167 547 l 79 547 l 107 713 z "},"ቲ":{"ha":1000,"x_min":88,"x_max":919,"o":"m 114 714 q 113 736 114 729 q 106 758 111 743 l 233 758 l 257 728 l 438 728 l 438 758 l 440 989 l 567 989 l 563 758 l 563 728 l 747 728 l 774 758 l 901 758 q 892 736 896 746 q 892 713 889 726 l 919 547 l 832 547 l 747 643 l 561 643 l 561 547 l 560 86 l 693 86 l 719 114 l 847 114 q 838 94 840 103 q 838 71 835 85 l 865 -96 l 779 -96 l 694 0 l 435 0 l 436 547 l 436 643 l 257 643 l 174 547 l 88 547 l 114 714 z "},"ታ":{"ha":1011,"x_min":86,"x_max":918,"o":"m 86 -94 l 114 86 l 336 86 q 385 96 368 86 q 412 124 403 106 q 424 169 421 142 q 431 231 428 196 l 435 643 l 258 643 l 174 547 l 86 547 l 113 713 q 112 735 115 725 q 104 758 108 746 l 232 758 l 258 728 l 436 728 l 436 758 l 439 989 l 565 989 l 561 758 l 561 728 l 747 728 l 772 758 l 901 758 q 892 736 896 744 q 892 713 889 728 l 918 547 l 832 547 l 747 643 l 560 643 l 556 247 q 544 147 554 192 q 510 69 533 101 q 449 19 486 38 q 354 1 411 1 l 258 1 l 174 -94 l 86 -94 z "},"ቴ":{"ha":811,"x_min":-25,"x_max":807,"o":"m 0 713 q -1 736 3 725 q -7 758 -4 747 l 121 758 l 144 728 l 325 728 l 326 758 l 328 989 l 454 989 l 451 758 l 451 728 l 636 728 l 661 758 l 789 758 q 781 736 786 747 q 779 713 776 725 l 807 547 l 721 547 l 636 643 l 449 643 l 446 326 l 528 326 q 617 321 575 326 q 689 300 658 315 q 738 256 719 285 q 758 183 757 228 l 758 0 l 318 0 l 324 643 l 144 643 l 61 547 l -25 547 l 0 713 m 633 86 l 633 171 q 625 208 633 194 q 603 228 617 221 q 570 238 589 236 q 532 240 551 240 l 444 240 l 444 86 l 633 86 z "},"ት":{"ha":989,"x_min":68,"x_max":900,"o":"m 93 615 q 93 638 96 631 q 85 660 90 646 l 214 660 l 238 632 l 421 632 l 421 660 l 424 807 l 176 807 l 176 1050 l 301 1050 l 303 892 l 550 892 l 547 660 l 547 632 l 728 632 l 754 660 l 882 660 q 873 639 876 649 q 872 617 869 629 l 900 449 l 813 449 l 728 546 l 547 546 l 539 0 l 415 0 l 421 546 l 238 546 l 154 449 l 68 449 l 93 615 z "},"ቶ":{"ha":1024,"x_min":88,"x_max":919,"o":"m 113 586 q 113 610 115 601 q 106 632 110 618 l 233 632 l 257 601 l 438 601 l 439 632 l 439 757 l 351 899 l 351 1050 l 532 1050 q 626 1047 581 1050 q 706 1033 671 1044 q 763 996 742 1021 q 783 926 783 971 l 783 754 l 564 754 l 564 632 l 563 601 l 747 601 l 774 632 l 901 632 q 892 610 896 619 q 892 586 889 600 l 919 421 l 832 421 l 747 515 l 563 515 l 563 421 l 560 0 l 435 0 l 438 421 l 438 515 l 257 515 l 174 421 l 88 421 l 113 586 m 476 967 l 476 917 l 526 840 l 658 840 l 658 924 q 647 949 658 940 q 617 961 635 957 q 578 966 600 965 q 535 967 556 967 l 476 967 z "},"ቷ":{"ha":1069,"x_min":124,"x_max":957,"o":"m 151 713 q 150 735 154 726 q 142 757 146 744 l 271 757 l 296 728 l 478 728 l 478 757 l 481 989 l 604 989 l 601 757 l 601 728 l 785 728 l 810 757 l 939 757 q 931 735 935 746 q 931 713 928 724 l 957 546 l 869 546 l 785 642 l 601 642 l 593 86 l 844 86 l 872 -96 l 786 -96 l 703 0 l 360 0 l 276 -96 l 190 -96 l 218 86 l 469 86 l 476 642 l 296 642 l 211 546 l 124 546 l 151 713 z "},"ቸ":{"ha":1001,"x_min":75,"x_max":918,"o":"m 103 713 q 101 735 106 726 q 93 757 97 744 l 221 757 l 246 728 l 425 728 l 425 757 l 428 935 l 428 963 l 256 963 l 232 935 l 104 935 q 111 956 107 946 q 113 978 115 967 l 86 1146 l 171 1146 l 256 1049 l 747 1049 l 832 1146 l 918 1146 l 890 978 q 891 956 888 965 q 900 935 894 946 l 771 935 l 747 963 l 554 963 l 554 935 l 551 757 l 551 728 l 735 728 l 761 757 l 889 757 q 881 735 885 746 q 879 713 876 725 l 907 546 l 819 546 l 735 642 l 549 642 l 542 0 l 417 0 l 424 642 l 246 642 l 161 546 l 75 546 l 103 713 z "},"ቹ":{"ha":1010,"x_min":74,"x_max":917,"o":"m 101 713 q 100 735 104 726 q 92 757 96 744 l 219 757 l 246 728 l 424 728 l 424 757 l 426 935 l 426 963 l 256 963 l 231 935 l 103 935 q 110 956 107 946 q 111 978 114 967 l 85 1146 l 172 1146 l 256 1049 l 746 1049 l 831 1146 l 917 1146 l 890 978 q 890 956 888 964 q 900 935 893 947 l 769 935 l 746 963 l 553 963 l 553 935 l 550 757 l 550 728 l 735 728 l 760 757 l 889 757 q 881 735 885 744 q 881 713 876 725 l 906 546 l 819 546 l 735 642 l 547 642 l 544 343 l 821 343 l 850 161 l 763 161 l 678 258 l 543 258 l 540 0 l 415 0 l 422 642 l 246 642 l 161 546 l 74 546 l 101 713 z "},"ቺ":{"ha":1015,"x_min":88,"x_max":919,"o":"m 88 1146 l 174 1146 l 257 1049 l 747 1049 l 832 1146 l 919 1146 l 892 978 q 892 956 889 965 q 901 935 896 946 l 771 935 l 747 963 l 564 963 l 564 935 l 561 757 l 561 728 l 747 728 l 771 757 l 901 757 q 892 735 896 744 q 892 713 889 726 l 919 546 l 832 546 l 747 642 l 561 642 l 554 86 l 693 86 l 719 114 l 847 114 q 838 93 842 103 q 838 71 835 83 l 865 -96 l 778 -96 l 693 0 l 428 0 l 438 642 l 257 642 l 174 546 l 88 546 l 113 713 q 113 735 115 728 q 104 757 110 742 l 233 757 l 257 728 l 438 728 l 438 757 l 440 935 l 440 963 l 257 963 l 233 935 l 104 935 q 112 956 108 947 q 113 978 115 964 l 88 1146 z "},"ቻ":{"ha":1058,"x_min":106,"x_max":944,"o":"m 106 546 l 132 713 q 131 735 135 725 q 124 757 128 746 l 251 757 l 276 728 l 464 728 l 464 757 l 467 935 l 467 963 l 283 963 l 258 935 l 131 935 q 139 956 135 946 q 140 978 143 967 l 113 1146 l 199 1146 l 283 1049 l 774 1049 l 858 1146 l 944 1146 l 918 978 q 919 956 915 968 q 926 935 924 943 l 799 935 l 774 963 l 592 963 l 592 935 l 589 757 l 589 728 l 767 728 l 790 757 l 921 757 q 911 735 914 743 q 911 713 908 728 l 938 546 l 851 546 l 767 642 l 588 642 l 582 247 q 563 126 581 174 q 518 50 546 78 q 453 11 490 22 q 376 0 417 0 l 283 0 l 199 -96 l 113 -96 l 142 86 l 363 86 q 413 95 394 86 q 440 123 431 104 q 453 169 450 142 q 458 231 457 196 l 463 642 l 276 642 l 193 546 l 106 546 z "},"ቼ":{"ha":1039,"x_min":99,"x_max":932,"o":"m 124 713 q 123 736 126 725 q 117 758 119 747 l 244 758 l 268 728 l 449 728 l 449 758 l 451 935 l 451 963 l 271 963 l 246 935 l 118 935 q 126 956 121 946 q 128 978 131 967 l 100 1146 l 186 1146 l 271 1049 l 761 1049 l 846 1146 l 932 1146 l 906 978 q 907 956 903 968 q 914 935 911 943 l 786 935 l 761 963 l 578 963 l 576 935 l 574 758 l 574 728 l 760 728 l 785 758 l 913 758 q 905 736 910 747 q 903 713 900 725 l 931 547 l 844 547 l 760 643 l 572 643 l 569 326 l 651 326 q 740 321 699 326 q 813 300 782 315 q 862 256 843 285 q 882 183 881 228 l 882 0 l 442 0 l 447 643 l 268 643 l 185 547 l 99 547 l 124 713 m 568 240 l 568 86 l 757 86 l 757 171 q 749 208 757 194 q 726 228 740 221 q 694 238 713 236 q 656 240 675 240 l 568 240 z "},"ች":{"ha":1289,"x_min":92,"x_max":1176,"o":"m 92 1146 l 178 1146 l 263 1049 l 751 1049 l 836 1146 l 924 1146 l 897 978 q 898 956 894 967 q 906 935 901 946 l 776 935 l 751 963 l 568 963 l 568 935 l 569 826 l 829 826 l 826 631 l 826 601 l 1007 601 l 1031 631 l 1158 631 q 1151 609 1154 618 q 1150 586 1147 600 l 1176 419 l 1092 419 l 1007 515 l 825 515 l 819 0 l 693 0 l 700 515 l 515 515 l 431 419 l 344 419 l 372 586 q 372 609 375 600 q 364 631 368 618 l 492 631 l 515 601 l 701 601 l 701 631 l 703 740 l 444 740 l 444 963 l 263 963 l 238 935 l 108 935 q 117 956 113 946 q 118 978 121 965 l 92 1146 z "},"ቾ":{"ha":1113,"x_min":108,"x_max":1011,"o":"m 133 586 q 133 610 136 601 q 126 632 131 618 l 254 632 l 278 601 l 458 601 l 460 632 l 460 757 l 372 899 l 372 967 l 339 967 l 314 939 l 186 939 l 192 954 q 194 982 197 967 l 168 1150 l 256 1150 l 339 1053 l 840 1053 l 925 1150 l 1011 1150 l 985 982 q 988 954 982 967 l 994 939 l 864 939 l 840 967 l 799 967 q 802 953 801 960 q 804 939 803 946 l 804 754 l 585 754 l 585 632 l 583 601 l 768 601 l 794 632 l 922 632 q 913 610 917 619 q 913 586 910 600 l 940 421 l 853 421 l 768 515 l 583 515 l 583 421 l 581 0 l 456 0 l 458 421 l 458 515 l 278 515 l 194 421 l 108 421 l 133 586 m 497 967 l 497 917 l 547 840 l 679 840 l 679 924 q 675 939 679 933 q 636 963 665 958 q 575 967 607 967 l 497 967 z "},"ቿ":{"ha":1042,"x_min":99,"x_max":943,"o":"m 99 546 l 126 713 q 126 736 129 726 q 117 757 122 746 l 246 757 l 271 728 l 450 728 l 450 757 l 453 935 l 453 963 l 281 963 l 257 935 l 128 935 q 135 956 132 946 q 136 978 139 967 l 110 1146 l 197 1146 l 281 1049 l 771 1049 l 856 1146 l 943 1146 l 915 978 q 916 956 913 965 q 925 935 919 946 l 794 935 l 771 963 l 578 963 l 578 935 l 575 757 l 575 728 l 761 728 l 785 757 l 914 757 q 906 735 910 746 q 906 713 903 725 l 932 546 l 844 546 l 761 642 l 575 642 l 567 86 l 822 86 l 853 -96 l 765 -96 l 681 0 l 340 0 l 256 -96 l 168 -96 l 199 86 l 443 86 l 450 642 l 271 642 l 186 546 l 99 546 z "},"ኀ":{"ha":899,"x_min":101,"x_max":789,"o":"m 789 729 l 722 0 l 600 0 l 661 650 l 421 665 l 418 803 l 275 803 l 190 708 l 101 708 l 133 889 l 417 889 l 414 989 l 540 989 l 543 744 l 789 729 z "},"ኁ":{"ha":1199,"x_min":103,"x_max":1071,"o":"m 1071 321 l 983 321 l 900 418 l 758 418 l 721 0 l 597 0 l 660 650 l 419 665 l 415 803 l 272 803 l 189 708 l 103 708 l 131 889 l 414 889 l 411 989 l 536 989 l 540 744 l 786 729 l 767 501 l 1043 501 l 1071 321 z "},"ኂ":{"ha":1144,"x_min":94,"x_max":1063,"o":"m 1063 -96 l 975 -96 l 890 0 l 592 0 l 654 650 l 413 665 l 410 803 l 267 803 l 182 708 l 94 708 l 125 889 l 408 889 l 406 989 l 529 989 l 533 744 l 781 729 l 722 86 l 890 86 l 915 114 l 1044 114 q 1037 93 1040 103 q 1036 71 1033 83 l 1063 -96 z "},"ኃ":{"ha":882,"x_min":82,"x_max":793,"o":"m 746 208 q 676 51 735 103 q 515 0 618 0 l 254 0 l 169 -96 l 82 -96 l 113 86 l 411 86 q 487 88 450 86 q 553 103 524 90 q 602 142 583 115 q 625 217 621 168 l 665 650 l 425 665 l 422 803 l 279 803 l 194 708 l 107 708 l 136 889 l 419 889 l 418 989 l 542 989 l 544 744 l 793 729 l 746 208 z "},"ኄ":{"ha":1142,"x_min":103,"x_max":1069,"o":"m 601 0 l 661 650 l 421 665 l 418 803 l 275 803 l 190 708 l 103 708 l 132 889 l 415 889 l 414 989 l 538 989 l 540 744 l 789 729 l 753 324 l 840 324 q 930 318 889 324 q 1001 297 971 313 q 1050 254 1032 282 q 1069 182 1068 226 l 1069 0 l 601 0 m 731 86 l 944 86 l 944 169 q 936 210 944 196 q 914 231 928 224 q 882 239 900 238 q 843 240 864 240 l 744 240 l 731 86 z "},"ኅ":{"ha":792,"x_min":67,"x_max":761,"o":"m 761 729 l 693 0 l 572 0 l 632 650 l 393 665 l 390 803 q 309 783 340 803 q 257 730 278 763 q 222 658 236 697 q 192 579 208 618 l 67 597 l 83 635 q 131 738 104 692 q 192 818 157 785 q 276 870 228 851 q 388 889 324 889 l 386 989 l 510 989 l 514 744 l 761 729 z "},"ኆ":{"ha":1181,"x_min":117,"x_max":1090,"o":"m 549 458 l 899 458 l 899 0 l 774 0 l 774 346 l 424 346 l 424 608 l 286 608 l 203 513 l 117 513 l 144 694 l 426 694 q 478 840 439 783 q 569 931 518 897 q 675 976 621 964 q 769 989 729 989 l 857 989 q 948 986 906 989 q 1022 971 990 983 q 1072 933 1054 958 q 1090 864 1090 908 l 1090 606 l 724 606 l 724 882 q 654 867 686 879 q 599 826 622 854 q 562 751 575 799 q 549 631 549 704 l 549 458 m 835 692 l 965 692 l 965 828 q 956 869 965 854 q 933 891 947 883 q 899 901 918 899 q 860 903 881 903 l 835 903 l 835 692 z "},"ኇ":{"ha":1151,"x_min":111,"x_max":1085,"o":"m 139 694 l 421 694 q 473 840 433 783 q 564 931 513 897 q 669 976 615 964 q 764 989 724 989 l 851 989 q 942 986 900 989 q 1017 971 985 983 q 1067 933 1049 958 q 1085 864 1085 908 l 1085 606 l 718 606 l 718 882 q 649 867 681 879 q 593 826 617 854 q 556 751 569 799 q 543 631 543 704 l 543 458 l 893 458 l 893 0 l 650 0 l 567 -96 l 481 -96 l 508 86 l 768 86 l 768 346 l 418 346 l 418 608 l 281 608 l 197 513 l 111 513 l 139 694 m 960 692 l 960 828 q 951 869 960 854 q 927 891 942 883 q 894 901 913 899 q 854 903 875 903 l 829 903 l 829 692 l 960 692 z "},"ኈ":{"ha":1249,"x_min":93,"x_max":1193,"o":"m 124 889 l 407 889 l 403 989 l 528 989 l 531 744 l 779 729 l 761 533 l 963 533 q 1051 528 1010 533 q 1124 507 1093 522 q 1173 464 1154 492 q 1193 390 1192 436 l 1193 208 l 831 208 l 831 447 l 753 447 l 713 0 l 589 0 l 651 650 l 411 665 l 408 803 l 265 803 l 181 708 l 93 708 l 124 889 m 1068 294 l 1068 376 q 1060 417 1068 403 q 1038 438 1051 432 q 1005 446 1024 444 q 965 447 986 447 l 942 447 l 942 294 l 1068 294 z "},"ኊ":{"ha":1317,"x_min":108,"x_max":1192,"o":"m 138 889 l 422 889 l 419 989 l 544 989 l 547 744 l 794 729 l 774 501 l 883 501 l 883 615 l 994 615 l 994 385 l 1164 385 l 1192 203 l 1104 203 l 1021 300 l 883 300 l 883 418 l 765 418 l 728 0 l 606 0 l 667 650 l 426 665 l 424 803 l 281 803 l 196 708 l 108 708 l 138 889 z "},"ኋ":{"ha":1171,"x_min":132,"x_max":1049,"o":"m 132 739 l 161 919 l 444 919 l 442 1019 l 567 1019 l 569 775 l 818 760 l 781 343 l 1049 343 l 1049 0 l 924 0 l 924 258 l 406 258 l 322 161 l 236 161 l 264 343 l 658 343 l 690 679 l 450 694 l 447 833 l 303 833 l 218 739 l 132 739 z "},"ኌ":{"ha":1164,"x_min":93,"x_max":1060,"o":"m 93 708 l 122 889 l 407 889 l 404 989 l 529 989 l 532 744 l 779 729 l 743 326 l 829 326 q 918 321 876 326 q 990 299 960 315 q 1040 255 1021 283 q 1060 182 1058 226 l 1060 0 l 514 0 l 429 -96 l 343 -96 l 372 86 l 599 86 l 653 650 l 411 665 l 408 803 l 265 803 l 181 708 l 93 708 m 721 86 l 935 86 l 935 169 q 926 210 935 196 q 904 231 918 224 q 872 239 890 238 q 833 240 854 240 l 735 240 l 721 86 z "},"ኍ":{"ha":1285,"x_min":100,"x_max":1178,"o":"m 129 889 l 413 889 l 411 989 l 535 989 l 538 744 l 786 729 l 765 494 l 869 494 l 869 606 l 981 606 l 981 494 l 1150 494 l 1178 314 l 1090 314 l 1007 410 l 756 410 l 719 0 l 599 0 l 658 650 l 418 665 l 415 803 l 272 803 l 188 708 l 100 708 l 129 889 z "},"ነ":{"ha":576,"x_min":106,"x_max":481,"o":"m 481 729 l 414 0 l 292 0 l 353 650 l 113 665 l 106 989 l 231 989 l 233 744 l 481 729 z "},"ኑ":{"ha":900,"x_min":128,"x_max":789,"o":"m 789 321 l 701 321 l 617 418 l 475 418 l 438 0 l 318 0 l 381 650 l 136 665 l 128 989 l 254 989 l 257 744 l 503 729 l 482 501 l 758 501 l 789 321 z "},"ኒ":{"ha":888,"x_min":125,"x_max":781,"o":"m 781 -96 l 694 -96 l 610 0 l 313 0 l 372 650 l 132 665 l 125 989 l 250 989 l 253 744 l 500 729 l 442 86 l 610 86 l 635 114 l 763 114 q 755 92 758 101 q 754 71 751 83 l 781 -96 z "},"ና":{"ha":764,"x_min":103,"x_max":681,"o":"m 431 903 q 352 891 389 903 q 288 852 315 879 q 244 781 260 825 q 228 672 228 736 l 228 458 l 576 458 l 576 0 l 451 0 l 451 346 l 103 346 l 103 663 q 131 826 103 763 q 208 926 160 889 q 318 976 256 963 q 449 989 381 989 l 653 989 l 681 808 l 593 808 l 508 903 l 431 903 z "},"ኔ":{"ha":800,"x_min":83,"x_max":740,"o":"m 271 0 l 331 650 l 92 663 l 83 989 l 204 989 l 210 744 l 460 729 l 422 324 l 510 324 q 599 318 558 324 q 671 297 640 313 q 720 254 701 282 q 740 182 739 226 l 740 0 l 271 0 m 400 86 l 617 86 l 615 169 q 594 226 618 213 q 539 239 571 239 q 526 239 532 239 q 513 238 519 239 l 415 238 l 400 86 z "},"ን":{"ha":878,"x_min":79,"x_max":790,"o":"m 790 729 l 724 0 l 601 0 l 661 650 l 414 663 l 408 903 l 250 903 l 167 807 l 79 807 l 108 989 l 531 989 l 536 744 l 790 729 z "},"ኖ":{"ha":842,"x_min":94,"x_max":758,"o":"m 94 663 q 123 826 94 763 q 199 926 151 889 q 310 976 247 963 q 440 989 372 989 l 569 989 q 644 986 610 989 q 703 973 678 983 q 742 940 728 963 q 758 878 757 918 l 758 606 l 389 606 l 389 901 q 323 882 354 897 q 269 840 292 867 q 233 771 246 813 q 219 672 219 729 l 219 458 l 568 458 l 568 0 l 443 0 l 443 346 l 94 346 l 94 663 m 507 903 l 507 692 l 633 692 l 633 828 q 625 869 633 854 q 603 892 617 885 q 572 901 590 899 q 532 903 553 903 l 507 903 z "},"ኗ":{"ha":944,"x_min":119,"x_max":868,"o":"m 119 346 l 119 663 q 148 826 119 763 q 224 926 176 889 q 335 976 272 963 q 465 989 397 989 l 669 989 l 697 808 l 610 808 l 525 903 l 447 903 q 369 891 406 903 q 304 852 332 879 q 260 781 276 825 q 244 672 244 738 l 244 458 l 593 458 l 593 86 l 840 86 l 868 -96 l 781 -96 l 697 0 l 356 0 l 272 -96 l 186 -96 l 214 86 l 468 86 l 468 346 l 119 346 z "},"ኘ":{"ha":874,"x_min":88,"x_max":774,"o":"m 176 1085 l 261 989 l 601 989 l 686 1085 l 774 1085 l 746 918 q 747 894 743 904 q 756 874 750 885 l 626 874 l 601 903 l 503 903 l 503 874 l 504 744 l 751 729 l 685 0 l 563 0 l 624 650 l 383 665 l 378 874 l 378 903 l 261 903 l 238 874 l 107 874 q 117 895 114 888 q 117 918 119 903 l 88 1085 l 176 1085 z "},"ኙ":{"ha":1172,"x_min":114,"x_max":1054,"o":"m 201 1085 l 286 989 l 626 989 l 711 1085 l 799 1085 l 771 918 q 772 894 768 904 q 781 874 775 885 l 651 874 l 626 903 l 521 903 l 521 874 l 522 744 l 768 729 l 747 501 l 1024 501 l 1054 321 l 967 321 l 882 418 l 740 418 l 703 0 l 583 0 l 646 650 l 401 665 l 396 874 l 396 903 l 286 903 l 263 874 l 132 874 q 142 895 139 888 q 142 918 144 903 l 114 1085 l 201 1085 z "},"ኚ":{"ha":1132,"x_min":111,"x_max":1068,"o":"m 111 1085 l 199 1085 l 283 989 l 624 989 l 708 1085 l 796 1085 l 768 918 q 769 894 765 904 q 778 874 772 885 l 649 874 l 624 903 l 525 903 l 525 874 l 526 744 l 774 729 l 715 86 l 896 86 l 919 114 l 1050 114 q 1040 94 1043 103 q 1040 71 1038 85 l 1068 -96 l 981 -96 l 896 0 l 585 0 l 646 650 l 406 665 l 400 874 l 400 903 l 283 903 l 260 874 l 129 874 q 139 895 136 888 q 139 918 142 903 l 111 1085 z "},"ኛ":{"ha":900,"x_min":104,"x_max":786,"o":"m 104 1083 l 190 1083 l 274 988 l 615 988 l 699 1083 l 786 1083 l 760 917 q 763 888 758 906 l 768 872 l 639 872 l 615 901 l 508 901 l 508 757 l 674 757 l 701 576 l 614 576 l 529 671 l 451 671 q 373 659 410 671 q 308 620 336 647 q 265 549 281 593 q 249 440 249 506 l 249 342 l 597 342 l 597 0 l 472 0 l 472 229 l 124 229 l 124 431 q 144 572 124 514 q 199 668 164 631 q 282 725 235 706 q 383 751 329 744 l 383 901 l 274 901 l 250 872 l 121 872 l 126 888 q 129 917 132 897 l 104 1083 z "},"ኜ":{"ha":1163,"x_min":114,"x_max":1054,"o":"m 114 1085 l 203 1085 l 288 989 l 628 989 l 713 1085 l 800 1085 l 774 918 q 774 896 769 906 q 782 874 778 886 l 653 874 l 628 903 l 519 903 l 524 744 l 774 729 l 736 324 l 824 324 q 913 318 871 324 q 985 297 954 313 q 1034 254 1015 282 q 1054 182 1053 226 l 1054 0 l 585 0 l 644 650 l 406 663 l 400 874 l 400 903 l 288 903 l 264 874 l 133 874 q 142 894 139 885 q 143 918 146 904 l 114 1085 m 931 86 l 929 169 q 908 226 932 213 q 853 239 885 239 q 840 239 846 239 q 826 238 833 239 l 729 238 l 714 86 l 931 86 z "},"ኝ":{"ha":979,"x_min":88,"x_max":886,"o":"m 88 1083 l 175 1083 l 260 988 l 601 988 l 686 1083 l 772 1083 l 744 917 q 746 894 742 904 q 754 872 750 883 l 625 872 l 601 901 l 494 901 l 494 743 l 632 743 l 635 499 l 886 483 l 843 0 l 719 0 l 758 404 l 514 419 l 508 657 l 347 657 l 263 563 l 176 563 l 206 743 l 369 743 l 369 901 l 261 901 l 235 872 l 107 872 q 115 894 111 883 q 117 917 119 904 l 88 1083 z "},"ኞ":{"ha":942,"x_min":154,"x_max":838,"o":"m 154 204 l 154 425 q 177 574 154 514 q 239 671 200 633 q 331 726 278 708 q 442 749 383 744 l 442 901 l 325 901 l 301 872 l 172 872 q 181 894 178 886 q 181 917 183 901 l 156 1083 l 242 1083 l 325 988 l 667 988 l 750 1083 l 838 1083 l 811 917 q 812 894 808 904 q 819 872 815 883 l 690 872 l 667 901 l 553 901 l 553 751 l 629 751 q 703 749 669 751 q 763 735 738 746 q 802 703 788 725 q 818 640 817 681 l 818 424 l 449 424 l 449 664 q 383 645 414 660 q 328 603 351 631 q 292 533 306 575 q 279 435 279 492 l 279 317 l 628 317 l 628 0 l 503 0 l 503 204 l 154 204 m 567 510 l 693 510 l 693 590 q 685 632 693 617 q 663 654 676 647 q 631 663 650 661 q 592 665 613 665 l 567 665 l 567 510 z "},"ኟ":{"ha":960,"x_min":99,"x_max":874,"o":"m 99 1083 l 185 1083 l 268 988 l 610 988 l 693 1083 l 781 1083 l 754 917 q 757 888 753 906 l 763 872 l 633 872 l 610 901 l 503 901 l 503 757 l 668 757 l 696 576 l 608 576 l 524 671 l 446 671 q 367 659 404 671 q 303 620 331 647 q 259 549 275 593 q 243 440 243 506 l 243 342 l 592 342 l 592 85 l 843 85 l 874 -96 l 786 -96 l 701 0 l 361 0 l 276 -96 l 190 -96 l 219 85 l 467 85 l 467 229 l 118 229 l 118 431 q 138 572 118 514 q 194 668 158 631 q 276 725 229 706 q 378 751 324 744 l 378 901 l 268 901 l 244 872 l 115 872 l 121 888 q 124 917 126 897 l 99 1083 z "},"አ":{"ha":832,"x_min":92,"x_max":785,"o":"m 214 990 l 219 778 l 442 754 l 390 558 l 539 558 q 619 541 589 558 q 666 493 649 524 q 693 424 683 463 q 713 340 703 385 l 785 0 l 663 0 l 592 325 q 581 376 585 353 q 570 415 576 399 q 552 439 564 431 q 517 447 540 447 l 361 447 l 246 0 l 121 0 l 297 676 l 97 697 l 92 990 l 214 990 z "},"ኡ":{"ha":1125,"x_min":96,"x_max":1028,"o":"m 96 990 l 218 990 l 224 778 l 446 754 l 394 558 l 543 558 q 622 541 592 558 q 669 494 651 524 q 697 425 686 464 q 717 343 707 386 l 1000 343 l 1028 163 l 942 163 l 858 260 l 733 260 l 789 0 l 667 0 l 596 325 q 585 376 589 353 q 574 415 581 399 q 556 439 568 431 q 521 447 544 447 l 365 447 l 250 0 l 125 0 l 301 676 l 101 697 l 96 990 z "},"ኢ":{"ha":1190,"x_min":97,"x_max":1128,"o":"m 219 990 l 225 778 l 447 754 l 396 558 l 544 558 q 624 541 594 558 q 672 493 654 524 q 699 424 689 463 q 718 340 708 385 l 772 85 l 957 85 l 982 114 l 1111 114 q 1103 93 1106 101 q 1103 71 1100 85 l 1128 -96 l 1042 -96 l 957 0 l 668 0 l 597 325 q 586 376 590 353 q 576 415 582 399 q 558 439 569 431 q 522 447 546 447 l 367 447 l 251 0 l 126 0 l 303 676 l 103 697 l 97 990 l 219 990 z "},"ኣ":{"ha":883,"x_min":71,"x_max":764,"o":"m 764 0 l 642 0 l 571 325 q 560 376 564 353 q 550 415 557 399 q 531 439 543 431 q 496 447 519 447 l 340 447 l 272 181 l 147 181 l 276 676 l 76 697 l 71 990 l 193 990 l 199 778 l 421 754 l 369 558 l 518 558 q 597 541 568 558 q 644 493 626 524 q 672 424 663 463 q 692 340 682 385 l 764 0 z "},"ኤ":{"ha":1142,"x_min":97,"x_max":1058,"o":"m 97 990 l 219 990 l 225 778 l 447 754 l 396 558 l 544 558 q 624 541 594 558 q 672 493 654 524 q 699 424 689 463 q 718 340 708 385 l 722 324 l 829 324 q 919 318 878 324 q 990 297 960 313 q 1039 254 1021 282 q 1058 182 1057 226 l 1058 0 l 668 0 l 597 325 q 586 376 590 353 q 576 415 582 399 q 558 439 569 431 q 522 447 546 447 l 367 447 l 251 0 l 126 0 l 303 676 l 103 697 l 97 990 m 772 86 l 933 86 l 933 169 q 925 207 933 193 q 903 228 917 221 q 870 236 889 235 q 832 238 851 238 l 740 238 l 772 86 z "},"እ":{"ha":874,"x_min":79,"x_max":789,"o":"m 79 990 l 201 990 l 204 844 l 349 828 l 315 703 l 429 690 l 388 557 l 542 557 q 620 540 590 557 q 668 492 650 522 q 697 424 686 463 q 717 340 707 385 l 789 0 l 665 0 l 596 325 q 585 376 589 353 q 574 415 581 399 q 556 439 568 431 q 521 447 544 447 l 365 447 l 249 0 l 124 0 l 285 614 l 171 625 l 204 751 l 83 765 l 79 990 z "},"ኦ":{"ha":839,"x_min":92,"x_max":746,"o":"m 746 181 l 624 181 l 592 325 q 581 376 585 353 q 571 415 578 399 q 552 439 564 431 q 517 447 540 447 l 361 447 l 246 0 l 121 0 l 297 676 l 97 697 l 92 990 l 214 990 l 219 778 l 442 754 l 390 558 l 539 558 q 618 541 589 558 q 665 493 647 524 q 693 424 683 463 q 713 340 703 385 l 746 181 z "},"ኧ":{"ha":1182,"x_min":126,"x_max":1090,"o":"m 214 1086 l 297 990 l 639 990 l 722 1086 l 810 1086 l 783 919 q 784 897 781 907 q 792 875 788 886 l 663 875 l 639 906 l 522 906 l 522 875 l 525 778 l 747 754 l 696 558 l 844 558 q 924 541 894 558 q 972 493 954 524 q 999 424 989 463 q 1018 340 1008 385 l 1090 0 l 968 0 l 897 325 q 886 376 890 353 q 876 415 882 399 q 858 439 869 431 q 822 447 846 447 l 667 447 l 551 0 l 426 0 l 603 676 l 403 697 l 400 875 l 399 906 l 297 906 l 274 875 l 144 875 q 153 898 150 890 q 153 921 156 906 l 126 1086 l 214 1086 z "},"ከ":{"ha":953,"x_min":85,"x_max":828,"o":"m 85 669 l 89 1049 l 213 1049 l 213 758 l 293 754 q 357 805 321 786 q 431 833 393 824 q 506 845 468 843 q 574 847 543 847 l 828 847 l 828 0 l 703 0 l 703 733 l 574 733 q 501 729 538 733 q 433 709 464 725 q 384 662 403 693 q 365 576 365 631 l 365 0 l 240 0 l 240 576 q 242 623 240 600 q 251 665 244 646 q 211 666 235 665 q 164 667 188 667 q 119 669 140 668 q 85 669 97 669 z "},"ኩ":{"ha":1261,"x_min":97,"x_max":1153,"o":"m 103 1049 l 225 1049 l 225 758 l 307 754 q 371 805 335 786 q 444 833 407 824 q 519 845 482 843 q 586 847 556 847 l 840 847 l 840 503 l 1124 503 l 1153 322 l 1065 322 l 981 418 l 840 418 l 840 0 l 715 0 l 715 733 l 586 733 q 514 729 551 733 q 447 709 476 725 q 397 662 417 693 q 378 576 378 631 l 378 0 l 253 0 l 253 576 q 256 623 253 600 q 263 665 258 646 q 224 666 247 665 q 177 667 201 667 q 131 669 153 668 q 97 669 110 669 l 103 1049 z "},"ኪ":{"ha":1222,"x_min":97,"x_max":1157,"o":"m 97 671 l 103 1049 l 225 1049 l 225 758 l 306 754 q 369 806 333 788 q 442 834 404 825 q 518 845 481 843 q 586 847 556 847 l 840 847 l 840 86 l 988 86 l 1011 114 l 1140 114 q 1131 92 1133 100 q 1132 69 1129 85 l 1157 -96 l 1071 -96 l 988 0 l 715 0 l 715 733 l 586 733 q 514 729 551 733 q 447 709 476 725 q 397 662 417 693 q 378 576 378 631 l 378 0 l 253 0 l 253 576 q 255 624 253 601 q 264 667 257 646 q 224 667 247 667 q 176 669 200 668 q 131 670 153 669 q 97 671 110 671 z "},"ካ":{"ha":972,"x_min":119,"x_max":863,"o":"m 863 847 l 863 0 l 738 0 l 738 733 l 608 733 q 535 729 572 733 q 468 709 499 725 q 419 662 438 693 q 400 576 400 631 l 400 313 l 275 313 l 275 576 q 277 624 275 601 q 286 667 279 646 q 246 667 269 667 q 199 669 222 668 q 153 670 175 669 q 119 671 132 671 l 124 1049 l 247 1049 l 247 758 l 328 754 q 391 806 356 788 q 465 834 426 825 q 540 845 503 843 q 608 847 578 847 l 863 847 z "},"ኬ":{"ha":1244,"x_min":97,"x_max":1164,"o":"m 97 671 l 104 1049 l 226 1049 l 226 758 l 307 754 q 369 806 333 788 q 442 834 404 825 q 518 845 481 843 q 586 847 556 847 l 840 847 l 840 326 l 933 326 q 1024 321 982 326 q 1096 299 1065 315 q 1144 255 1126 283 q 1164 182 1163 226 l 1164 0 l 715 0 l 715 733 l 586 733 q 515 729 551 733 q 447 709 478 725 q 397 662 417 693 q 378 576 378 631 l 378 0 l 253 0 l 253 576 q 256 624 253 601 q 264 667 258 646 q 225 667 249 667 q 177 669 201 668 q 131 670 153 669 q 97 671 110 671 m 840 240 l 840 86 l 1039 86 l 1039 169 q 1031 209 1039 194 q 1008 231 1022 224 q 976 239 994 238 q 938 240 957 240 l 840 240 z "},"ክ":{"ha":928,"x_min":85,"x_max":828,"o":"m 85 671 l 92 1049 l 214 1049 l 214 758 l 294 754 q 356 806 321 788 q 430 834 392 825 q 506 845 468 843 q 574 847 543 847 l 828 847 l 828 0 l 701 0 l 701 733 l 574 733 q 501 729 538 733 q 433 709 464 725 q 384 662 403 693 q 365 576 365 631 l 365 479 q 422 508 389 494 q 500 525 456 521 l 500 414 q 444 399 469 410 q 402 368 419 389 q 375 313 385 347 q 365 225 365 278 l 365 0 l 240 0 l 240 225 q 258 354 240 292 q 329 461 276 417 l 240 476 l 240 576 q 243 624 240 601 q 251 667 246 646 q 211 667 235 667 q 164 669 188 668 q 119 670 140 669 q 85 671 97 671 z "},"ኮ":{"ha":924,"x_min":89,"x_max":831,"o":"m 831 847 l 831 313 l 706 313 l 706 733 l 576 733 q 504 729 542 733 q 437 709 467 725 q 388 662 407 693 q 368 576 368 631 l 368 0 l 243 0 l 243 576 q 246 624 243 601 q 253 667 249 646 q 215 667 238 667 q 167 669 192 668 q 122 670 143 669 q 89 671 100 671 l 93 1049 l 217 1049 l 217 758 l 297 754 q 360 806 325 788 q 434 834 396 825 q 509 845 472 843 q 576 847 546 847 l 831 847 z "},"ኯ":{"ha":1082,"x_min":99,"x_max":975,"o":"m 128 343 l 388 343 l 388 576 q 390 624 388 601 q 399 667 392 646 q 358 667 382 667 q 311 669 335 668 q 266 670 288 669 q 232 671 244 671 l 238 1049 l 360 1049 l 360 758 l 440 754 q 503 806 468 788 q 577 834 539 825 q 653 845 615 843 q 721 847 690 847 l 975 847 l 975 313 l 850 313 l 850 733 l 721 733 q 649 729 686 733 q 581 709 611 725 q 532 662 551 693 q 513 576 513 631 l 513 0 l 388 0 l 388 260 l 269 260 l 186 163 l 99 163 l 128 343 z "},"ኰ":{"ha":1329,"x_min":99,"x_max":1275,"o":"m 99 671 l 104 1049 l 226 1049 l 226 758 l 308 754 q 370 806 335 788 q 444 834 406 825 q 519 845 482 843 q 586 847 557 847 l 822 847 l 822 532 l 1057 532 q 1145 526 1106 532 q 1213 506 1185 521 q 1256 462 1240 490 q 1274 389 1272 433 l 1275 207 l 911 207 l 911 446 l 822 446 l 822 0 l 697 0 l 697 733 l 586 733 q 515 729 551 733 q 448 709 478 725 q 399 662 418 693 q 379 576 379 631 l 379 0 l 254 0 l 254 576 q 257 624 254 601 q 264 667 260 646 q 226 667 249 667 q 178 669 203 668 q 133 670 154 669 q 99 671 111 671 m 1153 293 l 1151 375 q 1143 415 1150 401 q 1124 436 1136 429 q 1096 444 1113 443 q 1057 446 1079 446 l 1022 446 l 1022 293 l 1153 293 z "},"ኲ":{"ha":1369,"x_min":99,"x_max":1260,"o":"m 99 671 l 106 1049 l 228 1049 l 228 758 l 308 754 q 370 806 335 788 q 444 834 406 825 q 519 845 482 843 q 588 847 557 847 l 842 847 l 842 503 l 950 503 l 950 617 l 1061 617 l 1061 386 l 1229 386 l 1260 206 l 1172 206 l 1088 301 l 950 301 l 950 413 l 842 413 l 842 0 l 717 0 l 717 733 l 588 733 q 515 729 553 733 q 448 709 478 725 q 399 662 418 693 q 379 576 379 631 l 379 0 l 254 0 l 254 576 q 257 624 254 601 q 265 667 260 646 q 225 667 249 667 q 178 669 201 668 q 133 670 154 669 q 99 671 111 671 z "},"ኳ":{"ha":1200,"x_min":96,"x_max":1122,"o":"m 96 671 l 101 1050 l 225 1050 l 225 760 l 306 756 q 369 807 333 789 q 442 834 404 825 q 517 845 481 843 q 583 847 554 847 l 839 847 l 839 86 l 1093 86 l 1122 -94 l 1035 -94 l 950 0 l 596 0 l 511 -94 l 425 -94 l 454 86 l 714 86 l 714 736 l 583 736 q 512 731 549 736 q 445 710 475 726 q 396 662 415 693 q 376 578 376 631 l 376 314 l 251 314 l 251 576 q 254 624 251 601 q 261 667 257 647 q 223 667 246 667 q 176 669 200 668 q 130 670 151 669 q 96 671 108 671 z "},"ኴ":{"ha":1251,"x_min":104,"x_max":1169,"o":"m 104 669 l 108 1049 l 232 1049 l 232 758 l 313 754 q 376 805 340 786 q 450 833 413 824 q 524 845 488 843 q 592 847 561 847 l 847 847 l 847 325 l 939 325 q 1029 319 988 325 q 1101 299 1071 314 q 1150 255 1132 283 q 1169 182 1168 226 l 1169 0 l 624 0 l 540 -96 l 453 -96 l 482 85 l 722 85 l 722 733 l 592 733 q 520 729 557 733 q 453 709 483 725 q 403 662 422 693 q 385 576 385 631 l 385 179 l 260 179 l 260 576 q 269 665 260 631 q 231 666 254 665 q 184 667 208 667 q 138 669 160 668 q 104 669 117 669 m 847 239 l 847 86 l 1044 86 l 1044 169 q 1038 208 1044 194 q 1018 229 1031 222 q 990 238 1006 236 q 954 239 974 239 l 847 239 z "},"ኵ":{"ha":1311,"x_min":99,"x_max":1219,"o":"m 103 1050 l 226 1050 l 226 758 l 308 756 q 370 807 335 789 q 444 834 406 825 q 519 845 482 843 q 588 847 557 847 l 842 847 l 842 713 l 921 713 l 921 825 l 1032 825 l 1032 713 l 1190 713 l 1219 532 l 1132 532 l 1049 626 l 842 626 l 842 0 l 717 0 l 717 733 l 588 733 q 515 729 551 733 q 447 709 478 725 q 398 662 417 693 q 379 576 379 631 l 379 0 l 254 0 l 254 576 q 257 624 254 601 q 264 667 260 646 q 226 667 249 667 q 178 669 203 668 q 133 670 154 669 q 99 671 111 671 l 103 1050 z "},"ኸ":{"ha":1247,"x_min":85,"x_max":1124,"o":"m 85 1146 l 172 1146 l 257 1049 l 632 1049 l 717 1146 l 804 1146 l 778 978 q 779 956 775 967 q 786 935 783 946 l 657 935 l 632 964 l 507 964 l 507 758 l 589 754 q 652 806 617 788 q 725 834 688 825 q 799 845 763 843 q 867 847 836 847 l 1124 847 l 1124 0 l 999 0 l 999 733 l 867 733 q 795 729 832 733 q 728 709 758 725 q 680 662 699 693 q 661 576 661 631 l 661 0 l 536 0 l 536 576 q 546 667 536 629 q 508 667 531 667 q 460 669 485 668 q 415 670 436 669 q 381 671 393 671 l 383 935 l 383 964 l 257 964 l 232 935 l 103 935 q 111 956 107 946 q 113 978 115 965 l 85 1146 z "},"ኹ":{"ha":1540,"x_min":100,"x_max":1447,"o":"m 100 1146 l 185 1146 l 269 1049 l 646 1049 l 729 1146 l 817 1146 l 790 981 q 792 957 788 968 q 799 935 796 946 l 669 935 l 646 964 l 519 964 l 519 758 l 601 754 q 663 806 628 788 q 737 834 699 825 q 813 845 775 843 q 881 847 850 847 l 1135 847 l 1135 503 l 1417 503 l 1447 322 l 1360 322 l 1275 419 l 1135 419 l 1135 0 l 1010 0 l 1010 733 l 881 733 q 808 729 844 733 q 740 709 771 725 q 691 662 710 693 q 672 576 672 631 l 672 0 l 547 0 l 547 576 q 550 624 547 601 q 557 667 553 646 q 519 667 542 667 q 472 669 496 668 q 426 670 447 669 q 392 671 404 671 l 396 935 l 396 964 l 269 964 l 246 935 l 115 935 q 124 956 121 947 q 125 978 128 964 l 100 1146 z "},"ኺ":{"ha":1543,"x_min":85,"x_max":1442,"o":"m 85 1146 l 172 1146 l 256 1049 l 632 1049 l 717 1146 l 803 1146 l 776 981 q 776 956 774 967 q 786 935 779 946 l 656 935 l 632 964 l 508 964 l 508 758 l 590 754 q 652 806 617 788 q 726 834 688 825 q 801 845 764 843 q 869 847 839 847 l 1124 847 l 1124 86 l 1271 86 l 1294 114 l 1424 114 q 1416 93 1419 103 q 1415 71 1413 83 l 1442 -96 l 1354 -96 l 1271 0 l 999 0 l 999 733 l 869 733 q 797 729 835 733 q 730 709 760 725 q 681 662 700 693 q 661 576 661 631 l 661 0 l 536 0 l 536 576 q 539 624 536 601 q 547 667 542 646 q 507 667 531 667 q 460 669 483 668 q 415 670 436 669 q 381 671 393 671 l 386 935 l 386 964 l 256 964 l 231 935 l 103 935 l 108 950 q 111 979 113 968 l 85 1146 z "},"ኻ":{"ha":1242,"x_min":97,"x_max":1138,"o":"m 97 1146 l 185 1146 l 269 1049 l 646 1049 l 731 1146 l 817 1146 l 792 979 q 792 956 788 968 q 799 935 796 944 l 671 935 l 646 964 l 521 964 l 521 758 l 603 754 q 666 806 631 788 q 739 834 701 825 q 813 845 776 843 q 881 847 850 847 l 1138 847 l 1138 0 l 1013 0 l 1013 733 l 881 733 q 809 729 846 733 q 742 709 772 725 q 694 662 713 693 q 675 576 675 631 l 675 313 l 550 313 l 550 576 q 560 667 550 629 q 521 667 544 667 q 473 669 497 668 q 427 670 449 669 q 394 671 406 671 l 397 935 l 397 964 l 269 964 l 244 935 l 117 935 q 124 957 121 949 q 125 981 128 965 l 97 1146 z "},"ኼ":{"ha":1563,"x_min":103,"x_max":1463,"o":"m 103 1146 l 190 1146 l 275 1049 l 651 1049 l 736 1146 l 824 1146 l 796 979 q 797 956 793 965 q 806 935 800 947 l 675 935 l 651 964 l 524 964 l 524 758 l 604 754 q 667 806 632 788 q 741 834 703 825 q 816 845 779 843 q 883 847 853 847 l 1138 847 l 1138 326 l 1232 326 q 1322 321 1281 326 q 1393 299 1363 315 q 1442 255 1424 283 q 1463 182 1460 226 l 1463 0 l 1013 0 l 1013 733 l 883 733 q 812 729 849 733 q 745 709 775 725 q 696 662 715 693 q 676 576 676 631 l 676 0 l 551 0 l 551 576 q 553 624 551 601 q 563 667 556 646 q 522 667 546 667 q 474 669 499 668 q 428 670 450 669 q 396 671 407 671 l 400 935 l 400 964 l 275 964 l 250 935 l 121 935 q 128 956 124 946 q 129 978 132 967 l 103 1146 m 1338 86 l 1338 169 q 1329 208 1338 194 q 1306 229 1321 222 q 1273 238 1292 236 q 1235 240 1254 240 l 1138 240 l 1138 86 l 1338 86 z "},"ኽ":{"ha":1250,"x_min":93,"x_max":1133,"o":"m 93 1147 l 179 1147 l 264 1050 l 640 1050 l 724 1147 l 810 1147 l 785 981 q 785 958 782 965 q 792 936 788 950 l 664 936 l 640 964 l 517 964 l 517 760 l 599 756 q 662 807 626 789 q 735 834 697 825 q 810 845 774 843 q 878 847 847 847 l 1133 847 l 1133 0 l 1008 0 l 1008 736 l 878 736 q 806 731 843 736 q 739 710 769 726 q 690 662 708 693 q 671 576 671 631 l 671 481 q 727 508 694 496 q 804 525 760 521 l 804 415 q 749 401 774 411 q 706 369 724 390 q 680 314 689 349 q 671 225 671 279 l 671 0 l 546 0 l 546 225 q 550 290 546 257 q 564 353 554 322 q 590 413 574 385 q 633 461 607 440 l 546 478 l 546 576 q 556 667 546 632 q 517 667 540 667 q 470 669 494 668 q 424 670 446 669 q 390 671 403 671 l 393 936 l 393 964 l 264 964 l 240 936 l 111 936 q 120 956 117 947 q 121 979 124 965 l 93 1147 z "},"ኾ":{"ha":1244,"x_min":94,"x_max":1133,"o":"m 94 1147 l 182 1147 l 267 1050 l 643 1050 l 728 1147 l 814 1147 l 789 978 q 788 956 786 964 q 797 936 790 949 l 668 936 l 643 964 l 518 964 l 518 760 l 600 756 q 662 807 626 789 q 735 834 697 825 q 811 845 774 843 q 878 847 849 847 l 1133 847 l 1133 313 l 1008 313 l 1008 736 l 878 736 q 806 731 843 736 q 740 710 769 726 q 690 662 710 693 q 671 576 671 631 l 671 0 l 546 0 l 546 576 q 549 624 546 601 q 556 667 551 647 q 517 667 540 667 q 470 669 494 668 q 424 670 446 669 q 390 671 403 671 l 394 936 l 394 964 l 267 964 l 240 936 l 113 936 q 120 958 115 947 q 122 981 125 968 l 94 1147 z "},"ዀ":{"ha":1635,"x_min":92,"x_max":1564,"o":"m 92 1147 l 179 1147 l 264 1050 l 639 1050 l 724 1147 l 811 1147 l 785 978 q 785 957 782 967 q 793 936 789 947 l 664 936 l 639 964 l 515 964 l 515 758 l 597 754 q 659 806 624 788 q 733 834 694 825 q 808 845 771 843 q 875 847 846 847 l 1111 847 l 1111 532 l 1346 532 q 1434 526 1394 532 q 1501 506 1474 521 q 1545 462 1529 490 q 1563 389 1561 433 l 1564 207 l 1200 207 l 1200 446 l 1111 446 l 1111 0 l 986 0 l 986 733 l 875 733 q 803 729 840 733 q 737 709 767 725 q 688 662 707 693 q 668 576 668 631 l 668 0 l 543 0 l 543 576 q 546 624 543 601 q 553 667 549 646 q 515 667 538 667 q 467 669 492 668 q 422 670 443 669 q 388 671 400 671 l 392 936 l 392 964 l 264 964 l 240 936 l 110 936 q 119 956 115 947 q 119 979 122 965 l 92 1147 m 1311 293 l 1442 293 l 1440 375 q 1432 415 1439 401 q 1413 436 1425 429 q 1385 444 1401 443 q 1346 446 1368 446 l 1311 446 l 1311 293 z "},"ዂ":{"ha":1656,"x_min":97,"x_max":1546,"o":"m 183 1146 l 268 1050 l 633 1050 l 717 1146 l 804 1146 l 779 981 q 782 949 775 967 l 786 936 l 658 936 l 633 964 l 511 964 l 511 936 l 510 758 l 603 754 q 666 806 631 788 q 740 834 701 825 q 815 845 778 843 q 882 847 851 847 l 1138 847 l 1138 503 l 1242 503 l 1242 617 l 1353 617 l 1353 386 l 1518 386 l 1546 206 l 1460 206 l 1376 301 l 1242 301 l 1242 418 l 1138 418 l 1138 0 l 1013 0 l 1013 733 l 882 733 q 810 729 847 733 q 743 709 774 725 q 694 662 713 693 q 675 576 675 631 l 675 0 l 550 0 l 550 576 q 552 624 550 601 q 561 667 554 646 q 521 667 544 667 q 473 669 497 668 q 427 670 449 669 q 394 671 406 671 l 397 936 l 397 964 l 268 964 l 244 936 l 114 936 l 121 951 q 124 979 126 960 l 97 1146 l 183 1146 z "},"ዃ":{"ha":1504,"x_min":113,"x_max":1426,"o":"m 199 1147 l 283 1050 l 660 1050 l 744 1147 l 832 1147 l 804 981 q 806 958 801 968 q 814 936 811 947 l 686 936 l 660 964 l 536 964 l 536 936 l 535 758 l 615 756 q 678 807 643 789 q 752 834 714 825 q 828 845 790 843 q 894 847 865 847 l 1151 847 l 1151 86 l 1396 86 l 1426 -96 l 1339 -96 l 1254 0 l 914 0 l 829 -96 l 743 -96 l 772 86 l 1026 86 l 1026 733 l 894 733 q 823 729 860 733 q 756 709 786 725 q 707 662 726 693 q 688 576 688 631 l 688 313 l 563 313 l 563 576 q 565 624 563 601 q 574 667 568 646 q 535 667 558 667 q 487 669 511 668 q 441 670 463 669 q 408 671 419 671 l 411 936 l 411 964 l 283 964 l 258 936 l 131 936 q 138 958 135 950 q 138 981 140 965 l 113 1147 l 199 1147 z "},"ዄ":{"ha":1574,"x_min":113,"x_max":1472,"o":"m 113 1146 l 200 1146 l 285 1049 l 649 1049 l 733 1146 l 819 1146 l 793 978 q 793 956 790 964 q 803 935 796 947 l 672 935 l 649 963 l 521 963 l 521 758 l 614 754 q 676 805 640 786 q 749 833 711 824 q 825 845 788 843 q 893 847 863 847 l 1147 847 l 1147 324 l 1242 324 q 1331 318 1290 324 q 1403 297 1372 313 q 1451 254 1433 282 q 1472 182 1469 226 l 1472 -1 l 928 -1 l 843 -96 l 756 -96 l 785 85 l 1022 85 l 1022 733 l 893 733 q 822 729 858 733 q 754 709 785 725 q 704 662 724 693 q 685 576 685 631 l 685 179 l 560 179 l 560 576 q 571 665 560 621 q 532 666 556 665 q 484 667 508 667 q 438 669 460 668 q 404 669 417 669 l 410 935 l 410 963 l 285 963 l 258 935 l 131 935 q 138 956 135 946 q 139 978 142 967 l 113 1146 m 1147 238 l 1147 85 l 1347 85 l 1347 169 q 1338 207 1347 193 q 1315 228 1329 221 q 1282 236 1300 235 q 1244 238 1264 238 l 1147 238 z "},"ዅ":{"ha":1632,"x_min":93,"x_max":1518,"o":"m 181 1147 l 265 1050 l 642 1050 l 726 1147 l 813 1147 l 786 981 q 787 957 783 967 q 796 936 790 947 l 667 936 l 642 964 l 515 964 l 515 758 l 594 756 q 658 807 622 789 q 731 834 693 825 q 807 845 769 843 q 874 847 844 847 l 1131 847 l 1131 711 l 1224 711 l 1224 821 l 1335 821 l 1335 711 l 1489 711 l 1518 529 l 1432 529 l 1347 625 l 1131 625 l 1131 0 l 1006 0 l 1006 733 l 874 733 q 802 729 839 733 q 735 709 765 725 q 686 662 706 693 q 667 576 667 631 l 667 0 l 542 0 l 542 576 q 544 624 542 601 q 553 667 547 646 q 514 667 538 667 q 466 669 490 668 q 420 670 442 669 q 388 671 399 671 l 390 936 l 390 964 l 265 964 l 239 936 l 111 936 q 119 957 115 947 q 121 979 124 967 l 93 1147 l 181 1147 z "},"ወ":{"ha":1018,"x_min":101,"x_max":969,"o":"m 375 988 l 694 988 q 812 978 761 988 q 898 941 863 968 q 951 866 933 914 q 969 743 969 818 l 969 117 l 611 117 l 611 0 l 101 0 l 101 743 q 119 866 101 818 q 172 941 138 914 q 258 978 207 968 q 375 988 308 988 m 226 742 l 226 113 l 486 113 l 486 874 l 375 874 q 297 869 326 874 q 252 849 268 864 q 231 809 236 835 q 226 742 226 783 m 611 874 l 611 229 l 844 229 l 844 742 q 840 809 844 783 q 819 849 835 835 q 773 869 803 864 q 694 874 743 874 l 611 874 z "},"ዉ":{"ha":1301,"x_min":104,"x_max":1239,"o":"m 104 743 q 122 865 104 818 q 175 940 140 913 q 260 977 210 967 q 378 988 311 988 l 697 988 q 815 978 764 988 q 902 941 867 968 q 956 866 938 914 q 974 743 974 818 l 972 201 l 1210 201 l 1239 21 l 1153 21 l 1068 117 l 615 117 l 615 0 l 106 0 l 104 743 m 490 113 l 490 874 l 378 874 q 301 869 331 874 q 256 849 271 864 q 235 809 240 835 q 229 742 229 783 l 229 113 l 490 113 m 615 874 l 615 229 l 849 229 l 849 742 q 844 809 849 783 q 825 849 840 835 q 781 869 810 864 q 704 874 753 874 l 615 874 z "},"ዊ":{"ha":1011,"x_min":64,"x_max":933,"o":"m 339 989 l 660 989 q 776 978 725 989 q 863 941 828 968 q 915 867 897 914 q 933 744 933 819 l 933 461 l 576 461 l 576 86 l 717 86 l 740 114 l 869 114 q 861 93 864 100 q 861 71 858 86 l 886 -96 l 801 -96 l 717 0 l 451 0 l 451 344 l 65 344 l 64 744 q 82 867 64 819 q 135 942 100 915 q 222 979 171 969 q 339 989 272 989 m 189 457 l 451 457 l 451 875 l 339 875 q 262 870 292 875 q 216 851 232 865 q 194 810 200 836 q 189 743 189 785 l 189 457 m 576 875 l 576 572 l 808 572 l 808 743 q 803 810 808 785 q 782 851 797 836 q 738 870 767 865 q 660 875 708 875 l 576 875 z "},"ዋ":{"ha":1024,"x_min":65,"x_max":933,"o":"m 65 344 l 65 744 q 83 867 65 819 q 136 942 101 915 q 222 979 171 969 q 339 989 272 989 l 658 989 q 776 979 725 989 q 862 942 826 969 q 915 867 897 915 q 933 744 933 819 l 933 461 l 575 461 l 575 0 l 450 0 l 450 344 l 65 344 m 450 457 l 450 875 l 339 875 q 261 870 290 875 q 216 851 232 865 q 195 810 200 836 q 190 743 190 785 l 190 457 l 450 457 m 808 572 l 808 743 q 803 810 808 785 q 783 851 799 836 q 737 870 767 865 q 658 875 707 875 l 575 875 l 575 572 l 808 572 z "},"ዌ":{"ha":1047,"x_min":64,"x_max":932,"o":"m 64 344 l 64 744 q 82 867 64 819 q 135 942 100 915 q 220 979 169 969 q 338 989 271 989 l 657 989 q 774 979 724 989 q 860 942 825 969 q 914 867 896 915 q 932 744 932 819 l 932 461 l 574 461 l 574 325 l 663 325 q 752 319 711 325 q 824 299 793 314 q 872 255 854 283 q 890 182 889 226 l 890 0 l 449 0 l 449 344 l 64 344 m 189 457 l 449 457 l 449 875 l 338 875 q 260 870 289 875 q 215 851 231 865 q 194 810 199 836 q 189 743 189 785 l 189 457 m 807 572 l 807 743 q 802 810 807 785 q 781 851 797 836 q 735 870 765 865 q 657 875 706 875 l 574 875 l 574 572 l 807 572 m 765 86 l 765 169 q 757 208 765 194 q 735 230 749 222 q 703 239 721 238 q 665 240 685 240 l 574 240 l 574 86 l 765 86 z "},"ው":{"ha":1463,"x_min":154,"x_max":1335,"o":"m 154 743 q 172 866 154 818 q 226 941 190 914 q 312 978 261 968 q 429 988 363 988 l 749 988 q 867 978 815 988 q 953 941 918 968 q 1007 866 989 914 q 1025 743 1025 818 l 1025 592 l 1306 592 l 1335 411 l 1249 411 l 1164 508 l 1025 508 l 1022 117 l 667 117 l 667 0 l 157 0 l 154 743 m 542 113 l 542 874 l 429 874 q 352 869 382 874 q 307 849 322 864 q 286 809 292 835 q 281 742 281 783 l 281 113 l 542 113 m 667 874 l 667 229 l 900 229 l 900 742 q 894 809 900 783 q 873 849 889 835 q 827 869 857 864 q 749 874 797 874 l 667 874 z "},"ዎ":{"ha":999,"x_min":75,"x_max":944,"o":"m 349 989 l 671 989 q 788 978 736 989 q 874 941 839 968 q 926 867 908 914 q 944 744 944 819 l 944 460 l 586 460 l 360 0 l 224 0 l 397 344 l 76 344 l 75 744 q 93 867 75 819 q 146 941 111 914 q 231 978 181 968 q 349 989 282 989 m 200 457 l 463 457 l 463 875 l 349 875 q 272 870 301 875 q 226 851 242 865 q 206 810 211 836 q 200 743 200 785 l 200 457 m 588 572 l 819 572 l 819 743 q 814 810 819 785 q 793 851 808 836 q 749 870 778 865 q 671 875 719 875 l 588 875 l 588 572 z "},"ዏ":{"ha":1415,"x_min":129,"x_max":1293,"o":"m 158 758 l 424 758 q 446 876 426 831 q 500 946 465 921 q 584 980 535 971 q 697 989 633 989 l 1019 989 q 1136 978 1085 989 q 1222 941 1188 968 q 1275 867 1257 914 q 1293 744 1293 819 l 1293 460 l 935 460 l 708 0 l 572 0 l 746 344 l 425 344 l 424 672 l 300 672 l 215 576 l 129 576 l 158 758 m 811 457 l 811 875 l 697 875 q 620 870 650 875 q 575 851 590 865 q 554 810 560 836 q 549 743 549 785 l 549 457 l 811 457 m 936 572 l 1168 572 l 1168 743 q 1163 810 1168 785 q 1142 851 1157 836 q 1097 870 1126 865 q 1019 875 1068 875 l 936 875 l 936 572 z "},"ዐ":{"ha":829,"x_min":104,"x_max":718,"o":"m 443 988 q 500 986 469 988 q 561 978 531 985 q 620 957 592 972 q 670 915 649 942 q 705 846 692 888 q 718 743 718 804 l 718 244 q 690 103 718 153 q 621 31 663 54 q 531 4 579 8 q 443 0 483 0 l 379 0 q 291 4 339 0 q 201 31 243 8 q 132 103 160 54 q 104 244 104 153 l 104 743 q 130 880 104 831 q 194 953 156 929 q 278 982 232 976 q 364 988 324 988 l 443 988 m 593 742 q 588 809 593 783 q 566 849 582 835 q 521 869 550 864 q 443 874 492 874 l 379 874 q 301 869 331 874 q 255 849 271 864 q 234 809 239 835 q 229 742 229 783 l 229 246 q 234 178 229 204 q 255 138 239 153 q 301 118 271 124 q 379 113 331 113 l 443 113 q 521 118 492 113 q 566 138 550 124 q 588 178 582 153 q 593 246 593 204 l 593 742 z "},"ዑ":{"ha":1119,"x_min":107,"x_max":1029,"o":"m 365 986 l 446 986 q 563 976 513 986 q 649 940 614 967 q 701 865 683 913 q 719 742 719 817 l 719 556 l 1000 556 l 1029 374 l 943 374 l 858 471 l 719 471 l 719 244 q 701 122 719 169 q 649 48 683 75 q 563 10 614 21 q 446 0 513 0 l 381 0 q 263 10 314 0 q 178 48 213 21 q 125 122 143 75 q 107 244 107 169 l 107 742 q 132 878 107 829 q 196 951 157 928 q 280 981 235 975 q 365 986 325 986 m 381 111 l 446 111 q 524 117 494 111 q 569 137 553 122 q 590 178 585 151 q 594 246 594 204 l 594 740 q 590 808 594 782 q 569 849 585 835 q 524 869 553 864 q 446 874 494 874 l 381 874 q 303 869 332 874 q 258 849 274 864 q 237 808 242 835 q 232 740 232 782 l 232 246 q 237 178 232 204 q 258 137 242 151 q 303 117 274 122 q 381 111 332 111 z "},"ዒ":{"ha":1125,"x_min":74,"x_max":1060,"o":"m 74 604 l 74 744 q 99 881 74 832 q 163 954 125 931 q 247 983 201 978 q 333 989 293 989 l 336 989 q 453 979 403 989 q 540 942 504 969 q 593 867 575 915 q 611 744 611 819 l 611 474 l 781 474 l 726 86 l 888 86 l 914 114 l 1042 114 q 1034 92 1038 103 q 1033 69 1031 81 l 1060 -94 l 972 -94 l 888 1 l 593 1 l 643 360 l 339 360 q 252 365 299 360 q 166 393 206 369 q 100 466 126 417 q 74 604 74 515 m 199 606 q 204 540 199 565 q 225 499 210 514 q 269 479 240 485 q 344 474 297 474 l 486 474 l 486 743 q 481 810 486 783 q 461 851 476 836 q 417 872 446 867 q 343 878 389 878 q 269 872 297 878 q 224 851 240 867 q 203 810 208 836 q 199 743 199 783 l 199 606 z "},"ዓ":{"ha":768,"x_min":42,"x_max":749,"o":"m 42 604 l 42 744 q 67 881 42 832 q 131 954 93 931 q 215 983 169 978 q 300 989 261 989 l 303 989 q 420 979 369 989 q 506 942 471 969 q 560 867 542 915 q 578 744 578 819 l 578 474 l 749 474 l 683 1 l 560 1 l 611 360 l 306 360 q 220 365 267 360 q 134 393 174 369 q 68 466 94 417 q 42 604 42 515 m 167 606 q 172 540 167 565 q 193 499 178 514 q 237 479 208 485 q 313 474 265 474 l 453 474 l 453 743 q 448 810 453 783 q 428 851 443 836 q 384 872 413 867 q 310 878 356 878 q 235 872 263 878 q 192 851 207 867 q 172 810 176 836 q 167 743 167 783 l 167 606 z "},"ዔ":{"ha":1038,"x_min":54,"x_max":1040,"o":"m 54 744 q 80 881 54 832 q 144 954 106 931 q 228 983 182 978 q 313 989 274 989 l 315 989 q 433 979 382 989 q 519 942 483 969 q 572 867 554 915 q 590 744 590 819 l 590 474 l 760 474 l 739 326 l 810 326 q 899 321 857 326 q 971 299 940 315 q 1020 255 1001 283 q 1040 182 1039 226 l 1040 1 l 572 1 l 622 360 l 318 360 q 233 365 279 360 q 147 393 186 369 q 81 466 107 417 q 54 604 54 515 l 54 744 m 325 474 l 465 474 l 465 743 q 460 810 465 783 q 440 851 456 836 q 396 872 424 867 q 322 878 368 878 q 248 872 276 878 q 204 851 219 867 q 184 810 189 836 q 179 743 179 783 l 179 606 q 184 540 179 565 q 205 499 189 514 q 249 479 221 485 q 325 474 278 474 m 706 88 l 915 88 l 915 169 q 907 210 915 196 q 884 231 899 224 q 851 239 869 238 q 813 240 833 240 l 728 240 l 706 88 z "},"ዕ":{"ha":739,"x_min":86,"x_max":700,"o":"m 449 844 q 533 838 489 844 q 615 808 578 832 q 676 735 651 783 q 700 600 700 686 l 700 246 q 672 104 700 154 q 603 31 644 54 q 513 4 561 8 q 425 0 465 0 l 361 0 q 273 4 321 0 q 183 31 225 8 q 114 104 142 54 q 86 246 86 154 l 86 600 q 110 735 86 686 q 172 808 135 783 q 252 838 208 832 q 336 844 296 844 l 336 1046 l 449 1046 l 449 844 m 575 599 q 569 666 575 640 q 548 706 564 692 q 503 726 532 721 q 425 732 474 732 l 361 732 q 283 726 313 732 q 237 706 253 721 q 216 666 221 692 q 211 599 211 640 l 211 247 q 216 179 211 206 q 237 138 221 153 q 283 118 253 124 q 361 113 313 113 l 425 113 q 503 118 474 113 q 548 138 532 124 q 569 179 564 153 q 575 247 575 206 l 575 599 z "},"ዖ":{"ha":651,"x_min":89,"x_max":658,"o":"m 383 989 q 501 979 450 989 q 587 942 551 969 q 640 867 622 915 q 658 744 658 819 l 658 604 q 639 488 658 532 q 588 418 619 443 q 518 381 557 393 q 442 361 479 369 q 359 328 400 351 q 285 268 318 306 q 233 179 253 231 q 214 61 214 128 l 214 0 l 89 0 l 89 61 q 103 163 89 113 q 140 256 118 213 q 190 331 163 299 q 242 379 217 364 q 197 406 218 389 q 158 449 175 422 q 132 515 142 476 q 122 604 122 553 l 122 744 q 148 881 122 832 q 212 954 174 931 q 296 983 250 978 q 381 989 342 989 l 383 989 m 533 743 q 528 810 533 783 q 509 851 524 836 q 466 872 494 867 q 392 878 438 878 q 316 872 344 878 q 272 851 288 867 q 252 810 257 836 q 247 743 247 783 l 247 606 q 252 540 247 565 q 272 499 257 514 q 313 479 286 485 q 383 474 340 474 l 397 474 q 467 479 440 474 q 508 499 493 485 q 528 540 522 514 q 533 606 533 565 l 533 743 z "},"ዘ":{"ha":778,"x_min":115,"x_max":688,"o":"m 125 989 l 253 989 l 249 550 l 558 550 l 563 989 l 688 989 l 676 0 l 551 0 l 556 458 l 246 458 l 240 0 l 115 0 l 125 989 z "},"ዙ":{"ha":1097,"x_min":115,"x_max":994,"o":"m 115 0 l 125 989 l 251 989 l 247 550 l 560 550 l 564 989 l 688 989 l 683 549 l 965 549 l 994 368 l 907 368 l 822 464 l 682 464 l 676 0 l 551 0 l 558 458 l 246 458 l 239 0 l 115 0 z "},"ዚ":{"ha":1075,"x_min":114,"x_max":996,"o":"m 126 989 l 250 989 l 244 550 l 557 550 l 563 989 l 689 989 l 678 86 l 824 86 l 850 114 l 978 114 q 969 93 972 101 q 968 71 965 85 l 996 -96 l 910 -96 l 825 0 l 553 0 l 557 458 l 244 458 l 239 0 l 114 0 l 126 989 z "},"ዛ":{"ha":710,"x_min":72,"x_max":643,"o":"m 72 240 l 81 989 l 207 989 l 200 550 l 511 550 l 518 989 l 643 989 l 631 0 l 506 0 l 511 458 l 200 458 l 197 240 l 72 240 z "},"ዜ":{"ha":1031,"x_min":115,"x_max":1029,"o":"m 115 0 l 126 989 l 251 989 l 246 550 l 560 550 l 564 989 l 689 989 l 681 326 l 799 326 q 889 321 847 326 q 961 299 931 315 q 1010 256 992 283 q 1029 182 1028 228 l 1029 0 l 551 0 l 558 458 l 246 458 l 239 0 l 115 0 m 904 86 l 904 169 q 896 210 904 196 q 874 231 888 224 q 842 239 860 238 q 804 240 824 240 l 681 240 l 679 86 l 904 86 z "},"ዝ":{"ha":1081,"x_min":78,"x_max":951,"o":"m 107 989 l 515 989 l 510 550 l 821 550 l 825 989 l 951 989 l 939 0 l 815 0 l 819 458 l 508 458 l 501 0 l 378 0 l 389 904 l 249 904 l 164 808 l 78 808 l 107 989 z "},"ዞ":{"ha":713,"x_min":115,"x_max":688,"o":"m 115 0 l 125 989 l 253 989 l 249 550 l 560 550 l 564 989 l 688 989 l 679 240 l 554 240 l 557 458 l 246 458 l 240 0 l 115 0 z "},"ዟ":{"ha":996,"x_min":94,"x_max":942,"o":"m 104 989 l 229 989 l 224 549 l 535 549 l 540 989 l 667 989 l 656 86 l 914 86 l 942 -94 l 856 -94 l 772 0 l 431 0 l 347 -94 l 260 -94 l 288 86 l 531 86 l 535 458 l 224 458 l 221 240 l 94 240 l 104 989 z "},"ዠ":{"ha":1363,"x_min":78,"x_max":1263,"o":"m 78 808 l 107 989 l 514 989 l 513 904 l 513 808 l 510 549 l 822 549 l 825 808 l 825 904 l 826 989 l 1232 989 l 1263 808 l 1175 808 l 1090 904 l 950 904 l 940 0 l 815 0 l 819 458 l 508 458 l 503 0 l 378 0 l 388 904 l 250 904 l 165 808 l 78 808 z "},"ዡ":{"ha":1360,"x_min":89,"x_max":1272,"o":"m 117 989 l 526 989 l 519 549 l 831 549 l 838 989 l 1243 989 l 1272 808 l 1186 808 l 1101 904 l 961 904 l 957 549 l 1239 549 l 1268 368 l 1181 368 l 1097 463 l 956 463 l 950 0 l 825 0 l 831 458 l 519 458 l 514 0 l 389 0 l 399 904 l 258 904 l 175 808 l 89 808 l 117 989 z "},"ዢ":{"ha":1374,"x_min":90,"x_max":1274,"o":"m 90 807 l 118 989 l 526 989 l 521 549 l 833 549 l 839 989 l 1244 989 l 1274 807 l 1188 807 l 1103 903 l 961 903 l 954 86 l 1100 86 l 1124 114 l 1253 114 q 1244 92 1247 99 q 1244 69 1242 85 l 1269 -96 l 1185 -96 l 1100 0 l 828 0 l 832 458 l 519 458 l 514 0 l 389 0 l 400 903 l 260 903 l 176 807 l 90 807 z "},"ዣ":{"ha":1386,"x_min":97,"x_max":1282,"o":"m 126 989 l 533 989 l 528 549 l 840 549 l 846 989 l 1251 989 l 1282 807 l 1194 807 l 1110 903 l 969 903 l 960 0 l 835 0 l 840 458 l 528 458 l 525 240 l 400 240 l 407 903 l 269 903 l 185 807 l 97 807 l 126 989 z "},"ዤ":{"ha":1400,"x_min":106,"x_max":1321,"o":"m 135 989 l 542 989 l 536 549 l 849 549 l 854 989 l 1260 989 l 1289 807 l 1203 807 l 1118 903 l 978 903 l 971 326 l 1090 326 q 1181 321 1139 326 q 1253 299 1222 315 q 1303 255 1285 283 q 1321 182 1321 226 l 1321 0 l 840 0 l 849 458 l 535 458 l 531 0 l 406 0 l 417 903 l 276 903 l 192 807 l 106 807 l 135 989 m 1196 86 l 1196 169 q 1188 210 1196 196 q 1165 231 1179 224 q 1133 239 1151 238 q 1094 240 1115 240 l 971 240 l 968 86 l 1196 86 z "},"ዥ":{"ha":1468,"x_min":83,"x_max":1379,"o":"m 171 1146 l 256 1050 l 596 1050 l 681 1146 l 767 1146 l 740 979 q 740 957 738 964 q 750 936 743 950 l 619 936 l 596 964 l 479 964 l 479 808 l 631 808 l 629 724 l 629 626 l 626 436 l 940 436 l 943 626 l 943 724 l 944 808 l 1349 808 l 1379 626 l 1292 626 l 1207 724 l 1068 724 l 1060 0 l 935 0 l 939 344 l 625 344 l 622 0 l 497 0 l 506 724 l 367 724 l 282 626 l 194 626 l 224 808 l 367 808 l 367 964 l 256 964 l 231 936 l 101 936 q 110 957 106 947 q 111 979 114 967 l 83 1146 l 171 1146 z "},"ዦ":{"ha":1342,"x_min":72,"x_max":1257,"o":"m 101 989 l 508 989 l 507 903 l 507 807 l 504 549 l 817 549 l 822 989 l 1226 989 l 1257 807 l 1169 807 l 1085 903 l 944 903 l 938 240 l 813 240 l 814 458 l 503 458 l 497 0 l 372 0 l 382 903 l 244 903 l 160 807 l 72 807 l 101 989 z "},"ዧ":{"ha":1338,"x_min":76,"x_max":1261,"o":"m 76 807 l 107 989 l 514 989 l 513 903 l 513 807 l 510 549 l 822 549 l 825 807 l 825 903 l 826 989 l 1232 989 l 1261 807 l 1174 807 l 1089 903 l 949 903 l 940 86 l 1200 86 l 1229 -96 l 1143 -96 l 1058 0 l 718 0 l 633 -96 l 546 -96 l 575 86 l 815 86 l 821 458 l 508 458 l 504 240 l 379 240 l 386 903 l 249 903 l 164 807 l 76 807 z "},"የ":{"ha":656,"x_min":71,"x_max":592,"o":"m 346 476 q 297 477 319 476 q 247 483 275 478 l 382 0 l 257 0 l 82 624 q 72 683 74 653 q 71 744 71 714 q 97 881 71 832 q 160 954 122 931 q 244 984 199 978 q 329 990 290 990 l 346 990 q 429 983 386 990 q 508 951 472 976 q 568 878 544 926 q 592 744 592 829 l 592 476 l 346 476 m 196 722 q 201 655 196 681 q 222 615 206 629 q 267 594 238 600 q 346 589 297 589 l 468 589 l 468 743 q 464 807 468 782 q 447 847 460 832 q 410 869 433 863 q 346 878 386 876 q 272 874 301 878 q 226 856 243 869 q 203 815 210 842 q 196 743 196 789 l 196 722 z "},"ዩ":{"ha":700,"x_min":85,"x_max":625,"o":"m 625 129 l 539 129 l 454 226 l 333 226 l 396 0 l 271 0 l 96 624 q 86 683 88 653 q 85 744 85 714 q 110 881 85 832 q 174 954 136 931 q 258 984 213 978 q 344 990 304 990 l 360 990 q 443 983 400 990 q 522 951 486 976 q 582 878 558 926 q 606 744 606 829 l 606 476 l 360 476 q 313 477 335 476 q 260 483 290 478 l 308 313 l 596 313 l 625 129 m 210 722 q 215 655 210 681 q 235 615 219 629 q 281 594 251 600 q 360 589 311 589 l 481 589 l 481 743 q 476 807 481 782 q 460 847 472 832 q 424 869 447 863 q 360 878 400 876 q 288 874 317 878 q 241 856 258 869 q 217 815 224 842 q 210 743 210 789 l 210 722 z "},"ዪ":{"ha":915,"x_min":92,"x_max":804,"o":"m 92 744 q 117 881 92 832 q 181 955 143 931 q 265 985 219 979 q 350 990 311 990 l 365 990 q 449 983 406 990 q 528 951 492 976 q 588 878 564 926 q 611 744 611 829 l 611 476 l 365 476 q 318 477 340 476 q 268 483 296 478 l 317 313 l 481 313 l 481 368 l 592 368 l 592 208 l 776 208 l 804 25 l 717 25 l 633 122 l 481 122 l 481 222 l 340 222 l 403 0 l 276 0 l 103 624 q 93 683 94 653 q 92 744 92 714 m 365 589 l 486 589 l 486 743 q 482 807 486 782 q 465 847 478 832 q 429 869 453 863 q 365 878 406 876 l 358 878 q 284 871 313 876 q 241 851 256 865 q 222 810 226 836 q 217 743 217 785 l 217 722 q 222 655 217 681 q 242 615 226 629 q 288 594 258 600 q 365 589 317 589 z "},"ያ":{"ha":865,"x_min":99,"x_max":789,"o":"m 542 476 q 494 477 517 476 q 444 483 472 478 l 579 0 l 269 0 l 185 -96 l 99 -96 l 125 71 q 124 93 128 83 q 117 114 121 103 l 244 114 l 269 86 l 429 86 l 279 624 q 269 683 271 653 q 267 744 267 714 q 292 881 267 832 q 357 954 318 931 q 442 984 396 978 q 526 990 488 990 l 542 990 q 625 983 582 990 q 705 951 668 976 q 765 878 742 926 q 789 744 789 829 l 789 476 l 542 476 m 392 722 q 397 655 392 681 q 419 615 403 629 q 464 594 435 600 q 542 589 493 589 l 664 589 l 664 743 q 660 807 664 782 q 642 847 656 832 q 606 869 629 863 q 542 878 582 876 q 469 874 499 878 q 423 856 440 869 q 399 815 406 842 q 392 743 392 789 l 392 722 z "},"ዬ":{"ha":850,"x_min":82,"x_max":804,"o":"m 339 990 l 356 990 q 439 983 396 990 q 518 951 482 976 q 578 878 554 926 q 601 744 601 829 l 601 476 l 356 476 q 308 477 329 476 q 258 483 286 478 l 296 342 l 561 342 q 657 336 613 342 q 734 315 701 331 q 785 272 767 300 q 804 200 804 244 l 804 17 l 454 17 l 454 256 l 321 256 l 392 0 l 267 0 l 92 624 q 83 684 85 653 q 82 744 82 715 q 107 881 82 832 q 171 955 132 931 q 255 985 210 979 q 339 990 300 990 m 207 722 q 212 655 207 681 q 233 615 217 629 q 278 594 249 600 q 356 589 307 589 l 476 589 l 476 743 q 472 807 476 782 q 456 847 468 832 q 419 869 443 863 q 356 878 396 876 l 349 878 q 274 871 303 876 q 231 851 246 865 q 212 810 217 836 q 207 743 207 785 l 207 722 m 679 103 l 679 185 q 674 224 679 210 q 659 246 669 239 q 633 254 649 253 q 596 256 617 256 l 563 256 l 563 103 l 679 103 z "},"ይ":{"ha":1081,"x_min":64,"x_max":1008,"o":"m 1008 322 q 994 135 1008 201 q 944 40 981 69 q 844 5 908 10 q 676 0 779 0 l 235 0 l 150 -96 l 64 -96 l 93 86 l 444 86 l 293 624 q 283 683 285 653 q 282 744 282 714 q 308 881 282 832 q 372 954 333 931 q 456 984 410 978 q 542 990 501 990 l 557 990 q 640 983 597 990 q 719 951 683 976 q 779 878 756 926 q 803 744 803 829 l 803 476 l 557 476 q 503 477 532 476 q 446 483 475 478 l 524 206 q 549 155 535 174 q 579 126 563 136 q 613 112 596 115 q 649 108 631 108 l 706 108 q 810 112 772 108 q 867 135 849 115 q 891 199 886 156 q 896 322 896 242 l 1008 322 m 396 722 q 403 655 396 681 q 428 615 410 629 q 477 594 446 600 q 557 589 508 589 l 689 589 l 689 743 q 683 807 689 782 q 663 847 678 832 q 622 869 647 863 q 557 878 597 876 q 485 874 515 878 q 434 856 454 869 q 405 815 414 842 q 396 743 396 789 l 396 722 z "},"ዮ":{"ha":1008,"x_min":83,"x_max":915,"o":"m 915 594 l 828 594 l 743 689 l 603 689 l 603 476 l 357 476 q 310 477 332 476 q 258 483 288 478 l 394 0 l 268 0 l 93 624 q 86 669 89 644 q 83 721 83 693 l 83 744 q 108 881 83 832 q 172 954 133 931 q 256 984 211 978 q 342 990 301 990 l 357 990 q 436 984 394 990 q 513 956 478 978 q 573 891 549 933 q 603 775 597 849 l 885 775 l 915 594 m 478 743 q 474 807 478 782 q 457 847 469 832 q 421 869 444 863 q 357 878 397 876 q 285 874 314 878 q 239 856 256 869 q 215 815 222 842 q 208 743 208 788 l 208 722 q 213 655 208 681 q 234 615 218 629 q 279 594 250 600 q 357 589 308 589 l 478 589 l 478 743 z "},"ዯ":{"ha":1288,"x_min":90,"x_max":1197,"o":"m 90 447 l 119 628 l 371 628 q 365 693 365 656 l 365 746 q 391 883 365 833 q 456 956 417 932 q 540 985 494 979 q 625 990 586 990 l 639 990 q 718 984 676 990 q 795 956 760 978 q 856 891 831 933 q 885 775 881 849 l 1168 775 l 1197 594 l 1110 594 l 1025 690 l 886 690 l 886 447 l 608 447 q 577 449 593 447 q 542 456 561 450 l 668 0 l 543 0 l 390 544 l 261 544 l 176 447 l 90 447 m 490 694 q 496 627 490 653 q 517 587 501 601 q 562 567 532 572 q 639 561 592 561 l 761 561 l 761 744 q 757 807 761 782 q 740 847 753 832 q 703 869 726 863 q 639 878 679 876 l 633 878 q 559 872 588 878 q 515 852 531 867 q 495 811 500 838 q 490 744 490 785 l 490 694 z "},"ደ":{"ha":910,"x_min":75,"x_max":842,"o":"m 106 182 l 393 182 q 378 217 382 201 l 258 644 q 247 693 251 667 q 242 751 242 719 q 269 884 243 836 q 333 955 294 932 q 416 983 371 978 q 500 989 461 989 l 515 989 q 599 983 556 989 q 678 951 642 976 q 739 878 715 926 q 763 744 763 829 l 763 515 l 515 515 q 466 517 490 515 q 417 524 442 518 l 497 240 q 525 198 504 214 q 572 182 546 182 l 814 182 l 842 0 l 754 0 l 669 96 l 247 96 l 163 0 l 75 0 l 106 182 m 367 751 q 374 690 368 714 q 395 651 379 665 q 440 633 411 638 q 515 628 468 628 l 638 628 l 638 743 q 633 807 638 782 q 616 847 629 832 q 579 869 603 863 q 515 878 556 876 l 508 878 q 437 871 464 876 q 394 851 410 865 q 374 813 379 838 q 367 751 368 789 z "},"ዱ":{"ha":1249,"x_min":67,"x_max":1169,"o":"m 67 161 l 97 343 l 340 343 q 331 362 335 353 q 325 378 328 371 l 244 663 l 246 663 q 238 704 240 682 q 235 750 236 726 q 262 882 236 835 q 326 953 288 929 q 409 982 364 976 q 493 988 454 988 l 508 988 q 592 981 549 988 q 671 949 635 974 q 731 875 707 924 q 754 742 754 826 l 754 514 l 508 514 q 460 515 483 514 q 410 521 438 515 l 443 401 q 471 359 450 375 q 519 343 492 343 l 861 343 l 861 246 l 1140 246 l 1169 64 l 1083 64 l 999 160 l 861 160 l 861 0 l 736 0 l 736 258 l 239 258 l 154 161 l 67 161 m 508 625 l 629 625 l 629 740 q 625 804 629 779 q 608 844 621 829 q 572 865 596 858 q 508 874 549 872 l 503 874 q 429 868 457 874 q 386 849 401 863 q 365 811 371 835 q 360 750 360 788 q 365 688 360 713 q 388 650 371 664 q 433 631 404 636 q 508 625 463 625 z "},"ዲ":{"ha":1311,"x_min":83,"x_max":1194,"o":"m 113 342 l 356 342 q 347 362 350 353 q 342 378 344 371 l 260 668 q 253 707 256 686 q 250 751 250 728 q 277 884 251 836 q 341 955 303 932 q 424 983 379 978 q 508 989 469 989 l 524 989 q 607 983 564 989 q 687 951 650 976 q 747 878 724 926 q 771 744 771 829 l 771 515 l 524 515 q 475 516 499 515 q 426 524 451 517 l 461 401 q 489 358 468 375 q 536 342 510 342 l 878 342 l 878 86 l 1024 86 l 1047 114 l 1176 114 q 1168 93 1171 100 q 1168 71 1165 86 l 1194 -96 l 1108 -96 l 1024 0 l 753 0 l 753 258 l 254 258 l 169 161 l 83 161 l 113 342 m 375 751 q 382 690 376 714 q 403 651 388 665 q 448 633 419 638 q 524 628 476 628 l 646 628 l 646 743 q 642 807 646 782 q 624 847 638 832 q 588 867 611 861 q 524 875 564 874 l 517 875 q 445 870 472 875 q 403 851 418 865 q 382 813 388 838 q 375 751 376 789 z "},"ዳ":{"ha":961,"x_min":83,"x_max":878,"o":"m 111 342 l 356 342 q 347 362 351 353 q 340 378 343 371 l 263 660 q 253 702 256 681 q 250 751 250 724 q 277 884 251 836 q 341 955 303 932 q 424 983 379 978 q 508 989 469 989 l 524 989 q 607 983 564 989 q 687 951 650 976 q 747 878 724 926 q 771 744 771 829 l 771 515 l 524 515 q 474 517 499 515 q 425 524 450 518 l 460 401 q 488 358 467 375 q 536 342 510 342 l 878 342 l 878 0 l 753 0 l 753 258 l 254 258 l 171 161 l 83 161 l 111 342 m 375 751 q 382 690 376 714 q 403 651 388 665 q 448 633 419 638 q 524 628 476 628 l 646 628 l 646 743 q 642 807 646 782 q 625 847 638 832 q 588 867 613 861 q 524 875 564 874 l 517 875 q 445 870 472 875 q 403 851 418 865 q 382 813 388 838 q 375 751 376 789 z "},"ዴ":{"ha":1238,"x_min":49,"x_max":1196,"o":"m 79 342 l 321 342 q 315 360 318 351 q 308 378 311 369 l 228 663 q 215 751 218 701 q 244 884 218 836 q 308 955 269 932 q 390 983 346 978 q 475 989 435 989 l 490 989 q 574 983 531 989 q 653 951 617 976 q 713 878 689 926 q 736 744 736 829 l 736 515 l 490 515 q 442 517 467 515 q 394 524 418 518 l 426 401 q 456 358 435 375 q 504 342 476 342 l 843 342 l 843 325 l 965 325 q 1055 319 1014 325 q 1126 298 1096 314 q 1175 254 1157 282 q 1196 182 1193 226 l 1196 0 l 718 0 l 718 258 l 221 258 l 136 161 l 49 161 l 79 342 m 490 628 l 611 628 l 611 743 q 607 807 611 782 q 590 847 603 832 q 554 867 578 861 q 490 875 531 874 l 483 875 q 411 870 439 875 q 367 851 383 865 q 346 813 351 838 q 340 751 340 789 q 346 690 340 714 q 368 651 351 665 q 414 633 385 638 q 490 628 443 628 m 843 240 l 843 86 l 1071 86 l 1071 169 q 1063 210 1071 196 q 1040 231 1054 224 q 1006 239 1025 238 q 968 240 988 240 l 843 240 z "},"ድ":{"ha":1146,"x_min":75,"x_max":1071,"o":"m 104 182 l 393 182 q 385 201 389 192 q 379 217 382 210 l 256 660 q 243 751 243 700 q 270 884 244 836 q 335 955 296 932 q 419 983 374 978 q 503 989 464 989 l 517 989 q 593 983 553 989 q 668 958 633 978 q 728 899 703 938 q 760 793 753 860 l 1042 793 l 1071 610 l 985 610 l 900 707 l 763 707 l 763 515 l 517 515 q 467 517 492 515 q 418 524 443 518 l 499 240 q 526 198 506 214 q 574 182 547 182 l 813 182 l 843 0 l 756 0 l 671 96 l 247 96 l 163 0 l 75 0 l 104 182 m 368 751 q 374 690 368 714 q 396 651 379 665 q 442 633 413 638 q 517 628 471 628 l 638 628 l 638 743 q 633 807 638 782 q 617 847 629 832 q 581 867 604 861 q 517 875 557 874 l 511 875 q 438 870 465 875 q 394 851 410 865 q 374 813 379 838 q 368 751 368 789 z "},"ዶ":{"ha":985,"x_min":103,"x_max":897,"o":"m 897 161 l 810 161 l 725 258 l 228 258 l 228 0 l 103 0 l 103 342 l 375 343 q 367 362 371 353 q 360 378 363 371 l 281 663 q 269 751 269 704 q 297 884 271 836 q 360 955 322 932 q 444 983 399 978 q 528 989 489 989 l 544 989 q 628 982 585 989 q 707 951 671 975 q 767 878 743 926 q 790 744 790 829 l 790 515 l 544 515 q 496 516 518 515 q 444 524 474 517 l 479 401 q 507 359 486 375 q 554 343 528 343 l 867 343 l 897 161 m 394 751 q 401 690 394 714 q 423 651 407 665 q 468 633 439 638 q 544 628 497 628 l 665 628 l 665 743 q 660 809 665 783 q 642 849 656 835 q 603 869 628 864 q 536 875 578 875 q 465 870 492 875 q 422 851 438 865 q 400 813 406 838 q 394 751 394 789 z "},"ዷ":{"ha":1210,"x_min":110,"x_max":1188,"o":"m 110 161 l 138 343 l 382 343 q 367 378 371 363 l 297 626 q 285 685 288 656 q 283 744 283 715 q 309 881 283 832 q 373 955 335 931 q 457 985 411 979 q 543 990 503 990 l 558 989 q 642 983 599 989 q 721 951 685 976 q 781 878 757 926 q 804 744 804 829 l 804 486 l 558 486 q 509 488 533 486 q 460 494 485 489 l 486 401 q 514 359 493 375 q 561 343 535 343 l 903 343 l 903 86 l 1158 86 l 1188 -96 l 1101 -96 l 1017 0 l 676 0 l 592 -96 l 506 -96 l 535 86 l 778 86 l 778 258 l 279 258 l 194 161 l 110 161 m 408 732 q 414 665 408 690 q 435 624 419 639 q 481 605 451 610 q 558 600 511 600 l 679 600 l 679 743 q 675 807 679 782 q 658 847 671 832 q 622 869 646 863 q 558 878 599 876 l 553 878 q 478 870 507 876 q 434 849 450 864 q 413 809 418 835 q 408 743 408 783 l 408 732 z "},"ዸ":{"ha":900,"x_min":75,"x_max":842,"o":"m 75 0 l 106 182 l 375 182 q 365 201 368 192 q 360 217 363 210 l 265 554 q 251 656 251 596 q 270 771 253 726 q 315 841 288 815 q 378 877 343 867 q 447 890 413 888 l 447 1051 l 572 1051 l 572 890 q 644 876 608 888 q 708 839 681 865 q 753 767 736 813 q 771 649 771 721 l 771 419 l 524 419 q 476 420 499 419 q 426 426 454 421 l 478 240 q 506 198 485 214 q 554 182 526 182 l 814 182 l 842 0 l 754 0 l 669 96 l 247 96 l 163 0 l 75 0 m 376 656 q 383 592 378 617 q 404 554 389 568 q 448 535 419 540 q 524 531 476 531 l 646 531 l 646 647 q 642 710 646 685 q 624 749 638 735 q 588 771 611 764 q 524 779 564 778 l 518 779 q 447 774 474 779 q 404 756 419 769 q 383 717 389 742 q 376 656 378 693 z "},"ዹ":{"ha":1256,"x_min":89,"x_max":1192,"o":"m 119 343 l 363 343 q 354 362 357 353 q 349 378 351 371 l 288 592 q 278 637 282 613 q 275 690 275 661 q 294 806 276 761 q 338 876 311 850 q 400 912 365 901 q 471 925 435 922 l 471 1051 l 596 1051 l 596 925 q 669 912 633 922 q 732 875 704 901 q 777 803 760 849 q 794 683 794 757 l 794 454 l 547 454 q 500 455 522 454 q 450 461 478 456 l 467 401 q 494 359 474 375 q 543 343 515 343 l 883 343 l 883 246 l 1163 246 l 1192 64 l 1106 64 l 1021 160 l 883 160 l 883 0 l 758 0 l 758 258 l 261 258 l 176 161 l 89 161 l 119 343 m 547 567 l 669 567 l 669 681 q 665 744 669 719 q 648 785 661 769 q 611 806 635 800 q 547 814 588 813 l 542 814 q 470 809 497 814 q 428 790 443 804 q 407 752 413 776 q 400 690 401 728 q 407 628 401 651 q 428 590 413 604 q 472 572 443 576 q 547 567 500 567 z "},"ዺ":{"ha":1296,"x_min":99,"x_max":1210,"o":"m 99 161 l 128 343 l 371 343 q 363 362 365 353 q 357 378 360 371 l 296 592 q 286 638 290 613 q 282 690 282 663 q 301 806 283 761 q 346 876 318 850 q 408 912 374 901 q 479 925 443 922 l 479 1051 l 604 1051 l 604 925 q 676 912 640 922 q 740 875 713 901 q 785 803 768 849 q 803 683 803 757 l 803 454 l 557 454 q 509 455 531 454 q 460 461 488 456 l 475 401 q 503 359 482 375 q 553 343 525 343 l 892 343 l 892 86 l 1038 86 l 1061 114 l 1192 114 q 1183 93 1186 103 q 1182 71 1179 83 l 1210 -96 l 1122 -96 l 1038 0 l 767 0 l 767 258 l 269 258 l 185 161 l 99 161 m 407 690 q 413 628 407 651 q 435 590 418 604 q 481 572 451 576 q 557 567 510 567 l 678 567 l 678 681 q 674 744 678 719 q 657 785 669 769 q 621 806 644 800 q 557 814 597 813 l 549 814 q 478 809 506 814 q 434 790 450 804 q 413 752 418 776 q 407 690 407 728 z "},"ዻ":{"ha":967,"x_min":99,"x_max":893,"o":"m 99 161 l 126 343 l 371 343 q 362 362 365 353 q 356 378 358 371 l 297 592 q 287 637 290 613 q 282 690 283 661 q 301 806 283 761 q 346 876 318 850 q 408 912 374 901 q 479 925 443 922 l 479 1051 l 604 1051 l 604 925 q 676 912 640 922 q 740 875 711 901 q 785 803 768 849 q 803 683 803 757 l 803 454 l 557 454 q 510 455 532 454 q 457 461 488 456 l 475 401 q 503 359 482 375 q 551 343 525 343 l 893 343 l 893 0 l 768 0 l 768 258 l 269 258 l 186 161 l 99 161 m 407 690 q 413 628 407 651 q 435 590 418 604 q 481 572 451 576 q 557 567 510 567 l 678 567 l 678 681 q 674 744 678 719 q 657 785 669 769 q 621 806 644 800 q 557 814 597 813 l 550 814 q 478 809 506 814 q 434 790 450 804 q 413 752 418 776 q 407 690 407 728 z "},"ዼ":{"ha":1332,"x_min":101,"x_max":1246,"o":"m 129 343 l 374 343 q 358 378 363 363 l 297 601 q 285 690 285 639 q 303 806 286 761 q 349 876 321 850 q 411 912 376 901 q 482 925 446 922 l 482 1051 l 607 1051 l 607 925 q 678 912 643 922 q 742 875 714 901 q 787 803 769 849 q 804 683 804 757 l 804 454 l 560 454 q 506 455 535 454 q 447 461 476 456 l 465 401 q 493 359 472 375 q 542 343 514 343 l 893 343 l 893 326 l 1015 326 q 1106 321 1064 326 q 1178 299 1147 315 q 1226 255 1208 283 q 1246 182 1244 226 l 1246 0 l 768 0 l 768 258 l 271 258 l 188 161 l 101 161 l 129 343 m 560 567 l 679 567 l 679 681 q 676 744 679 719 q 660 785 672 769 q 624 806 647 800 q 560 814 600 813 l 553 814 q 480 809 507 814 q 438 790 453 804 q 417 752 422 776 q 410 690 411 728 q 417 628 411 651 q 440 590 424 604 q 484 572 456 576 q 560 567 513 567 m 1121 86 l 1121 169 q 1113 209 1121 194 q 1090 231 1104 224 q 1058 239 1076 238 q 1021 240 1040 240 l 893 240 l 893 86 l 1121 86 z "},"ዽ":{"ha":1165,"x_min":75,"x_max":1079,"o":"m 75 0 l 104 182 l 375 182 q 366 201 369 192 q 360 217 363 210 l 267 554 q 256 601 260 576 q 251 656 251 625 q 272 771 253 726 q 319 841 290 815 q 384 877 349 867 q 456 890 419 888 l 456 1051 l 567 1051 l 567 890 q 629 880 599 888 q 687 854 660 872 q 734 806 714 836 q 764 728 754 776 l 1049 728 l 1079 547 l 992 547 l 907 642 l 772 642 l 772 419 l 525 419 q 477 420 500 419 q 426 426 454 421 l 479 240 q 507 198 486 214 q 554 182 528 182 l 813 182 l 843 0 l 756 0 l 671 96 l 247 96 l 163 0 l 75 0 m 525 531 l 647 531 l 647 647 q 643 710 647 685 q 626 749 639 735 q 590 771 614 764 q 525 779 565 778 l 518 779 q 447 774 474 779 q 404 756 419 769 q 383 717 389 742 q 376 656 378 693 q 384 592 378 617 q 406 554 390 568 q 449 535 421 540 q 525 531 478 531 z "},"ዾ":{"ha":971,"x_min":78,"x_max":872,"o":"m 350 343 q 342 362 346 353 q 336 378 339 371 l 276 596 q 263 690 263 633 q 281 806 264 761 q 326 876 299 850 q 389 912 354 901 q 460 925 424 922 l 460 1051 l 585 1051 l 585 925 q 658 912 622 922 q 721 875 693 901 q 766 803 749 849 q 783 683 783 757 l 783 454 l 536 454 q 490 455 511 454 q 439 461 468 456 l 456 401 q 484 360 463 376 q 532 343 506 343 l 842 343 l 872 161 l 785 161 l 700 258 l 203 258 l 203 0 l 78 0 l 78 343 l 350 343 m 388 690 q 394 628 389 651 q 416 590 400 604 q 460 572 432 576 q 536 567 489 567 l 658 567 l 658 681 q 654 744 658 719 q 638 785 650 769 q 601 806 625 800 q 536 814 576 813 l 529 814 q 458 809 485 814 q 415 790 431 804 q 394 752 400 776 q 388 690 389 728 z "}}}
